<svg width="19" height="18" viewBox="0 0 19 18" fill="none" xmlns="http://www.w3.org/2000/svg">
<path d="M16.2804 5.78033C16.5733 5.48744 16.5733 5.01256 16.2804 4.71967C15.9875 4.42678 15.5126 4.42678 15.2197 4.71967L16.2804 5.78033ZM7.50008 13.5L6.96975 14.0303C7.26265 14.3232 7.73752 14.3232 8.03041 14.0303L7.50008 13.5ZM4.28032 9.21966C3.98742 8.92677 3.51255 8.92678 3.21966 9.21968C2.92677 9.51258 2.92678 9.98745 3.21968 10.2803L4.28032 9.21966ZM15.2197 4.71967L6.96975 12.9696L8.03041 14.0303L16.2804 5.78033L15.2197 4.71967ZM3.21968 10.2803L6.96975 14.0303L8.0304 12.9696L4.28032 9.21966L3.21968 10.2803Z" fill="#B9B9B9"/>
</svg>
