<svg width="12" height="12" viewBox="0 0 12 12" fill="none" xmlns="http://www.w3.org/2000/svg">
<path d="M2.14616 3.89592C2.19261 3.84935 2.24778 3.81241 2.30853 3.7872C2.36927 3.762 2.43439 3.74902 2.50016 3.74902C2.56593 3.74902 2.63105 3.762 2.6918 3.7872C2.75254 3.81241 2.80772 3.84935 2.85416 3.89592L6.00016 7.04292L9.14616 3.89592C9.24005 3.80203 9.36739 3.74929 9.50016 3.74929C9.63294 3.74929 9.76027 3.80203 9.85416 3.89592C9.94805 3.9898 10.0008 4.11714 10.0008 4.24992C10.0008 4.38269 9.94805 4.51003 9.85416 4.60392L6.35416 8.10392C6.30772 8.15048 6.25254 8.18742 6.1918 8.21263C6.13105 8.23784 6.06593 8.25081 6.00016 8.25081C5.93439 8.25081 5.86927 8.23784 5.80853 8.21263C5.74778 8.18742 5.69261 8.15048 5.64616 8.10392L2.14616 4.60392C2.0996 4.55747 2.06266 4.5023 2.03745 4.44155C2.01224 4.38081 1.99927 4.31568 1.99927 4.24992C1.99927 4.18415 2.01224 4.11903 2.03745 4.05828C2.06266 3.99754 2.0996 3.94236 2.14616 3.89592Z" fill="#214159"/>
</svg>
