<svg width="19" height="18" viewBox="0 0 19 18" fill="none" xmlns="http://www.w3.org/2000/svg">
<path d="M9.75 14.25C9.33579 14.25 9 14.5858 9 15C9 15.4142 9.33579 15.75 9.75 15.75V14.25ZM16.125 15.75C16.5392 15.75 16.875 15.4142 16.875 15C16.875 14.5858 16.5392 14.25 16.125 14.25V15.75ZM3.75 15H3C3 15.4142 3.33579 15.75 3.75 15.75V15ZM3.75 12L3.21967 11.4697C3.07902 11.6103 3 11.8011 3 12H3.75ZM13.5 2.25L14.0303 1.71967C13.7374 1.42678 13.2626 1.42678 12.9697 1.71967L13.5 2.25ZM16.5 5.25L17.0303 5.78033C17.3232 5.48744 17.3232 5.01256 17.0303 4.71967L16.5 5.25ZM6.75 15V15.75C6.94891 15.75 7.13968 15.671 7.28033 15.5303L6.75 15ZM9.75 15.75H16.125V14.25H9.75V15.75ZM4.5 15V12H3V15H4.5ZM12.9697 2.78033L15.9697 5.78033L17.0303 4.71967L14.0303 1.71967L12.9697 2.78033ZM6.75 14.25H3.75V15.75H6.75V14.25ZM15.9697 4.71967L13.7197 6.96967L14.7803 8.03033L17.0303 5.78033L15.9697 4.71967ZM13.7197 6.96967L6.21967 14.4697L7.28033 15.5303L14.7803 8.03033L13.7197 6.96967ZM4.28033 12.5303L11.7803 5.03033L10.7197 3.96967L3.21967 11.4697L4.28033 12.5303ZM11.7803 5.03033L14.0303 2.78033L12.9697 1.71967L10.7197 3.96967L11.7803 5.03033ZM14.7803 6.96967L11.7803 3.96967L10.7197 5.03033L13.7197 8.03033L14.7803 6.96967Z" fill="#B9B9B9"/>
</svg>
