<svg width="18" height="19" viewBox="0 0 18 19" fill="none" xmlns="http://www.w3.org/2000/svg">
<path d="M2.82544 7.57951L2.24968 7.09888L2.82544 7.57951ZM15.1744 7.57951L14.5986 8.06013L14.5986 8.06013L15.1744 7.57951ZM15.1744 11.4205L14.5986 10.9399L14.5986 10.9399L15.1744 11.4205ZM2.82544 11.4205L2.24968 11.9011L2.82544 11.4205ZM3.4012 8.06013C4.6055 6.61745 6.51919 5 8.99991 5V3.5C5.84455 3.5 3.54835 5.54315 2.24968 7.09888L3.4012 8.06013ZM8.99991 5C11.4806 5 13.3943 6.61745 14.5986 8.06013L15.7502 7.09888C14.4515 5.54315 12.1553 3.5 8.99991 3.5V5ZM14.5986 10.9399C13.3943 12.3825 11.4806 14 8.99991 14V15.5C12.1553 15.5 14.4515 13.4569 15.7501 11.9011L14.5986 10.9399ZM8.99991 14C6.51919 14 4.6055 12.3825 3.4012 10.9399L2.24968 11.9011C3.54835 13.4569 5.84455 15.5 8.99991 15.5V14ZM14.5986 8.06013C15.3054 8.90684 15.3054 10.0932 14.5986 10.9399L15.7501 11.9011C16.9216 10.4978 16.9216 8.5022 15.7502 7.09888L14.5986 8.06013ZM2.24968 7.09888C1.07823 8.5022 1.07823 10.4978 2.24968 11.9011L3.4012 10.9399C2.69439 10.0932 2.69439 8.90684 3.4012 8.06013L2.24968 7.09888ZM10.4999 9.5C10.4999 10.3284 9.82834 11 8.99991 11V12.5C10.6568 12.5 11.9999 11.1569 11.9999 9.5H10.4999ZM8.99991 11C8.17148 11 7.49991 10.3284 7.49991 9.5H5.99991C5.99991 11.1569 7.34305 12.5 8.99991 12.5V11ZM7.49991 9.5C7.49991 8.67157 8.17148 8 8.99991 8V6.5C7.34305 6.5 5.99991 7.84315 5.99991 9.5H7.49991ZM8.99991 8C9.82834 8 10.4999 8.67157 10.4999 9.5H11.9999C11.9999 7.84315 10.6568 6.5 8.99991 6.5V8Z" fill="#909090"/>
</svg>
