<svg width="19" height="18" viewBox="0 0 19 18" fill="none" xmlns="http://www.w3.org/2000/svg">
<path d="M9.25 15.75L8.94071 16.4333C9.1373 16.5222 9.3627 16.5222 9.55929 16.4333L9.25 15.75ZM10.75 8.25C10.75 9.07843 10.0784 9.75 9.25 9.75V11.25C10.9069 11.25 12.25 9.90685 12.25 8.25H10.75ZM9.25 9.75C8.42157 9.75 7.75 9.07843 7.75 8.25H6.25C6.25 9.90685 7.59315 11.25 9.25 11.25V9.75ZM7.75 8.25C7.75 7.42157 8.42157 6.75 9.25 6.75V5.25C7.59315 5.25 6.25 6.59315 6.25 8.25H7.75ZM9.25 6.75C10.0784 6.75 10.75 7.42157 10.75 8.25H12.25C12.25 6.59315 10.9069 5.25 9.25 5.25V6.75ZM14.5 8.25C14.5 11.1275 12.145 13.6163 8.94071 15.0667L9.55929 16.4333C12.9824 14.8837 16 12 16 8.25H14.5ZM9.55929 15.0667C6.35501 13.6163 4 11.1275 4 8.25H2.5C2.5 12 5.51757 14.8837 8.94071 16.4333L9.55929 15.0667ZM4 8.25C4 5.3505 6.3505 3 9.25 3V1.5C5.52208 1.5 2.5 4.52208 2.5 8.25H4ZM9.25 3C12.1495 3 14.5 5.3505 14.5 8.25H16C16 4.52208 12.9779 1.5 9.25 1.5V3Z" fill="#B9B9B9"/>
</svg>
