<svg width="16" height="17" viewBox="0 0 16 17" fill="none" xmlns="http://www.w3.org/2000/svg">
<path d="M3.33325 14.5H2.58325C2.58325 14.9142 2.91904 15.25 3.33325 15.25V14.5ZM12.6666 14.5V15.25C13.0808 15.25 13.4166 14.9142 13.4166 14.5H12.6666ZM12.6666 7.83333H13.4166C13.4166 7.41912 13.0808 7.08333 12.6666 7.08333V7.83333ZM3.33325 7.83333V7.08333C2.91904 7.08333 2.58325 7.41912 2.58325 7.83333H3.33325ZM6.08325 7.83333V5.16667H4.58325V7.83333H6.08325ZM6.08325 5.16667C6.08325 4.84224 6.18675 4.3389 6.47524 3.93823C6.73619 3.5758 7.17769 3.25 7.99992 3.25V1.75C6.68881 1.75 5.79698 2.31309 5.25793 3.06177C4.74642 3.77221 4.58325 4.6022 4.58325 5.16667H6.08325ZM7.99992 3.25C8.82215 3.25 9.26365 3.57579 9.5246 3.93823C9.81309 4.3389 9.91659 4.84224 9.91659 5.16667H11.4166C11.4166 4.6022 11.2534 3.77221 10.7419 3.06177C10.2029 2.31309 9.31103 1.75 7.99992 1.75V3.25ZM9.91659 5.16667V7.83333H11.4166V5.16667H9.91659ZM3.33325 15.25H12.6666V13.75H3.33325V15.25ZM13.4166 14.5V7.83333H11.9166V14.5H13.4166ZM2.58325 7.83333V14.5H4.08325V7.83333H2.58325ZM5.33325 7.08333H3.33325V8.58333H5.33325V7.08333ZM12.6666 7.08333H10.6666V8.58333H12.6666V7.08333ZM10.6666 7.08333H5.33325V8.58333H10.6666V7.08333Z" fill="#909090"/>
</svg>
