<svg width="18" height="18" viewBox="0 0 18 18" fill="none" xmlns="http://www.w3.org/2000/svg">
<g clip-path="url(#clip0_545_121)">
<path fill-rule="evenodd" clip-rule="evenodd" d="M11.0625 1.5C11.0625 1.08579 11.3983 0.75 11.8125 0.75H14.625C16.0747 0.75 17.25 1.92525 17.25 3.375V14.625C17.25 16.0747 16.0747 17.25 14.625 17.25H11.8125C11.3983 17.25 11.0625 16.9142 11.0625 16.5C11.0625 16.0858 11.3983 15.75 11.8125 15.75H14.625C15.2463 15.75 15.75 15.2463 15.75 14.625V3.375C15.75 2.75368 15.2463 2.25 14.625 2.25H11.8125C11.3983 2.25 11.0625 1.91421 11.0625 1.5ZM5.78033 4.71967C6.07322 5.01256 6.07322 5.48744 5.78033 5.78033L3.31066 8.25L12.75 8.25C13.1642 8.25 13.5 8.58579 13.5 9C13.5 9.41421 13.1642 9.75 12.75 9.75H3.31066L5.78033 12.2197C6.07322 12.5126 6.07322 12.9874 5.78033 13.2803C5.48744 13.5732 5.01256 13.5732 4.71967 13.2803L0.96967 9.53033C0.829018 9.38968 0.75 9.19891 0.75 9C0.75 8.80109 0.829018 8.61032 0.96967 8.46967L4.71967 4.71967C5.01256 4.42678 5.48744 4.42678 5.78033 4.71967Z" fill="#214159"/>
</g>
<defs>
<clipPath id="clip0_545_121">
<rect width="18" height="18" fill="white"/>
</clipPath>
</defs>
</svg>
