<svg width="16" height="17" viewBox="0 0 16 17" fill="none" xmlns="http://www.w3.org/2000/svg">
<path d="M7.05719 8.89066L7.58752 8.36033L7.58752 8.36032L7.05719 8.89066ZM8.94281 8.89066L8.41248 8.36032L8.41248 8.36033L8.94281 8.89066ZM2.66667 4.5835H13.3333V3.0835H2.66667V4.5835ZM13.25 4.50016V12.5002H14.75V4.50016H13.25ZM13.3333 12.4168H2.66667V13.9168H13.3333V12.4168ZM2.75 12.5002V4.50016H1.25V12.5002H2.75ZM2.66667 12.4168C2.71269 12.4168 2.75 12.4541 2.75 12.5002H1.25C1.25 13.2826 1.88426 13.9168 2.66667 13.9168V12.4168ZM13.25 12.5002C13.25 12.4541 13.2873 12.4168 13.3333 12.4168V13.9168C14.1157 13.9168 14.75 13.2826 14.75 12.5002H13.25ZM2.66667 3.0835C2.27567 3.0835 1.92048 3.24288 1.66493 3.49843L2.72559 4.55909C2.71133 4.57335 2.68947 4.5835 2.66667 4.5835V3.0835ZM1.66493 3.49843C1.40939 3.75397 1.25 4.10917 1.25 4.50016H2.75C2.75 4.52297 2.73985 4.54483 2.72559 4.55909L1.66493 3.49843ZM13.3333 4.5835C13.3105 4.5835 13.2887 4.57335 13.2744 4.55909L14.3351 3.49843C14.0795 3.24288 13.7243 3.0835 13.3333 3.0835V4.5835ZM13.2744 4.55909C13.2601 4.54483 13.25 4.52297 13.25 4.50016H14.75C14.75 4.10917 14.5906 3.75397 14.3351 3.49843L13.2744 4.55909ZM6.52686 9.42099C7.34045 10.2346 8.65955 10.2346 9.47314 9.42099L8.41248 8.36033C8.18467 8.58813 7.81533 8.58813 7.58752 8.36033L6.52686 9.42099ZM1.66493 4.55909L6.52686 9.42099L7.58752 8.36032L2.72559 3.49843L1.66493 4.55909ZM9.47314 9.42099L14.3351 4.55909L13.2744 3.49843L8.41248 8.36032L9.47314 9.42099Z" fill="#909090"/>
</svg>
