<svg width="16" height="16" viewBox="0 0 16 16" fill="none" xmlns="http://www.w3.org/2000/svg">
<path d="M9.99952 13.0005C9.98919 13.5632 9.79386 14.0345 9.41352 14.4145C9.03319 14.7945 8.56186 14.9898 7.99952 15.0005C7.43686 14.9902 6.96552 14.7948 6.58552 14.4145C6.20552 14.0342 6.01019 13.5628 5.99952 13.0005H9.99952ZM12.9995 12.0005H2.09302C1.92636 12.0005 1.78569 11.9432 1.67102 11.8285C1.55636 11.7138 1.49902 11.5707 1.49902 11.399C1.49902 11.2273 1.55636 11.0867 1.67102 10.977C1.78569 10.8673 1.92636 10.8075 2.09302 10.7975H2.99952V7.0005C3.02052 5.77117 3.40069 4.71133 4.14002 3.821C4.87936 2.93067 5.83252 2.35517 6.99952 2.0945C6.98919 1.90683 7.02302 1.72967 7.10102 1.563C7.17902 1.39633 7.30136 1.26083 7.46802 1.1565C7.63469 1.05217 7.81186 1 7.99952 1C8.18719 1 8.36436 1.05217 8.53102 1.1565C8.69769 1.26083 8.82002 1.39633 8.89802 1.563C8.97602 1.72967 9.00986 1.90683 8.99952 2.0945C10.1872 2.3655 11.1455 2.94617 11.8745 3.8365C12.6035 4.72683 12.9785 5.7815 12.9995 7.0005V10.7975H13.906C14.0727 10.8078 14.2134 10.8677 14.328 10.977C14.4427 11.0863 14.5 11.227 14.5 11.399C14.5 11.571 14.4427 11.7142 14.328 11.8285C14.2134 11.9428 14.0727 12.0002 13.906 12.0005H12.9995V12.0005Z" fill="#87A6C0"/>
</svg>
