<svg width="32" height="32" viewBox="0 0 32 32" fill="none" xmlns="http://www.w3.org/2000/svg">
<path d="M26.66 8.9173C27.8553 8.20275 28.7496 7.07761 29.176 5.75196C28.0529 6.41839 26.8241 6.88783 25.5427 7.13996C24.6785 6.22576 23.5375 5.62119 22.2958 5.41943C21.0541 5.21768 19.7804 5.42994 18.6712 6.02351C17.562 6.61707 16.6788 7.55898 16.1578 8.70404C15.6368 9.84911 15.5068 11.1338 15.788 12.36C13.5132 12.2458 11.2878 11.6545 9.25631 10.6245C7.22481 9.59448 5.4326 8.14881 3.99602 6.3813C3.26544 7.64143 3.04188 9.13241 3.37075 10.5514C3.69962 11.9704 4.55626 13.211 5.76669 14.0213C4.8583 13.9921 3.97006 13.7461 3.17602 13.304V13.376C3.17628 14.6973 3.63353 15.9778 4.47024 17.0004C5.30695 18.023 6.4716 18.7248 7.76669 18.9866C6.92411 19.2159 6.0403 19.2496 5.18269 19.0853C5.54899 20.2217 6.26096 21.2154 7.21923 21.9277C8.17749 22.64 9.33424 23.0354 10.528 23.0586C8.50113 24.6495 5.99799 25.5122 3.42135 25.508C2.96402 25.508 2.50802 25.4813 2.05469 25.4293C4.67124 27.1106 7.71652 28.003 10.8267 28C12.9688 28.0147 15.0925 27.6036 17.0744 26.7906C19.0564 25.9775 20.857 24.7788 22.3717 23.264C23.8864 21.7492 25.0849 19.9485 25.8978 17.9665C26.7107 15.9845 27.1216 13.8608 27.1067 11.7186C27.1067 11.4706 27.1014 11.224 27.0894 10.9786C28.21 10.1688 29.1771 9.16551 29.9454 8.01596C28.9014 8.4787 27.794 8.78251 26.66 8.9173Z" fill="#A8A8A8"/>
</svg>
