<svg width="19" height="18" viewBox="0 0 19 18" fill="none" xmlns="http://www.w3.org/2000/svg">
<path d="M15.75 15.75V16.5C16.1642 16.5 16.5 16.1642 16.5 15.75H15.75ZM3.75 15.75H3C3 16.1642 3.33579 16.5 3.75 16.5V15.75ZM6.75 12H12.75V10.5H6.75V12ZM15 14.25V15.75H16.5V14.25H15ZM4.5 15.75V14.25H3V15.75H4.5ZM12.75 12C13.9926 12 15 13.0074 15 14.25H16.5C16.5 12.1789 14.8211 10.5 12.75 10.5V12ZM6.75 10.5C4.67893 10.5 3 12.1789 3 14.25H4.5C4.5 13.0074 5.50736 12 6.75 12V10.5ZM12 5.25C12 6.49264 10.9926 7.5 9.75 7.5V9C11.8211 9 13.5 7.32107 13.5 5.25H12ZM9.75 7.5C8.50736 7.5 7.5 6.49264 7.5 5.25H6C6 7.32107 7.67893 9 9.75 9V7.5ZM7.5 5.25C7.5 4.00736 8.50736 3 9.75 3V1.5C7.67893 1.5 6 3.17893 6 5.25H7.5ZM9.75 3C10.9926 3 12 4.00736 12 5.25H13.5C13.5 3.17893 11.8211 1.5 9.75 1.5V3ZM3.75 16.5H15.75V15H3.75V16.5Z" fill="#B9B9B9"/>
</svg>
