<svg width="8" height="6" viewBox="0 0 8 6" fill="none" xmlns="http://www.w3.org/2000/svg">
<path d="M0.145917 0.895917C0.192363 0.849354 0.247538 0.812411 0.308284 0.787204C0.369029 0.761998 0.43415 0.749023 0.499917 0.749023C0.565685 0.749023 0.630806 0.761998 0.691551 0.787204C0.752296 0.812411 0.807472 0.849354 0.853917 0.895917L3.99992 4.04292L7.14592 0.895917C7.2398 0.80203 7.36714 0.749285 7.49992 0.749285C7.63269 0.749285 7.76003 0.80203 7.85392 0.895917C7.9478 0.989804 8.00055 1.11714 8.00055 1.24992C8.00055 1.38269 7.9478 1.51003 7.85392 1.60392L4.35392 5.10392C4.30747 5.15048 4.2523 5.18742 4.19155 5.21263C4.13081 5.23784 4.06568 5.25081 3.99992 5.25081C3.93415 5.25081 3.86903 5.23784 3.80828 5.21263C3.74754 5.18742 3.69236 5.15048 3.64592 5.10392L0.145917 1.60392C0.0993539 1.55747 0.0624112 1.5023 0.0372047 1.44155C0.0119983 1.38081 -0.000976562 1.31568 -0.000976562 1.24992C-0.000976562 1.18415 0.0119983 1.11903 0.0372047 1.05828C0.0624112 0.997538 0.0993539 0.942363 0.145917 0.895917Z" fill="#1C3149"/>
</svg>
