<svg width="14" height="15" viewBox="0 0 14 15" fill="none" xmlns="http://www.w3.org/2000/svg">
<path d="M1.75 14.0602H1.1875C1.1875 14.3708 1.43934 14.6227 1.75 14.6227V14.0602ZM12.25 14.0602V14.6227C12.5607 14.6227 12.8125 14.3708 12.8125 14.0602H12.25ZM1 6.56015H0.4375C0.4375 6.87081 0.68934 7.12265 1 7.12265L1 6.56015ZM1 4.31015V3.74765C0.68934 3.74765 0.4375 3.99949 0.4375 4.31015H1ZM13 4.31015H13.5625C13.5625 3.99949 13.3107 3.74765 13 3.74765V4.31015ZM13 6.56015V7.12265C13.3107 7.12265 13.5625 6.87081 13.5625 6.56015H13ZM7 4.31015L6.96258 4.8714C6.9875 4.87307 7.0125 4.87307 7.03742 4.8714L7 4.31015ZM1.75 14.6227H12.25V13.4977H1.75V14.6227ZM12.8125 14.0602V6.56015H11.6875V14.0602H12.8125ZM12.25 5.99765H1.75V7.12265H12.25V5.99765ZM1.1875 6.56015V14.0602H2.3125V6.56015H1.1875ZM1.75 5.99765H1V7.12265H1.75V5.99765ZM1.5625 6.56015V4.31015H0.4375V6.56015H1.5625ZM1 4.87265H13V3.74765H1V4.87265ZM12.4375 4.31015V6.56015H13.5625V4.31015H12.4375ZM13 5.99765H12.25V7.12265H13V5.99765ZM7.51208 4.54291C7.81607 3.87414 8.34503 2.91684 8.94458 2.31727C9.24637 2.01547 9.51058 1.86088 9.72045 1.82242C9.88581 1.79212 10.0881 1.81886 10.3522 2.0829L11.1477 1.2874C10.6617 0.801443 10.0984 0.609431 9.51767 0.715848C8.98147 0.814107 8.51914 1.15171 8.14908 1.52178C7.40492 2.26596 6.80893 3.37116 6.48792 4.07739L7.51208 4.54291ZM10.3522 2.0829C10.4942 2.22496 10.5403 2.32357 10.5544 2.37424C10.5655 2.41391 10.5634 2.44346 10.5455 2.48423C10.4924 2.60498 10.3036 2.79923 9.8855 3.01193C9.08225 3.42062 7.84976 3.68975 6.96258 3.7489L7.03742 4.8714C8.02524 4.80555 9.4177 4.51218 10.3957 4.01462C10.8682 3.7742 11.359 3.42938 11.5754 2.93685C11.6923 2.67098 11.7225 2.37534 11.6383 2.07272C11.5571 1.78111 11.3806 1.52034 11.1477 1.2874L10.3522 2.0829ZM7.51208 4.07739C7.19106 3.37115 6.59504 2.26595 5.85087 1.52178C5.48079 1.1517 5.01844 0.814105 4.48224 0.715847C3.90152 0.609433 3.33821 0.801439 2.85224 1.2874L3.64774 2.0829C3.91177 1.81886 4.11409 1.79212 4.27946 1.82242C4.48935 1.86088 4.75358 2.01548 5.05537 2.31727C5.65495 2.91685 6.18394 3.87415 6.48792 4.54291L7.51208 4.07739ZM2.85224 1.2874C2.6193 1.52034 2.44275 1.78111 2.36163 2.07273C2.27745 2.37535 2.30763 2.67099 2.42448 2.93686C2.64095 3.42939 3.13176 3.7742 3.6043 4.01462C4.58227 4.51218 5.97476 4.80555 6.96258 4.8714L7.03742 3.7489C6.15024 3.68975 4.91772 3.42062 4.11444 3.01193C3.69636 2.79922 3.50748 2.60497 3.45441 2.48422C3.43649 2.44345 3.43444 2.4139 3.44548 2.37423C3.45957 2.32357 3.50568 2.22496 3.64774 2.0829L2.85224 1.2874Z" fill="#535353"/>
</svg>
