<svg width="18" height="18" viewBox="0 0 18 18" fill="none" xmlns="http://www.w3.org/2000/svg">
<path d="M9 15L8.59509 15.3905C8.7011 15.5004 8.84727 15.5625 9 15.5625C9.15273 15.5625 9.2989 15.5004 9.40491 15.3905L9 15ZM3.24855 9.03553L2.84364 9.42598L2.84364 9.42598L3.24855 9.03553ZM14.7514 9.03553L14.3465 8.64508L14.3465 8.64508L14.7514 9.03553ZM8.06998 4.03553L7.66507 4.42599L7.66507 4.42599L8.06998 4.03553ZM9 5L8.59509 5.39045C8.7011 5.50039 8.84727 5.5625 9 5.5625C9.15273 5.5625 9.2989 5.50039 9.40491 5.39045L9 5ZM9.93002 4.03553L9.52511 3.64508L9.52511 3.64508L9.93002 4.03553ZM9.40491 14.6095L3.65346 8.64508L2.84364 9.42598L8.59509 15.3905L9.40491 14.6095ZM14.3465 8.64508L8.59509 14.6095L9.40491 15.3905L15.1564 9.42598L14.3465 8.64508ZM7.66507 4.42599L8.59509 5.39045L9.40491 4.60955L8.47489 3.64508L7.66507 4.42599ZM9.40491 5.39045L10.3349 4.42598L9.52511 3.64508L8.59509 4.60955L9.40491 5.39045ZM12.3407 2.4375C11.2806 2.4375 10.2683 2.87442 9.52511 3.64508L10.3349 4.42598C10.8705 3.87057 11.5925 3.5625 12.3407 3.5625V2.4375ZM15.1875 6.53553C15.1875 7.3305 14.8828 8.08897 14.3465 8.64508L15.1564 9.42598C15.8988 8.65601 16.3125 7.61593 16.3125 6.53553H15.1875ZM16.3125 6.53553C16.3125 4.29171 14.5534 2.4375 12.3407 2.4375V3.5625C13.8939 3.5625 15.1875 4.87412 15.1875 6.53553H16.3125ZM5.65926 3.5625C6.40754 3.5625 7.12949 3.87057 7.66507 4.42599L8.47489 3.64508C7.73175 2.87442 6.71938 2.4375 5.65926 2.4375V3.5625ZM2.8125 6.53553C2.8125 4.87412 4.10615 3.5625 5.65926 3.5625V2.4375C3.44661 2.4375 1.6875 4.29171 1.6875 6.53553H2.8125ZM3.65346 8.64508C3.11721 8.08897 2.8125 7.3305 2.8125 6.53553H1.6875C1.6875 7.61593 2.10117 8.65601 2.84364 9.42598L3.65346 8.64508Z" fill="#535353"/>
</svg>
