<svg width="18" height="19" viewBox="0 0 18 19" fill="none" xmlns="http://www.w3.org/2000/svg">
<path d="M9.00293 3.18359L9.37912 2.75367C9.16373 2.56521 8.84213 2.56521 8.62675 2.75367L9.00293 3.18359ZM3.00293 8.43359L2.62675 8.00367C2.50277 8.11215 2.43166 8.26886 2.43166 8.43359L3.00293 8.43359ZM15.0029 8.43359H15.5742C15.5742 8.26886 15.5031 8.11215 15.3791 8.00367L15.0029 8.43359ZM15.0029 15.9336V16.5049C15.1544 16.5049 15.2997 16.4447 15.4069 16.3375C15.514 16.2304 15.5742 16.0851 15.5742 15.9336H15.0029ZM11.2529 15.9336H10.6817C10.6817 16.2491 10.9374 16.5049 11.2529 16.5049V15.9336ZM10.5939 11.3426L10.9979 10.9387L10.9979 10.9387L10.5939 11.3426ZM6.75293 15.9336V16.5049C7.06844 16.5049 7.3242 16.2491 7.3242 15.9336H6.75293ZM3.00293 15.9336H2.43166C2.43166 16.2491 2.68743 16.5049 3.00293 16.5049V15.9336ZM8.62675 2.75367L2.62675 8.00367L3.37911 8.86352L9.37912 3.61352L8.62675 2.75367ZM15.3791 8.00367L9.37912 2.75367L8.62675 3.61352L14.6267 8.86352L15.3791 8.00367ZM14.4317 8.43359L14.4317 15.9336H15.5742L15.5742 8.43359L14.4317 8.43359ZM15.0029 15.3623H11.2529V16.5049H15.0029V15.3623ZM11.8242 15.9336V12.9336H10.6817V15.9336H11.8242ZM11.8242 12.9336C11.8242 12.1853 11.527 11.4677 10.9979 10.9387L10.19 11.7465C10.5048 12.0614 10.6817 12.4884 10.6817 12.9336H11.8242ZM10.9979 10.9387C10.4688 10.4096 9.75118 10.1123 9.00293 10.1123V11.2549C9.44816 11.2549 9.87515 11.4317 10.19 11.7466L10.9979 10.9387ZM9.00293 10.1123C8.25469 10.1123 7.53709 10.4096 7.008 10.9387L7.81589 11.7466C8.13071 11.4317 8.55771 11.2549 9.00293 11.2549V10.1123ZM7.008 10.9387C6.4789 11.4677 6.18167 12.1853 6.18167 12.9336H7.3242C7.3242 12.4884 7.50107 12.0614 7.81589 11.7466L7.008 10.9387ZM6.18167 12.9336V15.9336H7.3242V12.9336H6.18167ZM6.75293 15.3623H3.00293V16.5049H6.75293V15.3623ZM3.5742 15.9336L3.5742 8.43359L2.43166 8.43359L2.43166 15.9336H3.5742Z" fill="#535353"/>
</svg>
