<svg width="16" height="15" viewBox="0 0 16 15" fill="none" xmlns="http://www.w3.org/2000/svg">
<path d="M1.35545 12.7742L0.61552 12.8967L1.35545 12.7742ZM6.56137 9.45787L6.97739 8.83383L6.56137 9.45787ZM6.98564 9.74072L6.56962 10.3648H6.56962L6.98564 9.74072ZM8.9513 9.65542L9.41982 10.2411L8.9513 9.65542ZM11.1581 7.88998L10.6896 7.30433L11.1581 7.88998ZM13.102 7.79039L12.6955 8.42065V8.42065L13.102 7.79039ZM4.53936 9.59032L4.04548 9.02589C4.03296 9.03685 4.0208 9.04822 4.00903 9.05999L4.53936 9.59032ZM13.283 7.94185L12.7527 8.47218L12.7527 8.47218L13.283 7.94185ZM2.99967 1.58337H12.9997V0.083374H2.99967V1.58337ZM12.9997 13.4167H2.99967V14.9167H12.9997V13.4167ZM2.08301 12.5V2.50004H0.583008V12.5H2.08301ZM13.9163 12.5C13.9163 13.0063 13.5059 13.4167 12.9997 13.4167V14.9167C14.3344 14.9167 15.4163 13.8347 15.4163 12.5H13.9163ZM12.9997 1.58337C13.5059 1.58337 13.9163 1.99378 13.9163 2.50004H15.4163C15.4163 1.16535 14.3344 0.083374 12.9997 0.083374V1.58337ZM2.99967 0.083374C1.66499 0.083374 0.583008 1.16535 0.583008 2.50004H2.08301C2.08301 1.99378 2.49341 1.58337 2.99967 1.58337V0.083374ZM2.99967 13.4167C2.54551 13.4167 2.16721 13.0857 2.09539 12.6518L0.61552 12.8967C0.805219 14.0428 1.79966 14.9167 2.99967 14.9167V13.4167ZM2.09539 12.6518C2.0873 12.6029 2.08301 12.5522 2.08301 12.5H0.583008C0.583008 12.6346 0.594082 12.7672 0.61552 12.8967L2.09539 12.6518ZM13.9163 2.50004V9.32514H15.4163V2.50004H13.9163ZM13.9163 9.32514V12.5H15.4163V9.32514H13.9163ZM6.41634 5.00004C6.41634 5.5063 6.00594 5.91671 5.49967 5.91671V7.41671C6.83436 7.41671 7.91634 6.33473 7.91634 5.00004H6.41634ZM5.49967 5.91671C4.99341 5.91671 4.58301 5.5063 4.58301 5.00004H3.08301C3.08301 6.33473 4.16499 7.41671 5.49967 7.41671V5.91671ZM4.58301 5.00004C4.58301 4.49378 4.99341 4.08337 5.49967 4.08337V2.58337C4.16499 2.58337 3.08301 3.66535 3.08301 5.00004H4.58301ZM5.49967 4.08337C6.00594 4.08337 6.41634 4.49378 6.41634 5.00004H7.91634C7.91634 3.66535 6.83436 2.58337 5.49967 2.58337V4.08337ZM6.14534 10.0819L6.56962 10.3648L7.40167 9.11668L6.97739 8.83383L6.14534 10.0819ZM9.41982 10.2411L11.6266 8.47563L10.6896 7.30433L8.48278 9.06976L9.41982 10.2411ZM11.6266 8.47563C11.9359 8.22823 12.3669 8.2087 12.6955 8.42065L13.5086 7.16013C12.6412 6.60066 11.5053 6.65176 10.6896 7.30433L11.6266 8.47563ZM6.56962 10.3648C7.44527 10.9485 8.59803 10.8985 9.41982 10.2411L8.48278 9.06976C8.17107 9.31914 7.73381 9.33811 7.40167 9.11668L6.56962 10.3648ZM5.03324 10.1548C5.34492 9.88204 5.80075 9.85218 6.14534 10.0819L6.97739 8.83383C6.06892 8.22818 4.86719 8.3069 4.04548 9.02589L5.03324 10.1548ZM4.00903 9.05999L0.825124 12.2439L1.88578 13.3046L5.06969 10.1207L4.00903 9.05999ZM12.7527 8.47218L14.136 9.85548L15.1967 8.7948L13.8133 7.41151L12.7527 8.47218ZM12.6955 8.42065C12.6954 8.42061 12.7001 8.42361 12.7101 8.43216C12.7203 8.44088 12.7339 8.4534 12.7527 8.47218L13.8133 7.41152C13.7411 7.33929 13.6391 7.24434 13.5086 7.16013L12.6955 8.42065Z" fill="#676767"/>
</svg>
