<svg width="18" height="18" viewBox="0 0 18 18" fill="none" xmlns="http://www.w3.org/2000/svg">
<path d="M15.5625 6.375C15.5625 6.06434 15.3107 5.8125 15 5.8125C14.6893 5.8125 14.4375 6.06434 14.4375 6.375H15.5625ZM14.4375 10.125C14.4375 10.4357 14.6893 10.6875 15 10.6875C15.3107 10.6875 15.5625 10.4357 15.5625 10.125H14.4375ZM13.125 7.6875C12.8143 7.6875 12.5625 7.93934 12.5625 8.25C12.5625 8.56066 12.8143 8.8125 13.125 8.8125V7.6875ZM16.875 8.8125C17.1857 8.8125 17.4375 8.56066 17.4375 8.25C17.4375 7.93934 17.1857 7.6875 16.875 7.6875V8.8125ZM15 15.75V16.3125C15.3107 16.3125 15.5625 16.0607 15.5625 15.75H15ZM3 15.75H2.4375C2.4375 16.0607 2.68934 16.3125 3 16.3125V15.75ZM14.4375 6.375V10.125H15.5625V6.375H14.4375ZM13.125 8.8125H16.875V7.6875H13.125V8.8125ZM6 11.8125H12V10.6875H6V11.8125ZM14.4375 14.25V15.75H15.5625V14.25H14.4375ZM3.5625 15.75V14.25H2.4375V15.75H3.5625ZM12 11.8125C13.3462 11.8125 14.4375 12.9038 14.4375 14.25H15.5625C15.5625 12.2825 13.9675 10.6875 12 10.6875V11.8125ZM6 10.6875C4.03249 10.6875 2.4375 12.2825 2.4375 14.25H3.5625C3.5625 12.9038 4.65381 11.8125 6 11.8125V10.6875ZM11.4375 5.25C11.4375 6.59619 10.3462 7.6875 9 7.6875V8.8125C10.9675 8.8125 12.5625 7.21751 12.5625 5.25H11.4375ZM9 7.6875C7.65381 7.6875 6.5625 6.59619 6.5625 5.25H5.4375C5.4375 7.21751 7.03249 8.8125 9 8.8125V7.6875ZM6.5625 5.25C6.5625 3.90381 7.65381 2.8125 9 2.8125V1.6875C7.03249 1.6875 5.4375 3.28249 5.4375 5.25H6.5625ZM9 2.8125C10.3462 2.8125 11.4375 3.90381 11.4375 5.25H12.5625C12.5625 3.28249 10.9675 1.6875 9 1.6875V2.8125ZM3 16.3125H15V15.1875H3V16.3125Z" fill="#535353"/>
</svg>
