<svg width="18" height="18" viewBox="0 0 18 18" fill="none" xmlns="http://www.w3.org/2000/svg">
<path d="M11.627 8.06458C11.3174 8.06458 11.0665 8.31549 11.0665 8.625C11.0665 8.93451 11.3174 9.18542 11.627 9.18542V8.06458ZM11.6345 9.18542C11.944 9.18542 12.1949 8.93451 12.1949 8.625C12.1949 8.31549 11.944 8.06458 11.6345 8.06458V9.18542ZM8.62695 8.06458C8.31744 8.06458 8.06653 8.31549 8.06653 8.625C8.06653 8.93451 8.31744 9.18542 8.62695 9.18542V8.06458ZM8.63445 9.18542C8.94397 9.18542 9.19488 8.93451 9.19488 8.625C9.19488 8.31549 8.94397 8.06458 8.63445 8.06458V9.18542ZM5.62695 8.06458C5.31744 8.06458 5.06653 8.31549 5.06653 8.625C5.06653 8.93451 5.31744 9.18542 5.62695 9.18542V8.06458ZM5.63445 9.18542C5.94397 9.18542 6.19488 8.93451 6.19488 8.625C6.19488 8.31549 5.94397 8.06458 5.63445 8.06458V9.18542ZM11.477 14.325L11.6542 13.7934C11.4809 13.7356 11.2903 13.7659 11.1435 13.8747L11.477 14.325ZM15.752 15.75L15.5748 16.2817C15.7761 16.3488 15.9982 16.2964 16.1483 16.1463C16.2984 15.9962 16.3508 15.7742 16.2836 15.5728L15.752 15.75ZM14.327 11.475L13.8662 11.1561C13.7658 11.3011 13.7395 11.4849 13.7953 11.6523L14.327 11.475ZM11.627 9.18542H11.6345V8.06458H11.627V9.18542ZM8.62695 9.18542H8.63445V8.06458H8.62695V9.18542ZM5.62695 9.18542H5.63445V8.06458H5.62695V9.18542ZM11.2998 14.8567L15.5748 16.2817L15.9292 15.2184L11.6542 13.7934L11.2998 14.8567ZM16.2836 15.5728L14.8586 11.2978L13.7953 11.6523L15.2203 15.9273L16.2836 15.5728ZM8.62695 14.4396C5.41565 14.4396 2.81238 11.8363 2.81238 8.625H1.69153C1.69153 12.4553 4.79662 15.5604 8.62695 15.5604V14.4396ZM2.81238 8.625C2.81238 5.4137 5.41565 2.81042 8.62695 2.81042V1.68958C4.79662 1.68958 1.69153 4.79467 1.69153 8.625H2.81238ZM8.62695 2.81042C11.8383 2.81042 14.4415 5.4137 14.4415 8.625H15.5624C15.5624 4.79467 12.4573 1.68958 8.62695 1.68958V2.81042ZM11.477 14.325C11.1435 13.8747 11.1437 13.8745 11.1439 13.8743C11.144 13.8743 11.1442 13.8741 11.1443 13.874C11.1446 13.8738 11.1448 13.8736 11.1451 13.8734C11.1456 13.8731 11.146 13.8728 11.1464 13.8725C11.1472 13.8719 11.1477 13.8715 11.1481 13.8713C11.1487 13.8708 11.1486 13.8709 11.1475 13.8717C11.1454 13.8731 11.1399 13.8769 11.131 13.8826C11.113 13.8941 11.0813 13.9137 11.0354 13.9388C10.9438 13.9889 10.7958 14.061 10.5896 14.135C10.1783 14.2827 9.5297 14.4396 8.62695 14.4396V15.5604C9.66273 15.5604 10.4392 15.3799 10.9682 15.19C11.2322 15.0953 11.4332 14.9987 11.5731 14.9222C11.643 14.884 11.6976 14.8508 11.7371 14.8255C11.7568 14.8128 11.7728 14.802 11.785 14.7936C11.7911 14.7893 11.7963 14.7857 11.8005 14.7827C11.8027 14.7811 11.8046 14.7798 11.8062 14.7786C11.807 14.778 11.8078 14.7774 11.8085 14.7769C11.8089 14.7766 11.8092 14.7764 11.8095 14.7761C11.8097 14.776 11.8099 14.7758 11.81 14.7758C11.8103 14.7756 11.8105 14.7754 11.477 14.325ZM14.4415 8.625C14.4415 9.49397 14.2853 10.1435 14.136 10.5666C14.0612 10.7786 13.9878 10.9345 13.9361 11.0332C13.9102 11.0825 13.8898 11.1176 13.8773 11.1381C13.871 11.1484 13.8667 11.155 13.8648 11.158C13.8638 11.1595 13.8634 11.1601 13.8636 11.1598C13.8637 11.1596 13.864 11.1592 13.8644 11.1586C13.8646 11.1583 13.8649 11.1579 13.8652 11.1575C13.8653 11.1573 13.8655 11.1571 13.8657 11.1568C13.8657 11.1567 13.8659 11.1565 13.8659 11.1564C13.866 11.1562 13.8662 11.1561 14.327 11.475C14.7878 11.794 14.7879 11.7938 14.788 11.7936C14.7881 11.7935 14.7882 11.7933 14.7884 11.7932C14.7886 11.7929 14.7888 11.7925 14.789 11.7922C14.7895 11.7916 14.79 11.7908 14.7905 11.79C14.7916 11.7885 14.7928 11.7867 14.7942 11.7846C14.797 11.7805 14.8003 11.7753 14.8043 11.7692C14.8123 11.757 14.8225 11.7409 14.8347 11.7209C14.8591 11.6808 14.8914 11.625 14.9288 11.5536C15.0036 11.4109 15.099 11.2058 15.1929 10.9397C15.3811 10.4065 15.5624 9.63103 15.5624 8.625H14.4415Z" fill="#535353"/>
</svg>
