<svg width="17" height="16" viewBox="0 0 17 16" fill="none" xmlns="http://www.w3.org/2000/svg">
<path fill-rule="evenodd" clip-rule="evenodd" d="M10.5947 11.2674C10.0283 11.9166 9.36816 12.4992 8.62598 12.9701C8.53483 13.0396 8.41113 13.0491 8.30957 12.981C7.21452 12.2528 6.29394 11.3776 5.57129 10.4276C4.57389 9.11952 3.94499 7.66856 3.73014 6.27205C3.51139 4.85512 3.71582 3.49264 4.3903 2.38468C4.65592 1.9464 4.99577 1.54759 5.40983 1.20323C6.36165 0.409693 7.44889 -0.00817135 8.53092 -4.61278e-06C9.57389 0.00816213 10.6025 0.415138 11.4919 1.26312C11.8044 1.55984 12.0674 1.90012 12.2822 2.26899C13.0075 3.51714 13.1637 5.10965 12.8447 6.72394C12.5309 8.31782 11.7497 9.93892 10.5947 11.2633V11.2674ZM3.62988 10.1458C3.8877 10.1458 4.09733 10.3649 4.09733 10.6344C4.09733 10.904 3.8877 11.1231 3.62988 11.1231H2.75228L1.59603 15.0254H15.0361L13.7809 11.1231H13.0557C12.7979 11.1231 12.5882 10.904 12.5882 10.6344C12.5882 10.3649 12.7979 10.1458 13.0557 10.1458H14.4489L16.3317 16H0.333008L2.06738 10.1458H3.62988ZM8.3252 2.51943C9.61165 2.51943 10.6533 3.60969 10.6533 4.95176C10.6533 6.29655 9.61035 7.38545 8.3252 7.38545C7.03874 7.38545 5.99837 6.29655 5.99837 4.95176C5.99577 3.60833 7.03874 2.51943 8.3252 2.51943Z" fill="#7C7C7C"/>
</svg>
