<svg width="15" height="14" viewBox="0 0 15 14" fill="none" xmlns="http://www.w3.org/2000/svg">
<path d="M2.75065 1.25L3.31523 1.16935C3.27509 0.888382 3.03447 0.679688 2.75065 0.679688V1.25ZM1.08398 0.679688C0.769009 0.679688 0.513672 0.935025 0.513672 1.25C0.513672 1.56497 0.769009 1.82031 1.08398 1.82031V0.679688ZM4.08398 10.5833L3.5194 10.664C3.55954 10.945 3.80017 11.1536 4.08398 11.1536V10.5833ZM13.7506 2.58333L14.2917 2.76368C14.3497 2.58977 14.3205 2.39859 14.2133 2.24987C14.1061 2.10115 13.934 2.01302 13.7506 2.01302V2.58333ZM11.7506 8.58333V9.15365C11.9961 9.15365 12.2141 8.99657 12.2917 8.76368L11.7506 8.58333ZM3.79826 8.01302C3.48329 8.01302 3.22795 8.26836 3.22795 8.58333C3.22795 8.89831 3.48329 9.15365 3.79826 9.15365V8.01302ZM2.94112 2.01302C2.62615 2.01302 2.37081 2.26836 2.37081 2.58333C2.37081 2.89831 2.62615 3.15365 2.94112 3.15365V2.01302ZM2.75065 0.679688H1.08398V1.82031H2.75065V0.679688ZM4.08398 11.1536H11.084V10.013H4.08398V11.1536ZM4.64856 10.5027L3.31523 1.16935L2.18607 1.33065L3.5194 10.664L4.64856 10.5027ZM13.2096 2.40298L11.2096 8.40299L12.2917 8.76368L14.2917 2.76368L13.2096 2.40298ZM11.7506 8.01302H3.79826V9.15365H11.7506V8.01302ZM2.94112 3.15365H13.7506V2.01302H2.94112V3.15365ZM6.51367 11.9167C6.51367 12.3381 6.17206 12.6797 5.75065 12.6797V13.8203C6.80201 13.8203 7.6543 12.968 7.6543 11.9167H6.51367ZM5.75065 12.6797C5.32925 12.6797 4.98763 12.3381 4.98763 11.9167H3.84701C3.84701 12.968 4.6993 13.8203 5.75065 13.8203V12.6797ZM4.98763 11.9167C4.98763 11.4953 5.32925 11.1536 5.75065 11.1536V10.013C4.6993 10.013 3.84701 10.8653 3.84701 11.9167H4.98763ZM5.75065 11.1536C6.17206 11.1536 6.51367 11.4953 6.51367 11.9167H7.6543C7.6543 10.8653 6.80201 10.013 5.75065 10.013V11.1536ZM11.847 11.9167C11.847 12.3381 11.5054 12.6797 11.084 12.6797V13.8203C12.1353 13.8203 12.9876 12.968 12.9876 11.9167H11.847ZM11.084 12.6797C10.6626 12.6797 10.321 12.3381 10.321 11.9167H9.18034C9.18034 12.968 10.0326 13.8203 11.084 13.8203V12.6797ZM10.321 11.9167C10.321 11.4953 10.6626 11.1536 11.084 11.1536V10.013C10.0326 10.013 9.18034 10.8653 9.18034 11.9167H10.321ZM11.084 11.1536C11.5054 11.1536 11.847 11.4953 11.847 11.9167H12.9876C12.9876 10.8653 12.1353 10.013 11.084 10.013V11.1536Z" fill="#7C7C7C"/>
</svg>
