<svg width="18" height="19" viewBox="0 0 18 19" fill="none" xmlns="http://www.w3.org/2000/svg">
<path d="M9.08482 12.218C9.17963 12.1245 9.23342 11.9972 9.23436 11.864C9.2353 11.7309 9.18331 11.6028 9.08982 11.508C8.99633 11.4132 8.869 11.3594 8.73585 11.3584C8.6027 11.3575 8.47463 11.4095 8.37982 11.503L6.49982 13.363L6.49982 4.41797C6.49982 4.28536 6.44714 4.15818 6.35337 4.06442C6.2596 3.97065 6.13242 3.91797 5.99982 3.91797C5.86721 3.91797 5.74003 3.97065 5.64626 4.06442C5.55249 4.15818 5.49982 4.28536 5.49982 4.41797L5.49982 13.363L3.64982 11.503C3.6032 11.4567 3.54792 11.42 3.48713 11.3951C3.42635 11.3702 3.36125 11.3575 3.29555 11.3577C3.22985 11.3579 3.16484 11.3711 3.10423 11.3964C3.04363 11.4218 2.98861 11.4588 2.94232 11.5055C2.89602 11.5521 2.85937 11.6074 2.83444 11.6682C2.80952 11.7289 2.79681 11.794 2.79704 11.8597C2.79727 11.9254 2.81044 11.9904 2.8358 12.051C2.86115 12.1117 2.8982 12.1667 2.94482 12.213L5.99982 15.268L9.08482 12.218Z" fill="#7C7C7C"/>
<path d="M9.27499 7.12094C9.27441 7.22025 9.30342 7.31748 9.35832 7.40024C9.41323 7.483 9.49153 7.54754 9.58325 7.58562C9.67497 7.62371 9.77596 7.63361 9.87333 7.61408C9.97071 7.59454 10.0601 7.54645 10.13 7.47594L12 5.62094L12 14.5609C12 14.6935 12.0527 14.8207 12.1464 14.9145C12.2402 15.0083 12.3674 15.0609 12.5 15.0609C12.6326 15.0609 12.7598 15.0083 12.8535 14.9145C12.9473 14.8207 13 14.6935 13 14.5609L13 5.62094L14.865 7.47594C14.9116 7.52223 14.9669 7.55888 15.0277 7.58381C15.0885 7.60874 15.1536 7.62145 15.2193 7.62122C15.285 7.62098 15.35 7.60781 15.4106 7.58246C15.4712 7.5571 15.5262 7.52006 15.5725 7.47344C15.6188 7.42682 15.6554 7.37154 15.6804 7.31075C15.7053 7.24997 15.718 7.18487 15.7178 7.11917C15.7173 6.98649 15.6641 6.85943 15.57 6.76594L12.5 3.71094L9.42999 6.76594C9.38184 6.81183 9.34333 6.86686 9.31672 6.92782C9.2901 6.98877 9.27592 7.05443 9.27499 7.12094Z" fill="#EF5D5D"/>
</svg>
