<svg width="14" height="14" viewBox="0 0 14 14" fill="none" xmlns="http://www.w3.org/2000/svg">
<path fill-rule="evenodd" clip-rule="evenodd" d="M1.90664 10.4935C1.53705 11.3789 1.03754 12.2195 0.894531 13.1048L1.41116 13.0611C2.22689 10.7201 2.96206 9.14617 4.55626 7.17778C5.75267 5.70323 7.05079 4.52974 8.71549 3.59771C9.60172 3.10089 10.7367 2.55737 11.7579 2.42025C12.0368 2.38249 12.3198 2.37156 12.6099 2.3964C9.44764 3.11083 6.94404 4.76523 4.94399 7.24535C4.12725 8.25687 3.41726 9.38067 2.76467 10.5651L3.96712 10.7817L3.46661 10.5363L5.25719 10.2551C4.59252 10.0236 3.9359 10.1011 3.72542 9.85166C5.56838 9.76918 7.08302 9.3767 8.14649 8.61458C7.75071 8.55993 7.29451 8.51124 7.05684 8.39896C8.83835 7.80477 9.86859 6.73661 11.1758 5.78868C9.47684 6.14042 7.90479 6.08279 7.4496 5.76384C10.4477 5.98343 12.3843 5.16567 13.0479 3.10387C13.1053 2.8813 13.1215 2.65674 13.0852 2.43019C12.8526 0.956625 10.209 0.458813 9.34894 1.66707C9.17673 1.90853 8.93403 2.13011 8.73362 2.41031L9.55237 0.89502C7.34889 1.62932 7.16761 2.43913 6.0276 4.87851C6.11824 4.13626 6.3267 3.46357 6.59761 2.82864C3.84426 3.87692 2.92681 6.51602 2.77978 8.76064C2.70022 7.97766 2.84725 6.99396 3.13125 5.88903C2.3276 6.68394 1.78076 7.61697 1.97613 8.94844L1.60855 8.78648L1.80191 9.5009L1.25204 9.24355L1.90664 10.4935Z" fill="#535353"/>
</svg>
