<svg width="16" height="16" viewBox="0 0 16 16" fill="none" xmlns="http://www.w3.org/2000/svg">
<path d="M13.9594 6.69492L13.3988 6.74164V6.74164L13.9594 6.69492ZM14.5149 13.3616L15.0755 13.3149L14.5149 13.3616ZM1.48243 13.3616L2.04299 13.4083L1.48243 13.3616ZM2.03799 6.69492L1.47743 6.64821L2.03799 6.69492ZM11.332 4.33333H10.7695V4.33333L11.332 4.33333ZM10.3557 1.97631L9.95795 2.37406L10.3557 1.97631ZM5.64165 1.97631L6.0394 2.37406L5.64165 1.97631ZM4.66534 4.33333H4.10284V4.33333L4.66534 4.33333ZM10.7695 8.5C10.7695 8.81066 11.0213 9.0625 11.332 9.0625C11.6427 9.0625 11.8945 8.81066 11.8945 8.5L10.7695 8.5ZM4.10284 8.5C4.10284 8.81066 4.35468 9.0625 4.66534 9.0625C4.976 9.0625 5.22784 8.81066 5.22784 8.5H4.10284ZM13.3988 6.74164L13.9544 13.4083L15.0755 13.3149L14.5199 6.64821L13.3988 6.74164ZM12.854 14.6042H3.14334V15.7292H12.854V14.6042ZM2.04299 13.4083L2.59855 6.74164L1.47743 6.64821L0.921878 13.3149L2.04299 13.4083ZM3.14334 14.6042C2.49736 14.6042 1.98935 14.0521 2.04299 13.4083L0.921878 13.3149C0.813574 14.6145 1.83919 15.7292 3.14334 15.7292V14.6042ZM13.9544 13.4083C14.008 14.0521 13.5 14.6042 12.854 14.6042V15.7292C14.1582 15.7292 15.1838 14.6145 15.0755 13.3149L13.9544 13.4083ZM12.2985 5.72917C12.8727 5.72917 13.3511 6.16936 13.3988 6.74164L14.5199 6.64821C14.4236 5.49285 13.4578 4.60417 12.2985 4.60417V5.72917ZM3.6989 4.60417C2.53954 4.60417 1.57371 5.49285 1.47743 6.64821L2.59855 6.74164C2.64624 6.16936 3.12464 5.72917 3.6989 5.72917V4.60417ZM11.332 5.72917H12.2985V4.60417H11.332V5.72917ZM3.6989 5.72917H4.66534V4.60417H3.6989V5.72917ZM4.66534 5.72917H11.332V4.60417H4.66534V5.72917ZM11.8945 4.33333C11.8945 3.30009 11.4841 2.30917 10.7534 1.57856L9.95795 2.37406C10.4776 2.89369 10.7695 3.59846 10.7695 4.33333H11.8945ZM10.7534 1.57856C10.0228 0.847953 9.03192 0.4375 7.99868 0.4375V1.5625C8.73355 1.5625 9.43832 1.85443 9.95795 2.37406L10.7534 1.57856ZM7.99868 0.4375C6.96544 0.4375 5.97452 0.847953 5.24391 1.57856L6.0394 2.37406C6.55903 1.85443 7.26381 1.5625 7.99868 1.5625V0.4375ZM5.24391 1.57856C4.5133 2.30917 4.10284 3.30009 4.10284 4.33333H5.22784C5.22784 3.59846 5.51977 2.89369 6.0394 2.37406L5.24391 1.57856ZM10.7695 4.33333L10.7695 5.16667L11.8945 5.16667L11.8945 4.33333L10.7695 4.33333ZM10.7695 5.16667L10.7695 8.5L11.8945 8.5L11.8945 5.16667L10.7695 5.16667ZM4.10284 4.33333L4.10284 5.16667L5.22784 5.16667L5.22784 4.33333L4.10284 4.33333ZM4.10284 5.16667L4.10284 8.5H5.22784L5.22784 5.16667L4.10284 5.16667Z" fill="#676767"/>
</svg>
