<svg width="14" height="8" viewBox="0 0 14 8" fill="none" xmlns="http://www.w3.org/2000/svg">
<path d="M9 5.91671C8.58579 5.91671 8.25 6.25249 8.25 6.66671C8.25 7.08092 8.58579 7.41671 9 7.41671V5.91671ZM9 0.583374C8.58579 0.583374 8.25 0.91916 8.25 1.33337C8.25 1.74759 8.58579 2.08337 9 2.08337V0.583374ZM4.33333 3.25004C3.91912 3.25004 3.58333 3.58583 3.58333 4.00004C3.58333 4.41425 3.91912 4.75004 4.33333 4.75004V3.25004ZM9.66667 4.75004C10.0809 4.75004 10.4167 4.41425 10.4167 4.00004C10.4167 3.58583 10.0809 3.25004 9.66667 3.25004V4.75004ZM5 2.08337C5.41421 2.08337 5.75 1.74759 5.75 1.33337C5.75 0.91916 5.41421 0.583374 5 0.583374V2.08337ZM5 7.41671C5.41421 7.41671 5.75 7.08092 5.75 6.66671C5.75 6.25249 5.41421 5.91671 5 5.91671V7.41671ZM10.3333 2.08337C11.3919 2.08337 12.25 2.9415 12.25 4.00004H13.75C13.75 2.11307 12.2203 0.583374 10.3333 0.583374V2.08337ZM12.25 4.00004C12.25 5.05859 11.3919 5.91671 10.3333 5.91671V7.41671C12.2203 7.41671 13.75 5.88701 13.75 4.00004H12.25ZM10.3333 5.91671H9V7.41671H10.3333V5.91671ZM10.3333 0.583374H9V2.08337H10.3333V0.583374ZM4.33333 4.75004H9.66667V3.25004H4.33333V4.75004ZM3.66667 5.91671C2.60812 5.91671 1.75 5.05859 1.75 4.00004H0.25C0.25 5.88701 1.77969 7.41671 3.66667 7.41671V5.91671ZM1.75 4.00004C1.75 2.94149 2.60812 2.08337 3.66667 2.08337V0.583374C1.77969 0.583374 0.25 2.11307 0.25 4.00004H1.75ZM3.66667 2.08337H5V0.583374H3.66667V2.08337ZM3.66667 7.41671H5V5.91671H3.66667V7.41671Z" fill="#7C7C7C"/>
</svg>
