<svg width="18" height="18" viewBox="0 0 18 18" fill="none" xmlns="http://www.w3.org/2000/svg">
<path fill-rule="evenodd" clip-rule="evenodd" d="M10.5 3C10.5 2.58579 10.8358 2.25 11.25 2.25H13.5C14.7426 2.25 15.75 3.25736 15.75 4.5V13.5C15.75 14.7426 14.7426 15.75 13.5 15.75H11.25C10.8358 15.75 10.5 15.4142 10.5 15C10.5 14.5858 10.8358 14.25 11.25 14.25H13.5C13.9142 14.25 14.25 13.9142 14.25 13.5V4.5C14.25 4.08579 13.9142 3.75 13.5 3.75H11.25C10.8358 3.75 10.5 3.41421 10.5 3ZM6.53033 5.46967C6.82322 5.76256 6.82322 6.23744 6.53033 6.53033L4.81066 8.25L12 8.25C12.4142 8.25 12.75 8.58579 12.75 9C12.75 9.41421 12.4142 9.75 12 9.75L4.81066 9.75L6.53033 11.4697C6.82322 11.7626 6.82322 12.2374 6.53033 12.5303C6.23744 12.8232 5.76256 12.8232 5.46967 12.5303L2.46967 9.53033C2.32902 9.38968 2.25 9.19891 2.25 9C2.25 8.80109 2.32902 8.61032 2.46967 8.46967L5.46967 5.46967C5.76256 5.17678 6.23744 5.17678 6.53033 5.46967Z" fill="#214159"/>
</svg>
