<svg width="18" height="18" viewBox="0 0 18 18" fill="none" xmlns="http://www.w3.org/2000/svg">
<path fill-rule="evenodd" clip-rule="evenodd" d="M6.75 3C6.75 2.17157 7.42157 1.5 8.25 1.5H9.75C10.5784 1.5 11.25 2.17157 11.25 3V3.41908C11.2504 3.41976 11.251 3.42056 11.2516 3.42146C11.259 3.43165 11.2751 3.4465 11.2992 3.45654C11.3224 3.46617 11.3417 3.46642 11.3514 3.46484C11.3522 3.4647 11.3529 3.46456 11.3535 3.46443L11.6516 3.16635C12.2374 2.58056 13.1872 2.58056 13.7729 3.16635L14.8336 4.22701C15.4194 4.8128 15.4194 5.76255 14.8336 6.34833L14.5356 6.64638C14.5354 6.64698 14.5353 6.64769 14.5351 6.64852C14.5336 6.65827 14.5338 6.67753 14.5434 6.70072C14.5535 6.72491 14.5684 6.74096 14.5785 6.74836C14.5795 6.74902 14.5803 6.74956 14.5809 6.75L15 6.75C15.8284 6.75 16.5 7.42157 16.5 8.25V9.75C16.5 10.5784 15.8284 11.25 15 11.25H14.5809C14.5802 11.2504 14.5794 11.251 14.5785 11.2516C14.5684 11.259 14.5535 11.2751 14.5435 11.2993C14.5338 11.3225 14.5336 11.3417 14.5352 11.3514C14.5353 11.3523 14.5354 11.353 14.5356 11.3536L14.8336 11.6516C15.4194 12.2374 15.4194 13.1872 14.8336 13.773L13.773 14.8336C13.1872 15.4194 12.2374 15.4194 11.6516 14.8336L11.3536 14.5356C11.353 14.5354 11.3523 14.5353 11.3514 14.5352C11.3417 14.5336 11.3225 14.5338 11.2993 14.5435C11.2751 14.5535 11.259 14.5684 11.2516 14.5785C11.251 14.5794 11.2504 14.5802 11.25 14.5809V15C11.25 15.8284 10.5784 16.5 9.75 16.5H8.25C7.42157 16.5 6.75 15.8284 6.75 15V14.5809C6.74956 14.5803 6.74902 14.5795 6.74836 14.5785C6.74096 14.5684 6.72491 14.5535 6.70072 14.5434C6.67752 14.5338 6.65827 14.5336 6.64852 14.5351C6.64769 14.5353 6.64698 14.5354 6.64638 14.5356L6.34832 14.8336C5.76253 15.4194 4.81279 15.4194 4.227 14.8336L3.16634 13.773C2.58055 13.1872 2.58055 12.2374 3.16634 11.6516L3.46443 11.3535C3.46456 11.3529 3.4647 11.3522 3.46484 11.3514C3.46642 11.3417 3.46617 11.3224 3.45654 11.2992C3.4465 11.2751 3.43165 11.259 3.42146 11.2516C3.42056 11.251 3.41976 11.2504 3.41908 11.25H3C2.17157 11.25 1.5 10.5784 1.5 9.75V8.25C1.5 7.42157 2.17157 6.75 3 6.75L3.41907 6.75C3.41976 6.74956 3.42055 6.74902 3.42146 6.74837C3.43165 6.74097 3.44651 6.72492 3.45655 6.70074C3.46618 6.67755 3.46643 6.65829 3.46484 6.64856C3.46471 6.64773 3.46457 6.64702 3.46444 6.64642L3.16635 6.34833C2.58056 5.76255 2.58057 4.8128 3.16635 4.22701L4.22701 3.16635C4.8128 2.58057 5.76255 2.58057 6.34833 3.16635L5.818 3.69668L6.34833 3.16635L6.64642 3.46444C6.64701 3.46457 6.64772 3.46471 6.64855 3.46485C6.65829 3.46643 6.67755 3.46618 6.70074 3.45655C6.72492 3.44651 6.74097 3.43165 6.74837 3.42146C6.74902 3.42055 6.74956 3.41976 6.75 3.41907V3ZM9.75 3H8.25V3.42657C8.25 4.09644 7.80724 4.62129 7.27591 4.84189C6.73837 5.06507 6.0596 4.99894 5.58941 4.52875L5.28767 4.22701L4.22701 5.28767L4.52875 5.58942C4.99894 6.0596 5.06507 6.73837 4.84189 7.27591C4.62129 7.80724 4.09644 8.25 3.42657 8.25L3 8.25L3 9.75H3.42659C4.09644 9.75 4.62129 10.1927 4.84189 10.7241C5.06506 11.2616 4.99893 11.9404 4.52875 12.4105L3.99842 11.8802L4.52875 12.4105L4.227 12.7123L5.28766 13.773L5.58937 13.4712C6.05956 13.001 6.73835 12.9349 7.27589 13.1581C7.80724 13.3787 8.25 13.9036 8.25 14.5734V15H9.75V14.5734C9.75 13.9036 10.1928 13.3787 10.7241 13.1581C11.2616 12.9349 11.9404 13.0011 12.4106 13.4712L12.7123 13.773L13.773 12.7123L13.4712 12.4106C13.0011 11.9404 12.9349 11.2616 13.1581 10.7241C13.3787 10.1928 13.9036 9.75 14.5734 9.75H15V8.25L14.5734 8.25C13.9036 8.25 13.3787 7.80724 13.1581 7.27589C12.9349 6.73835 13.001 6.05956 13.4712 5.58937L13.7729 5.28767L12.7123 4.22701L12.4105 4.52875C11.9404 4.99893 11.2616 5.06506 10.7241 4.84189C10.1927 4.62129 9.75 4.09644 9.75 3.42659V3ZM9 8.25C8.58579 8.25 8.25 8.58579 8.25 9C8.25 9.41421 8.58579 9.75 9 9.75C9.41421 9.75 9.75 9.41421 9.75 9C9.75 8.58579 9.41421 8.25 9 8.25ZM6.75 9C6.75 7.75736 7.75736 6.75 9 6.75C10.2426 6.75 11.25 7.75736 11.25 9C11.25 10.2426 10.2426 11.25 9 11.25C7.75736 11.25 6.75 10.2426 6.75 9Z" fill="#214159"/>
</svg>
