<svg width="24" height="24" viewBox="0 0 24 24" fill="none" xmlns="http://www.w3.org/2000/svg">
<path fill-rule="evenodd" clip-rule="evenodd" d="M7.995 1.5H16.005C16.733 1.5 17.4312 1.7892 17.946 2.30399C18.4608 2.81878 18.75 3.51698 18.75 4.245V19.755C18.75 20.483 18.4608 21.1812 17.946 21.696C17.4312 22.2108 16.733 22.5 16.005 22.5H7.995C7.26698 22.5 6.56878 22.2108 6.05399 21.696C5.5392 21.1812 5.25 20.483 5.25 19.755V4.245C5.25 3.51698 5.5392 2.81878 6.05399 2.30399C6.56878 1.7892 7.26698 1.5 7.995 1.5ZM16.8853 20.6353C17.1188 20.4019 17.25 20.0852 17.25 19.755V4.245C17.25 3.91739 17.1209 3.60297 16.8907 3.36991C16.6604 3.13686 16.3476 3.00395 16.02 3H15.27C15.1475 2.99876 15.0274 3.03368 14.9247 3.10038C14.822 3.16709 14.7412 3.26261 14.6925 3.375L14.5687 3.72C14.4766 3.9424 14.3205 4.13241 14.1202 4.26594C13.9199 4.39947 13.6845 4.4705 13.4437 4.47H10.5863C10.3455 4.4705 10.1101 4.39947 9.90979 4.26594C9.70949 4.13241 9.55338 3.9424 9.46125 3.72L9.3225 3.375C9.27381 3.26261 9.19304 3.16709 9.09032 3.10038C8.9876 3.03368 8.86748 2.99876 8.745 3H7.995C7.66481 3 7.34813 3.13117 7.11465 3.36465C6.88117 3.59813 6.75 3.91481 6.75 4.245V19.755C6.75 20.0852 6.88117 20.4019 7.11465 20.6353C7.34813 20.8688 7.66481 21 7.995 21H16.005C16.3352 21 16.6519 20.8688 16.8853 20.6353ZM11.9994 10.7513L12.3744 10.3575C12.7174 10.0023 13.1828 9.79102 13.6759 9.76664C14.1691 9.74226 14.6531 9.90661 15.0294 10.2263C15.2179 10.3965 15.3698 10.6033 15.476 10.834C15.5821 11.0647 15.6403 11.3146 15.647 11.5685C15.6536 11.8224 15.6086 12.075 15.5147 12.311C15.4208 12.547 15.2799 12.7614 15.1007 12.9413L12.4757 15.5663C12.413 15.6292 12.3384 15.6791 12.2564 15.7132C12.1743 15.7473 12.0864 15.7648 11.9975 15.7648C11.9087 15.7648 11.8207 15.7473 11.7387 15.7132C11.6566 15.6791 11.5821 15.6292 11.5194 15.5663L8.95441 13.0013C8.5997 12.6601 8.3877 12.1971 8.36125 11.7056C8.33479 11.2142 8.49586 10.731 8.81191 10.3538C8.98215 10.1653 9.18891 10.0134 9.41963 9.90723C9.65036 9.80108 9.90025 9.7429 10.1541 9.73624C10.408 9.72958 10.6606 9.77456 10.8966 9.86847C11.1326 9.96238 11.347 10.1032 11.5269 10.2825L11.9994 10.7513Z" fill="#9C9C9C"/>
</svg>
