<svg width="32" height="32" viewBox="0 0 32 32" fill="none" xmlns="http://www.w3.org/2000/svg">
<circle cx="16" cy="16" r="16" fill="#C5FFCA"/>
<path d="M22.9094 8.43752H22.4178C22.3567 8.43752 22.2981 8.41326 22.255 8.37007C22.2118 8.32687 22.1875 8.26829 22.1875 8.20721V7.80846C22.1944 7.4584 22.0714 7.11817 21.8423 6.85346C21.6131 6.58874 21.294 6.4183 20.9466 6.37502C20.7551 6.35626 20.5617 6.3779 20.3791 6.43855C20.1965 6.4992 20.0286 6.5975 19.8864 6.7271C19.7442 6.8567 19.6307 7.01471 19.5534 7.19092C19.4761 7.36712 19.4366 7.5576 19.4375 7.75002V9.77471C19.4441 9.9437 19.3903 10.1095 19.2857 10.2424C19.1812 10.3753 19.0327 10.4667 18.8669 10.5C18.7673 10.5172 18.6652 10.5122 18.5678 10.4855C18.4704 10.4587 18.38 10.4108 18.3032 10.3452C18.2264 10.2795 18.1651 10.1978 18.1234 10.1057C18.0818 10.0136 18.061 9.91354 18.0625 9.81252V8.9119C18.0625 8.8496 18.0502 8.78792 18.0264 8.73036C18.0026 8.67281 17.9676 8.62051 17.9236 8.57646C17.8795 8.53241 17.8272 8.49747 17.7697 8.47363C17.7121 8.44979 17.6504 8.43752 17.5881 8.43752H12.7756C12.7176 8.43318 12.6633 8.40701 12.6238 8.36428C12.5842 8.32155 12.5623 8.26543 12.5625 8.20721V7.80846C12.5694 7.4584 12.4464 7.11817 12.2173 6.85346C11.9881 6.58874 11.669 6.4183 11.3216 6.37502C11.1301 6.35626 10.9367 6.3779 10.7541 6.43855C10.5715 6.4992 10.4036 6.5975 10.2614 6.7271C10.1192 6.8567 10.0057 7.01471 9.92839 7.19092C9.85106 7.36712 9.81158 7.5576 9.8125 7.75002V9.77471C9.81909 9.9437 9.76528 10.1095 9.66072 10.2424C9.55615 10.3753 9.40767 10.4667 9.24188 10.5C9.14232 10.5172 9.0402 10.5122 8.94278 10.4855C8.84536 10.4587 8.75504 10.4108 8.67824 10.3452C8.60145 10.2795 8.54006 10.1978 8.49845 10.1057C8.45684 10.0136 8.43603 9.91354 8.4375 9.81252V9.22127C8.43651 9.13805 8.41379 9.05654 8.37161 8.98479C8.32943 8.91305 8.26924 8.85357 8.197 8.81224C8.12476 8.77091 8.04298 8.74917 7.95975 8.74916C7.87653 8.74916 7.79474 8.77089 7.7225 8.81221C7.31272 9.0504 6.97261 9.39195 6.73615 9.80274C6.49969 10.2135 6.37516 10.6792 6.375 11.1531V21.7028C6.375 22.7431 6.78823 23.7407 7.52378 24.4762C8.25934 25.2118 9.25696 25.625 10.2972 25.625H21.7028C22.743 25.625 23.7407 25.2118 24.4762 24.4762C25.2118 23.7407 25.625 22.7431 25.625 21.7028V11.1531C25.625 10.4329 25.3389 9.74219 24.8296 9.23291C24.3203 8.72363 23.6296 8.43752 22.9094 8.43752ZM20.8125 10.5C20.9485 10.5 21.0814 10.5403 21.1945 10.6159C21.3075 10.6914 21.3956 10.7988 21.4477 10.9244C21.4997 11.0501 21.5133 11.1883 21.4868 11.3216C21.4603 11.455 21.3948 11.5775 21.2986 11.6737C21.2025 11.7698 21.08 11.8353 20.9466 11.8618C20.8133 11.8883 20.675 11.8747 20.5494 11.8227C20.4238 11.7707 20.3164 11.6825 20.2409 11.5695C20.1653 11.4564 20.125 11.3235 20.125 11.1875C20.125 11.0052 20.1974 10.8303 20.3264 10.7014C20.4553 10.5725 20.6302 10.5 20.8125 10.5ZM11.1875 10.5C11.3235 10.5 11.4564 10.5403 11.5695 10.6159C11.6825 10.6914 11.7706 10.7988 11.8227 10.9244C11.8747 11.0501 11.8883 11.1883 11.8618 11.3216C11.8353 11.455 11.7698 11.5775 11.6736 11.6737C11.5775 11.7698 11.455 11.8353 11.3216 11.8618C11.1883 11.8883 11.05 11.8747 10.9244 11.8227C10.7988 11.7707 10.6914 11.6825 10.6159 11.5695C10.5403 11.4564 10.5 11.3235 10.5 11.1875C10.5 11.0052 10.5724 10.8303 10.7014 10.7014C10.8303 10.5725 11.0052 10.5 11.1875 10.5ZM22.875 21.5894C22.875 21.7582 22.8417 21.9254 22.7771 22.0814C22.7125 22.2374 22.6178 22.3791 22.4984 22.4985C22.3791 22.6179 22.2373 22.7126 22.0814 22.7772C21.9254 22.8418 21.7582 22.875 21.5894 22.875H10.4106C10.2418 22.875 10.0746 22.8418 9.91864 22.7772C9.76266 22.7126 9.62093 22.6179 9.50155 22.4985C9.38217 22.3791 9.28747 22.2374 9.22286 22.0814C9.15825 21.9254 9.125 21.7582 9.125 21.5894V14.5356C9.125 14.1947 9.26045 13.8677 9.50155 13.6266C9.74265 13.3855 10.0697 13.25 10.4106 13.25H21.5894C21.7582 13.25 21.9254 13.2833 22.0814 13.3479C22.2373 13.4125 22.3791 13.5072 22.4984 13.6266C22.6178 13.746 22.7125 13.8877 22.7771 14.0437C22.8417 14.1996 22.875 14.3668 22.875 14.5356V21.5894Z" fill="#46C531"/>
<path d="M18.4922 18.475L17.2444 16.9213H17.8425L16 14.625L14.1575 16.9213H14.7556L13.5078 18.475H14.405L13.0781 20.125H15.6562C15.7474 20.125 15.8349 20.1612 15.8993 20.2257C15.9638 20.2901 16 20.3776 16 20.4688C16 20.5599 15.9638 20.6474 15.8993 20.7118C15.8349 20.7763 15.7474 20.8125 15.6562 20.8125H15.3125V21.5H16.6875V20.2522C16.6875 20.2185 16.7009 20.1861 16.7248 20.1623C16.7486 20.1384 16.781 20.125 16.8147 20.125H18.9219L17.5984 18.475H18.4922Z" fill="#46C531"/>
</svg>
