<svg width="32" height="32" viewBox="0 0 32 32" fill="none" xmlns="http://www.w3.org/2000/svg">
<circle cx="16" cy="16" r="16" fill="#C5FFCA"/>
<path d="M24.5112 11.875H7.48875C6.87364 11.875 6.375 12.3736 6.375 12.9887V14.8863C6.375 15.5014 6.87364 16 7.48875 16H24.5112C25.1264 16 25.625 15.5014 25.625 14.8863V12.9887C25.625 12.3736 25.1264 11.875 24.5112 11.875Z" fill="#46C531"/>
<path d="M8.55781 17.375C8.34357 17.375 8.1381 17.4601 7.9866 17.6116C7.83511 17.7631 7.75 17.9686 7.75 18.1828V24.25C7.75 24.6147 7.89487 24.9644 8.15273 25.2223C8.41059 25.4801 8.76033 25.625 9.125 25.625H14.7934C14.9311 25.625 15.0631 25.5703 15.1605 25.473C15.2578 25.3756 15.3125 25.2436 15.3125 25.1059V17.8872C15.3107 17.7507 15.2552 17.6205 15.1581 17.5246C15.0609 17.4287 14.9299 17.375 14.7934 17.375H8.55781ZM13.4734 21.6134L11.8234 23.2634C11.7842 23.3027 11.7376 23.3339 11.6862 23.3552C11.6349 23.3764 11.5799 23.3874 11.5244 23.3874C11.4688 23.3874 11.4138 23.3764 11.3625 23.3552C11.3112 23.3339 11.2646 23.3027 11.2253 23.2634L9.62 21.6616C9.3975 21.4484 9.26446 21.1585 9.24786 20.8508C9.23126 20.5431 9.33235 20.2406 9.53063 20.0047C9.63678 19.8863 9.76598 19.7908 9.91032 19.7241C10.0547 19.6573 10.2111 19.6208 10.3701 19.6166C10.529 19.6124 10.6872 19.6407 10.8348 19.6997C10.9825 19.7588 11.1165 19.8474 11.2288 19.96L11.5244 20.2556L11.7719 20.0081C11.9851 19.7856 12.2749 19.6526 12.5826 19.636C12.8904 19.6194 13.1929 19.7205 13.4288 19.9188C13.5466 20.0249 13.6416 20.1539 13.7081 20.2979C13.7745 20.4419 13.8109 20.598 13.8151 20.7565C13.8192 20.915 13.7911 21.0728 13.7324 21.2201C13.6736 21.3674 13.5855 21.5013 13.4734 21.6134Z" fill="#46C531"/>
<path d="M17.2066 17.375C17.0689 17.375 16.9369 17.4297 16.8395 17.527C16.7422 17.6244 16.6875 17.7564 16.6875 17.8941V25.1128C16.6893 25.2493 16.7448 25.3795 16.8419 25.4754C16.9391 25.5713 17.0701 25.625 17.2066 25.625H22.875C23.2397 25.625 23.5894 25.4801 23.8473 25.2223C24.1051 24.9644 24.25 24.6147 24.25 24.25V18.1828C24.25 17.9686 24.1649 17.7631 24.0134 17.6116C23.8619 17.4601 23.6564 17.375 23.4422 17.375H17.2066Z" fill="#46C531"/>
<path d="M20.0388 6.37504H19.5128C18.8332 6.37501 18.1681 6.57211 17.5983 6.94247C17.0284 7.31282 16.5782 7.84052 16.3022 8.4616C16.2728 8.51618 16.2291 8.56176 16.1758 8.59353C16.1226 8.62531 16.0617 8.64208 15.9997 8.64208C15.9377 8.64208 15.8768 8.62531 15.8236 8.59353C15.7703 8.56176 15.7267 8.51618 15.6972 8.4616C15.4212 7.84052 14.971 7.31282 14.4012 6.94247C13.8313 6.57211 13.1662 6.37501 12.4866 6.37504H11.9606C11.4136 6.36707 10.8847 6.57077 10.4844 6.94358C10.084 7.31639 9.84318 7.82948 9.81221 8.37567C9.80392 8.65168 9.85115 8.92655 9.95108 9.18397C10.051 9.44139 10.2016 9.67612 10.394 9.87424C10.5863 10.0724 10.8165 10.2298 11.0709 10.3373C11.3252 10.4448 11.5986 10.5002 11.8747 10.5H20.1247C20.4008 10.5002 20.6742 10.4448 20.9286 10.3373C21.1829 10.2298 21.4131 10.0724 21.6054 9.87424C21.7978 9.67612 21.9484 9.44139 22.0483 9.18397C22.1483 8.92655 22.1955 8.65168 22.1872 8.37567C22.1562 7.82948 21.9154 7.31639 21.5151 6.94358C21.1147 6.57077 20.5858 6.36707 20.0388 6.37504Z" fill="#46C531"/>
</svg>
