<svg width="522" height="523" viewBox="0 0 522 523" fill="none" xmlns="http://www.w3.org/2000/svg">
<path d="M482.52 374.346C487.082 368.398 494.837 355.009 495.977 331.699C498.174 286.796 477.984 289.971 473.186 261.666C465.652 217.22 463.926 187.441 428.596 161.499C400.009 140.507 329.489 113.503 265.982 153.687C213.289 187.029 156.124 122.763 104.623 161.499C68.3887 188.752 89.5993 221.073 68.3887 246.86C53.7019 264.715 28.1639 271.881 23.2058 307.413C18.0921 344.06 37.1227 367.885 44.3673 375.471C40.0976 376.31 37.8337 377.186 37.8337 378.088C37.8337 384.158 140.43 389.079 266.989 389.079C393.547 389.079 496.143 384.158 496.143 378.088C496.143 376.774 491.334 375.514 482.52 374.346Z" fill="url(#paint0_linear_76_1274)"/>
<path d="M414.043 191.39L421.417 206.403" stroke="white" stroke-width="3" stroke-miterlimit="10" stroke-linecap="round" stroke-linejoin="round"/>
<path d="M409.396 199.594L426.064 198.199" stroke="white" stroke-width="3" stroke-miterlimit="10" stroke-linecap="round" stroke-linejoin="round"/>
<path d="M421.634 192.005L413.683 206.04" stroke="white" stroke-width="3" stroke-miterlimit="10" stroke-linecap="round" stroke-linejoin="round"/>
<path d="M157.836 188.635L171.651 198.064" stroke="white" stroke-width="3" stroke-miterlimit="10" stroke-linecap="round" stroke-linejoin="round"/>
<path d="M157.836 198.064L171.651 188.635" stroke="white" stroke-width="3" stroke-miterlimit="10" stroke-linecap="round" stroke-linejoin="round"/>
<path d="M164.744 185.429V201.56" stroke="white" stroke-width="3" stroke-miterlimit="10" stroke-linecap="round" stroke-linejoin="round"/>
<path d="M252.835 171.414L256.08 184.473" stroke="white" stroke-width="3" stroke-miterlimit="10" stroke-linecap="round" stroke-linejoin="round"/>
<path d="M247.785 177.075L261.129 178.812" stroke="white" stroke-width="3" stroke-miterlimit="10" stroke-linecap="round" stroke-linejoin="round"/>
<path d="M258.699 173.188L250.061 182.873" stroke="white" stroke-width="3" stroke-miterlimit="10" stroke-linecap="round" stroke-linejoin="round"/>
<path d="M52.4702 298.256L58.1728 309.867" stroke="white" stroke-width="3" stroke-miterlimit="10" stroke-linecap="round" stroke-linejoin="round"/>
<path d="M48.8761 304.6L61.7669 303.522" stroke="white" stroke-width="3" stroke-miterlimit="10" stroke-linecap="round" stroke-linejoin="round"/>
<path d="M58.3407 298.731L52.1918 309.586" stroke="white" stroke-width="3" stroke-miterlimit="10" stroke-linecap="round" stroke-linejoin="round"/>
<path d="M472.575 324.697L478.278 336.308" stroke="white" stroke-width="3" stroke-miterlimit="10" stroke-linecap="round" stroke-linejoin="round"/>
<path d="M468.981 331.042L481.872 329.963" stroke="white" stroke-width="3" stroke-miterlimit="10" stroke-linecap="round" stroke-linejoin="round"/>
<path d="M478.446 325.172L472.297 336.027" stroke="white" stroke-width="3" stroke-miterlimit="10" stroke-linecap="round" stroke-linejoin="round"/>
<path d="M163.414 273.137C163.414 273.137 134.597 229.676 127.346 223.279C120.094 216.882 108.202 223.381 112.549 231.127C116.896 238.872 116.656 245.075 111.941 246.909C102.289 250.664 82.2132 216.082 112.549 204.487C142.885 192.892 177.67 269.776 177.67 269.776L163.414 273.137Z" fill="white"/>
<path d="M163.414 273.137L177.67 269.776C177.67 269.776 174.353 262.445 168.875 252.653C166.076 255.201 162.036 259.683 158.914 266.418C161.661 270.493 163.414 273.137 163.414 273.137Z" fill="#FE434C"/>
<path d="M135.512 209.789C130.135 205.807 124.587 203.33 119.092 203.298C117.303 208.27 117.522 214.148 119.353 220.752C122.02 220.459 124.938 221.155 127.346 223.279C128.397 224.206 129.903 225.916 131.707 228.156C131.526 221.278 132.734 215.125 135.512 209.789Z" fill="#FE434C"/>
<path d="M140.835 240.317C143.829 244.482 146.953 248.941 149.89 253.191C151.423 246.431 154.227 240.616 158.748 236.079C155.764 231.636 152.527 227.203 149.112 223.099C145.575 228.155 142.637 233.737 140.835 240.317Z" fill="#FE434C"/>
<path d="M102.109 211.045C98.5281 214.737 96.8683 219.07 96.5229 223.432C101.336 228.06 106.529 229.9 111.98 229.854C111.281 227.828 111.661 225.939 112.722 224.407C107.975 220.915 104.473 216.433 102.109 211.045Z" fill="#FE434C"/>
<path d="M111.941 246.909C114.237 246.016 115.463 244.082 115.624 241.445C110.715 242.099 105.844 241.656 101.012 240.065C104.299 245.114 108.705 248.168 111.941 246.909Z" fill="#FE434C"/>
<path d="M407.79 304.975C407.79 304.975 427.1 256.536 432.888 248.789C438.676 241.043 451.647 244.971 448.978 253.442C446.309 261.913 447.813 267.936 452.804 268.766C463.02 270.465 475.592 232.506 443.525 227.366C411.458 222.227 393.148 304.604 393.148 304.604L407.79 304.975Z" fill="white"/>
<path d="M407.79 304.975L393.148 304.604C393.148 304.604 394.894 296.749 398.252 286.043C401.513 287.964 406.384 291.524 410.819 297.477C408.964 302.028 407.79 304.975 407.79 304.975Z" fill="#FE434C"/>
<path d="M422.133 237.257C426.582 232.259 431.505 228.698 436.877 227.542C439.645 232.043 440.634 237.841 440.194 244.68C437.524 244.939 434.81 246.217 432.888 248.79C432.049 249.912 430.924 251.894 429.617 254.456C428.386 247.687 425.944 241.911 422.133 237.257Z" fill="#FE434C"/>
<path d="M423.173 268.228C421.094 272.917 418.949 277.922 416.944 282.683C414.06 276.38 410.125 271.262 404.771 267.747C406.782 262.787 409.044 257.785 411.546 253.069C416.043 257.294 420.062 262.157 423.173 268.228Z" fill="#FE434C"/>
<path d="M455.086 231.648C459.347 234.53 461.859 238.431 463.089 242.629C459.326 248.145 454.619 251.009 449.274 252.08C449.544 249.953 448.785 248.182 447.433 246.9C451.365 242.51 453.875 237.406 455.086 231.648Z" fill="#FE434C"/>
<path d="M452.804 268.766C450.374 268.362 448.778 266.72 448.081 264.171C453.02 263.807 457.697 262.376 462.101 259.829C459.917 265.444 456.229 269.336 452.804 268.766Z" fill="#FE434C"/>
<path d="M74.5802 289.971L77.5717 373.428H153.903L151.502 288.005L74.5802 289.971Z" fill="#4BB4AD"/>
<path d="M91.9804 275.655L74.5802 289.971L151.502 288.005L164.538 271.881L91.9804 275.655Z" fill="#258A86"/>
<path d="M114.242 373.428L110.515 289.053L127.292 273.818" stroke="white" stroke-width="3" stroke-miterlimit="10" stroke-linecap="round" stroke-linejoin="round"/>
<path d="M84.5341 281.781L158.491 279.36" stroke="white" stroke-width="3" stroke-miterlimit="10" stroke-linecap="round" stroke-linejoin="round"/>
<path d="M75.6043 318.54L152.302 316.471" stroke="white" stroke-width="3" stroke-miterlimit="10" stroke-linecap="round" stroke-linejoin="round"/>
<path d="M119.559 280.571C119.559 280.571 92.838 269.48 102.272 259.531C111.706 249.582 119.559 280.571 119.559 280.571Z" stroke="white" stroke-width="3" stroke-miterlimit="10" stroke-linecap="round" stroke-linejoin="round"/>
<path d="M108.619 344.267C104.159 342.552 96.7832 333.804 97.4693 325.227C98.3364 314.389 104.845 313.049 107.247 313.735C109.648 314.421 110.309 317.664 106.046 316.471C101.782 315.279 93.6913 308.932 95.754 299.154C97.8168 289.377 105.619 286.865 109.15 286.976C112.68 287.086 114.108 293.151 108.447 292.465C102.787 291.779 94.3818 277.541 104.993 271.881C115.607 266.219 119.559 280.571 119.559 280.571" stroke="white" stroke-width="3" stroke-miterlimit="10" stroke-linecap="round" stroke-linejoin="round"/>
<path d="M119.559 280.591C119.559 280.591 119.902 260.129 128.651 263.559C137.399 266.99 119.559 280.591 119.559 280.591Z" stroke="white" stroke-width="3" stroke-miterlimit="10" stroke-linecap="round" stroke-linejoin="round"/>
<path d="M254.327 212.062H368.704L371.414 373.428H256.767L254.327 212.062Z" fill="#E1283A"/>
<path d="M394.994 373.428L390.116 197.155L267.879 200.407L254.327 212.062H368.704L371.414 373.428H394.994Z" fill="#FE434C"/>
<path d="M309.076 373.428L310.974 212.062L324.661 198.896" stroke="white" stroke-width="3" stroke-miterlimit="10" stroke-linecap="round" stroke-linejoin="round"/>
<path d="M261.632 205.78L381.171 203.659L383.587 371.738" stroke="white" stroke-width="3" stroke-miterlimit="10" stroke-linecap="round" stroke-linejoin="round"/>
<path d="M318.972 204.911C318.972 204.911 291.314 205.177 293.971 192.367C296.628 179.556 318.972 204.911 318.972 204.911Z" stroke="white" stroke-width="3" stroke-miterlimit="10" stroke-linecap="round" stroke-linejoin="round"/>
<path d="M255.323 277.92L369.686 270.559L391.548 248.92" stroke="white" stroke-width="3" stroke-miterlimit="10" stroke-linecap="round" stroke-linejoin="round"/>
<path d="M318.972 204.911C318.393 204.268 295.084 169.305 307.142 162.193C319.2 155.082 318.972 204.911 318.972 204.911Z" stroke="white" stroke-width="3" stroke-miterlimit="10" stroke-linecap="round" stroke-linejoin="round"/>
<path d="M318.972 204.911C318.972 204.911 316.959 167.295 331.181 171.082C345.404 174.87 318.972 204.911 318.972 204.911Z" stroke="white" stroke-width="3" stroke-miterlimit="10" stroke-linecap="round" stroke-linejoin="round"/>
<path d="M318.972 204.911C318.972 204.911 337.591 178.779 347.182 191.566C354.834 201.769 318.972 204.911 318.972 204.911Z" stroke="white" stroke-width="3" stroke-miterlimit="10" stroke-linecap="round" stroke-linejoin="round"/>
<path d="M419.096 289.971H324.661V373.428H419.096V289.971Z" fill="#4BB4AD"/>
<path d="M430.402 373.428V275.787L338.291 277.92L324.661 289.971H419.096V373.428H430.402Z" fill="#258A86"/>
<path d="M373.539 373.428V289.971L386.508 276.803" stroke="white" stroke-width="3" stroke-miterlimit="10" stroke-linecap="round" stroke-linejoin="round"/>
<path d="M332.52 283.023L425.394 282.069L426.079 373.428" stroke="white" stroke-width="3" stroke-miterlimit="10" stroke-linecap="round" stroke-linejoin="round"/>
<path d="M324.661 316.412H419.096L430.402 309.289" stroke="white" stroke-width="3" stroke-miterlimit="10" stroke-linecap="round" stroke-linejoin="round"/>
<path d="M380.871 282.527C380.871 282.527 347.267 272.003 358.799 258.921C370.332 245.84 380.871 282.527 380.871 282.527Z" stroke="white" stroke-width="3" stroke-miterlimit="10" stroke-linecap="round" stroke-linejoin="round"/>
<path d="M380.502 282.527C380.502 282.527 376.857 256.762 390.699 260.133C404.54 263.504 380.502 282.527 380.502 282.527Z" stroke="white" stroke-width="3" stroke-miterlimit="10" stroke-linecap="round" stroke-linejoin="round"/>
<path d="M380.871 282.527C380.871 282.527 387.717 266.833 399.766 275.787C411.815 284.74 403.725 300.92 396.151 303.502C388.577 306.084 384.967 296.784 392.797 294.033C400.626 291.281 411.642 293.691 414.396 307.117C417.151 320.543 404.585 326.52 401.659 327.748C398.733 328.977 392.536 325.707 399.077 322.264C405.618 318.822 412.847 327.256 409.233 338.616C405.618 349.977 393.896 355.657 393.896 355.657" stroke="white" stroke-width="3" stroke-miterlimit="10" stroke-linecap="round" stroke-linejoin="round"/>
<path d="M151.502 288.005C151.502 288.005 198.766 221.006 218.28 221.006C237.794 221.006 296.067 288.005 296.067 288.005V373.428C296.067 373.428 153.936 374.608 153.903 373.428C153.87 372.248 151.502 288.005 151.502 288.005Z" fill="#CC9966"/>
<path d="M167.326 327.793C166.784 323.999 166.784 297.437 169.223 277.923C171.662 258.408 178.33 240.797 180.064 240.249C210.962 230.492 298.777 231.847 293.356 243.773C276.872 280.038 274.384 330.504 271.403 335.653C268.421 340.803 167.326 327.793 167.326 327.793Z" fill="white"/>
<path d="M188.883 255.969C188.883 255.969 219.54 247.838 265.982 260.035" stroke="#E6D8D6" stroke-width="4" stroke-miterlimit="10" stroke-linecap="round" stroke-linejoin="round"/>
<path d="M184.398 271.721C184.398 271.721 215.056 263.59 261.497 275.787" stroke="#E6D8D6" stroke-width="4" stroke-miterlimit="10" stroke-linecap="round" stroke-linejoin="round"/>
<path d="M182.458 289.266C182.458 289.266 213.116 281.135 259.557 293.332" stroke="#E6D8D6" stroke-width="4" stroke-miterlimit="10" stroke-linecap="round" stroke-linejoin="round"/>
<path d="M178.33 305.224C178.33 305.224 208.988 297.093 255.429 309.289" stroke="#E6D8D6" stroke-width="4" stroke-miterlimit="10" stroke-linecap="round" stroke-linejoin="round"/>
<path d="M151.502 288.005C151.502 288.005 212.046 322.644 216.654 332.672C221.261 342.7 153.903 373.428 153.903 373.428L151.502 288.005Z" fill="#F1AF78"/>
<path d="M296.067 288.005C296.067 288.005 225.598 306.924 227.224 332.401C228.85 357.878 296.067 373.428 296.067 373.428V288.005Z" fill="#F1AF78"/>
<path d="M153.903 373.428C153.903 373.428 188.918 319.587 216.88 318.541C244.841 317.494 296.067 373.428 296.067 373.428H153.903Z" fill="#CC9966"/>
<path d="M243.006 308.524C239.722 309.856 236.518 309.747 233.443 307.341C231.501 311.291 228.893 311.283 225.951 309.289C225.559 313.519 223.062 315.893 218.459 316.412C219.158 319.097 218.454 321.623 215.6 323.903C218.016 326.893 217.657 330.315 216.876 333.802C220.518 330.993 224.419 330.323 228.712 332.874C228.572 328.29 231.721 327.532 236.894 329.128C237.14 324.856 239.63 322.384 244.879 322.129C242.523 319.741 242.588 317.414 245.372 315.155C242.006 312.787 241.153 310.573 243.006 308.524Z" fill="#258A86"/>
<path d="M256.405 349.516C253.59 347.363 250.195 344.524 250.706 340.654C246.317 340.987 242.769 338.666 242.993 335.119C239.151 336.93 235.837 335.985 233.052 332.283C231.094 334.249 228.561 334.925 225.148 333.625C223.799 337.225 220.669 338.653 217.268 339.751C221.538 341.462 224.096 344.482 224.079 349.475C227.957 347.027 230.209 349.355 231.461 354.621C235.267 352.664 238.66 353.553 241.546 357.945C242.406 354.704 246.163 353.301 249.523 354.552C249.853 350.449 253.7 348.96 256.405 349.516Z" fill="#258A86"/>
<path d="M244.612 346.493C218.853 334.959 199.658 340.823 199.658 340.823" stroke="#303E4E" stroke-width="2" stroke-miterlimit="10" stroke-linecap="round" stroke-linejoin="round"/>
<path d="M237.833 312.571C213.779 327.752 208.855 349.516 208.855 349.516" stroke="#303E4E" stroke-width="2" stroke-miterlimit="10" stroke-linecap="round" stroke-linejoin="round"/>
<path d="M217.268 348.154C216.487 347.76 204.165 312.851 204.165 312.851" stroke="#303E4E" stroke-width="2" stroke-miterlimit="10" stroke-linecap="round" stroke-linejoin="round"/>
<path d="M213.826 315.155L210.255 329.889" stroke="#303E4E" stroke-width="2" stroke-miterlimit="10" stroke-linecap="round" stroke-linejoin="round"/>
<path d="M196.87 320.572C197.264 320.749 209.146 326.814 209.146 326.814" stroke="#303E4E" stroke-width="2" stroke-miterlimit="10" stroke-linecap="round" stroke-linejoin="round"/>
<path d="M214.857 316.155C216.706 316.155 218.204 314.656 218.204 312.807C218.204 310.958 216.706 309.459 214.857 309.459C213.008 309.459 211.509 310.958 211.509 312.807C211.509 314.656 213.008 316.155 214.857 316.155Z" fill="#FE434C"/>
<path d="M203.006 314.037C204.855 314.037 206.354 312.538 206.354 310.689C206.354 308.84 204.855 307.341 203.006 307.341C201.157 307.341 199.658 308.84 199.658 310.689C199.658 312.538 201.157 314.037 203.006 314.037Z" fill="#FE434C"/>
<path d="M196.87 323.919C198.719 323.919 200.217 322.421 200.217 320.572C200.217 318.723 198.719 317.224 196.87 317.224C195.021 317.224 193.522 318.723 193.522 320.572C193.522 322.421 195.021 323.919 196.87 323.919Z" fill="#FE434C"/>
<path d="M51.4009 338.201C51.4009 338.201 43.3035 330.818 49.2263 326.722C55.149 322.626 58.9591 333.283 58.9591 333.283L51.4009 338.201Z" fill="#303E4E"/>
<path d="M311.839 325.785C311.839 325.785 311.415 313.785 319.163 315.284C326.91 316.784 321.484 327.936 321.484 327.936L311.839 325.785Z" fill="#303E4E"/>
<path d="M356.059 346.5C356.059 346.5 358.916 338.289 363.752 341.329C368.589 344.37 362.006 350.476 362.006 350.476L356.059 346.5Z" fill="#303E4E"/>
<path d="M443.431 335.676C443.431 335.676 445.691 326.163 451.45 329.014C457.208 331.865 450.539 339.448 450.539 339.448L443.431 335.676Z" fill="#303E4E"/>
<path d="M49.2263 326.722C49.2263 326.722 25.1266 307.045 32.3938 301.161C39.6609 295.276 49.2263 326.722 49.2263 326.722Z" stroke="#303E4E" stroke-width="2" stroke-miterlimit="10" stroke-linecap="round" stroke-linejoin="round"/>
<path d="M319.163 315.284C319.163 315.284 316.103 281.328 326.281 282.51C336.46 283.692 319.163 315.284 319.163 315.284Z" stroke="#303E4E" stroke-width="2" stroke-miterlimit="10" stroke-linecap="round" stroke-linejoin="round"/>
<path d="M363.752 341.329C363.752 341.329 370.579 317.609 377.14 321.071C383.7 324.534 363.752 341.329 363.752 341.329Z" stroke="#303E4E" stroke-width="2" stroke-miterlimit="10" stroke-linecap="round" stroke-linejoin="round"/>
<path d="M451.45 329.014C451.45 329.014 456.384 301.693 464.12 304.82C471.856 307.947 451.45 329.014 451.45 329.014Z" stroke="#303E4E" stroke-width="2" stroke-miterlimit="10" stroke-linecap="round" stroke-linejoin="round"/>
<path d="M68.3885 379.767C81.8036 379.767 92.6787 368.892 92.6787 355.476C92.6787 342.061 81.8036 331.186 68.3885 331.186C54.9734 331.186 44.0984 342.061 44.0984 355.476C44.0984 368.892 54.9734 379.767 68.3885 379.767Z" fill="#FE434C"/>
<path d="M311.328 378.949C326.029 378.949 337.946 367.032 337.946 352.331C337.946 337.63 326.029 325.713 311.328 325.713C296.628 325.713 284.711 337.63 284.711 352.331C284.711 367.032 296.628 378.949 311.328 378.949Z" fill="#FE434C"/>
<path d="M437.295 378.082C449.265 378.082 458.97 368.378 458.97 356.407C458.97 344.436 449.265 334.732 437.295 334.732C425.324 334.732 415.62 344.436 415.62 356.407C415.62 368.378 425.324 378.082 437.295 378.082Z" fill="#FE434C"/>
<path d="M348.764 383.555C359.407 383.555 368.035 374.927 368.035 364.284C368.035 353.64 359.407 345.012 348.764 345.012C338.12 345.012 329.492 353.64 329.492 364.284C329.492 374.927 338.12 383.555 348.764 383.555Z" fill="#E1283A"/>
<path d="M53.4982 348.298L81.6563 364.248" stroke="white" stroke-width="2" stroke-miterlimit="10" stroke-linecap="round" stroke-linejoin="round"/>
<path d="M52.8357 345.056L53.7307 348.641L49.938 349.096" stroke="white" stroke-width="2" stroke-miterlimit="10" stroke-linecap="round" stroke-linejoin="round"/>
<path d="M82.6593 367.645L81.5207 364.123L85.2668 363.414" stroke="white" stroke-width="2" stroke-miterlimit="10" stroke-linecap="round" stroke-linejoin="round"/>
<path d="M57.1061 345.552L58.6072 351.563L52.2465 352.327" stroke="white" stroke-width="2" stroke-miterlimit="10" stroke-linecap="round" stroke-linejoin="round"/>
<path d="M77.9984 366.936L76.089 361.03L82.3711 359.841" stroke="white" stroke-width="2" stroke-miterlimit="10" stroke-linecap="round" stroke-linejoin="round"/>
<path d="M53.8546 364.137L81.346 348.434" stroke="white" stroke-width="2" stroke-miterlimit="10" stroke-linecap="round" stroke-linejoin="round"/>
<path d="M50.6869 363.011L54.2672 364.117L52.8543 367.591" stroke="white" stroke-width="2" stroke-miterlimit="10" stroke-linecap="round" stroke-linejoin="round"/>
<path d="M84.813 349.351L81.1708 348.485L82.3385 344.918" stroke="white" stroke-width="2" stroke-miterlimit="10" stroke-linecap="round" stroke-linejoin="round"/>
<path d="M53.1648 359.626L59.1693 361.482L56.7997 367.308" stroke="white" stroke-width="2" stroke-miterlimit="10" stroke-linecap="round" stroke-linejoin="round"/>
<path d="M81.9616 352.959L75.8537 351.505L77.8119 345.525" stroke="white" stroke-width="2" stroke-miterlimit="10" stroke-linecap="round" stroke-linejoin="round"/>
<path d="M68.0703 372.19L67.4038 340.537" stroke="white" stroke-width="2" stroke-miterlimit="10" stroke-linecap="round" stroke-linejoin="round"/>
<path d="M70.6649 374.327L67.8748 371.826L65.6217 374.824" stroke="white" stroke-width="2" stroke-miterlimit="10" stroke-linecap="round" stroke-linejoin="round"/>
<path d="M64.8349 338.034L67.4508 340.713L69.9094 337.878" stroke="white" stroke-width="2" stroke-miterlimit="10" stroke-linecap="round" stroke-linejoin="round"/>
<path d="M72.2944 370.462L67.6152 366.266L63.8365 371.294" stroke="white" stroke-width="2" stroke-miterlimit="10" stroke-linecap="round" stroke-linejoin="round"/>
<path d="M63.2067 342.335L67.5936 346.826L71.7164 342.072" stroke="white" stroke-width="2" stroke-miterlimit="10" stroke-linecap="round" stroke-linejoin="round"/>
<path d="M72.2313 358.909C73.638 356.426 72.705 353.238 70.1473 351.789C67.5896 350.341 64.3758 351.179 62.969 353.663C61.5622 356.146 62.4952 359.334 65.0529 360.783C67.6106 362.232 70.8245 361.393 72.2313 358.909Z" stroke="white" stroke-width="2" stroke-miterlimit="10" stroke-linecap="round" stroke-linejoin="round"/>
<path d="M348.209 351.691L349.316 376.836" stroke="white" stroke-width="2" stroke-miterlimit="10" stroke-linecap="round" stroke-linejoin="round"/>
<path d="M350.073 349.916L348.079 351.985L346.214 349.673" stroke="white" stroke-width="2" stroke-miterlimit="10" stroke-linecap="round" stroke-linejoin="round"/>
<path d="M347.491 378.899L349.343 376.695L351.356 378.872" stroke="white" stroke-width="2" stroke-miterlimit="10" stroke-linecap="round" stroke-linejoin="round"/>
<path d="M351.508 352.936L348.165 356.406L345.037 352.528" stroke="white" stroke-width="2" stroke-miterlimit="10" stroke-linecap="round" stroke-linejoin="round"/>
<path d="M346.034 375.534L349.14 371.837L352.516 375.488" stroke="white" stroke-width="2" stroke-miterlimit="10" stroke-linecap="round" stroke-linejoin="round"/>
<path d="M337.915 358.463L359.612 370.105" stroke="white" stroke-width="2" stroke-miterlimit="10" stroke-linecap="round" stroke-linejoin="round"/>
<path d="M337.35 355.909L338.098 358.726L335.225 359.229" stroke="white" stroke-width="2" stroke-miterlimit="10" stroke-linecap="round" stroke-linejoin="round"/>
<path d="M360.439 372.768L359.507 370.01L362.34 369.308" stroke="white" stroke-width="2" stroke-miterlimit="10" stroke-linecap="round" stroke-linejoin="round"/>
<path d="M340.604 356.146L341.859 360.87L337.04 361.712" stroke="white" stroke-width="2" stroke-miterlimit="10" stroke-linecap="round" stroke-linejoin="round"/>
<path d="M356.884 372.378L355.321 367.752L360.072 366.574" stroke="white" stroke-width="2" stroke-miterlimit="10" stroke-linecap="round" stroke-linejoin="round"/>
<path d="M338.474 371.157L359.065 357.654" stroke="white" stroke-width="2" stroke-miterlimit="10" stroke-linecap="round" stroke-linejoin="round"/>
<path d="M338.135 373.75L338.633 370.878L335.727 370.63" stroke="white" stroke-width="2" stroke-miterlimit="10" stroke-linecap="round" stroke-linejoin="round"/>
<path d="M359.654 354.928L358.968 357.758L361.852 358.209" stroke="white" stroke-width="2" stroke-miterlimit="10" stroke-linecap="round" stroke-linejoin="round"/>
<path d="M341.356 373.229L342.191 368.413L337.317 367.997" stroke="white" stroke-width="2" stroke-miterlimit="10" stroke-linecap="round" stroke-linejoin="round"/>
<path d="M356.147 355.63L354.997 360.375L359.833 361.131" stroke="white" stroke-width="2" stroke-miterlimit="10" stroke-linecap="round" stroke-linejoin="round"/>
<path d="M348.945 368.419C351.163 368.322 352.879 366.391 352.779 364.107C352.678 361.823 350.799 360.05 348.581 360.148C346.364 360.246 344.647 362.176 344.748 364.46C344.848 366.744 346.727 368.517 348.945 368.419Z" stroke="white" stroke-width="2" stroke-miterlimit="10" stroke-linecap="round" stroke-linejoin="round"/>
<path d="M292.917 334.388C292.917 334.388 296.908 331.449 300.417 332.517C303.926 333.585 302.817 337.897 306.182 339.117C309.546 340.338 312.516 336.219 315.837 337.134C319.158 338.049 318.883 342.779 321.766 343.542C324.65 344.304 328.474 340.773 330.885 341.329C334.542 342.173 335.727 347.653 335.727 347.653" stroke="white" stroke-width="2" stroke-miterlimit="10" stroke-linecap="round" stroke-linejoin="round"/>
<path d="M286.379 356.131C286.379 356.131 290.37 353.191 293.879 354.259C297.388 355.327 296.279 359.639 299.643 360.86C303.008 362.08 305.978 357.961 309.298 358.877C312.619 359.792 312.344 364.521 315.228 365.284C318.111 366.047 321.7 362.08 324.11 362.637C327.767 363.481 328.687 368.236 328.687 368.236" stroke="white" stroke-width="2" stroke-miterlimit="10" stroke-linecap="round" stroke-linejoin="round"/>
<path d="M294.097 346.512C295.524 346.512 296.68 345.355 296.68 343.928C296.68 342.502 295.524 341.345 294.097 341.345C292.67 341.345 291.513 342.502 291.513 343.928C291.513 345.355 292.67 346.512 294.097 346.512Z" stroke="white" stroke-width="2" stroke-miterlimit="10" stroke-linecap="round" stroke-linejoin="round"/>
<path d="M310.939 352.528C313.061 352.528 314.782 350.808 314.782 348.685C314.782 346.562 313.061 344.842 310.939 344.842C308.816 344.842 307.095 346.562 307.095 348.685C307.095 350.808 308.816 352.528 310.939 352.528Z" stroke="white" stroke-width="2" stroke-miterlimit="10" stroke-linecap="round" stroke-linejoin="round"/>
<path d="M327.244 356.609C328.671 356.609 329.827 355.452 329.827 354.026C329.827 352.599 328.671 351.442 327.244 351.442C325.817 351.442 324.661 352.599 324.661 354.026C324.661 355.452 325.817 356.609 327.244 356.609Z" stroke="white" stroke-width="2" stroke-miterlimit="10" stroke-linecap="round" stroke-linejoin="round"/>
<path d="M440.883 367.782C447.595 367.782 453.036 362.341 453.036 355.63C453.036 348.918 447.595 343.477 440.883 343.477C434.171 343.477 428.73 348.918 428.73 355.63C428.73 362.341 434.171 367.782 440.883 367.782Z" stroke="white" stroke-width="2" stroke-miterlimit="10" stroke-linecap="round" stroke-linejoin="round"/>
<path d="M440.883 357.85C442.109 357.85 443.103 356.856 443.103 355.63C443.103 354.403 442.109 353.409 440.883 353.409C439.657 353.409 438.663 354.403 438.663 355.63C438.663 356.856 439.657 357.85 440.883 357.85Z" stroke="white" stroke-width="2" stroke-miterlimit="10" stroke-linecap="round" stroke-linejoin="round"/>
<path d="M440.421 343.487L440.883 353.409" stroke="white" stroke-width="2" stroke-miterlimit="10" stroke-linecap="round" stroke-linejoin="round"/>
<path d="M448.612 346.251C448.437 346.114 442.483 354.093 442.483 354.093" stroke="white" stroke-width="2" stroke-miterlimit="10" stroke-linecap="round" stroke-linejoin="round"/>
<path d="M443.103 355.63L452.675 352.686" stroke="white" stroke-width="2" stroke-miterlimit="10" stroke-linecap="round" stroke-linejoin="round"/>
<path d="M442.483 357.167L451.943 360.665" stroke="white" stroke-width="2" stroke-miterlimit="10" stroke-linecap="round" stroke-linejoin="round"/>
<path d="M440.421 357.802L437.695 367.096" stroke="white" stroke-width="2" stroke-miterlimit="10" stroke-linecap="round" stroke-linejoin="round"/>
<path d="M438.962 357.167L430.402 361.782" stroke="white" stroke-width="2" stroke-miterlimit="10" stroke-linecap="round" stroke-linejoin="round"/>
<path d="M438.663 355.63L428.752 354.928" stroke="white" stroke-width="2" stroke-miterlimit="10" stroke-linecap="round" stroke-linejoin="round"/>
<path d="M439.29 354.085L432.814 347.117" stroke="white" stroke-width="2" stroke-miterlimit="10" stroke-linecap="round" stroke-linejoin="round"/>
<path d="M446.171 366.574L441.791 357.654" stroke="white" stroke-width="2" stroke-miterlimit="10" stroke-linecap="round" stroke-linejoin="round"/>
<g opacity="0.33" clip-path="url(#clip0_76_1274)">
<path d="M179.028 28.8538C179.14 28.6595 179.073 28.411 178.879 28.2988C178.685 28.1866 178.436 28.2532 178.324 28.4475L166.543 48.8533C166.431 49.0476 166.497 49.296 166.692 49.4082C166.886 49.5204 167.134 49.4538 167.246 49.2595L179.028 28.8538Z" fill="#1775BB"/>
<path d="M184.567 38.4486L161.005 38.4466C160.78 38.4465 160.598 38.6284 160.598 38.8528C160.598 39.0771 160.78 39.259 161.004 39.2591L184.567 39.2611C184.791 39.2611 184.973 39.0793 184.973 38.8549C184.973 38.6305 184.791 38.4486 184.567 38.4486Z" fill="#1775BB"/>
<path d="M167.247 28.4475C167.134 28.2532 166.886 28.1866 166.692 28.2988C166.497 28.411 166.431 28.6595 166.543 28.8538L178.324 49.2595C178.436 49.4538 178.685 49.5204 178.879 49.4082C179.073 49.296 179.14 49.0476 179.028 48.8533L167.247 28.4475Z" fill="#1775BB"/>
<path d="M168.175 48.9514L167.776 48.0174C167.742 47.9366 167.682 47.8691 167.606 47.8251C167.53 47.7812 167.441 47.7631 167.354 47.7736L166.346 47.8951C166.239 47.908 166.131 47.8779 166.046 47.8113C165.962 47.7448 165.907 47.6474 165.894 47.5404C165.887 47.4874 165.892 47.4337 165.906 47.3823C165.92 47.331 165.945 47.2829 165.978 47.2409C166.011 47.199 166.051 47.1639 166.098 47.1378C166.144 47.1116 166.196 47.0948 166.249 47.0885L167.559 46.9305C167.734 46.9095 167.911 46.9456 168.063 47.0335C168.215 47.1214 168.335 47.2564 168.404 47.418L168.922 48.6322C168.965 48.7313 168.966 48.8431 168.926 48.9431C168.886 49.0431 168.808 49.1231 168.708 49.1654C168.659 49.1863 168.607 49.1974 168.553 49.198C168.5 49.1986 168.447 49.1887 168.398 49.1688C168.348 49.1489 168.303 49.1195 168.265 49.0822C168.227 49.0449 168.196 49.0004 168.175 48.9514Z" fill="#1775BB"/>
<path d="M176.239 32.8728C176.177 32.8374 176.126 32.7863 176.09 32.7248L174.643 30.2478C174.616 30.2016 174.599 30.1505 174.592 30.0975C174.585 30.0445 174.588 29.9906 174.602 29.939C174.616 29.8873 174.64 29.8389 174.672 29.7965C174.705 29.7541 174.745 29.7185 174.792 29.6918V29.6918C174.885 29.6375 174.996 29.6225 175.1 29.6499C175.204 29.6773 175.293 29.7449 175.347 29.838L176.559 31.9153C176.595 31.9764 176.645 32.0271 176.707 32.0624C176.768 32.0977 176.837 32.1165 176.908 32.1168L179.313 32.1276C179.421 32.1281 179.524 32.1714 179.6 32.2479C179.675 32.3243 179.718 32.4278 179.717 32.5355V32.5355C179.717 32.6432 179.673 32.7463 179.597 32.8221C179.52 32.898 179.417 32.9403 179.309 32.9399L176.441 32.9257C176.37 32.926 176.3 32.9077 176.239 32.8728V32.8728Z" fill="#1775BB"/>
<path d="M175.021 34.9838C174.951 34.9437 174.895 34.8839 174.86 34.812L173.742 32.551C173.719 32.5032 173.704 32.4512 173.701 32.3979C173.697 32.3447 173.704 32.2912 173.721 32.2406C173.738 32.19 173.765 32.1432 173.8 32.1029C173.835 32.0627 173.878 32.0297 173.925 32.006V32.006C173.973 31.9823 174.025 31.9683 174.078 31.9648C174.132 31.9613 174.185 31.9683 174.236 31.9854C174.286 32.0025 174.333 32.0294 174.373 32.0645C174.413 32.0997 174.446 32.1424 174.47 32.1902L175.348 33.9666C175.383 34.0385 175.439 34.0983 175.509 34.1384C175.578 34.1786 175.658 34.1972 175.738 34.192L177.716 34.0643C177.769 34.0608 177.822 34.0679 177.873 34.0851C177.923 34.1023 177.97 34.1292 178.01 34.1644C178.05 34.1997 178.083 34.2424 178.106 34.2903C178.13 34.3382 178.144 34.3902 178.147 34.4435V34.4435C178.151 34.4967 178.144 34.5501 178.126 34.6006C178.109 34.6511 178.082 34.6978 178.047 34.7379C178.012 34.778 177.969 34.8107 177.921 34.8343C177.873 34.8578 177.821 34.8717 177.768 34.8752L175.25 35.0375C175.17 35.0426 175.09 35.024 175.021 34.9838Z" fill="#1775BB"/>
<path d="M177.457 30.7617C177.381 30.7178 177.321 30.6503 177.287 30.5695L176.649 29.0751C176.606 28.976 176.605 28.8642 176.645 28.7642C176.685 28.6642 176.764 28.5843 176.863 28.542V28.542C176.962 28.4996 177.074 28.4984 177.174 28.5385C177.273 28.5787 177.353 28.6569 177.396 28.756L177.795 29.6899C177.829 29.7708 177.889 29.8382 177.965 29.8822C178.041 29.9261 178.13 29.9442 178.217 29.9337L179.225 29.8122C179.332 29.7993 179.44 29.8295 179.525 29.896C179.609 29.9625 179.664 30.06 179.677 30.167V30.167C179.69 30.2739 179.66 30.3816 179.593 30.4664C179.527 30.5511 179.429 30.606 179.322 30.6189L177.709 30.8133C177.622 30.8238 177.534 30.8057 177.457 30.7617Z" fill="#1775BB"/>
<path d="M170.225 47.8698L169.013 45.7924C168.977 45.7314 168.926 45.6807 168.865 45.6453C168.804 45.61 168.735 45.5912 168.664 45.5909L166.259 45.5801C166.151 45.5796 166.048 45.5364 165.972 45.4599C165.897 45.3834 165.854 45.2799 165.855 45.1722V45.1722C165.855 45.0645 165.898 44.9614 165.975 44.8856C166.051 44.8098 166.155 44.7674 166.263 44.7679L168.9 44.7795C169.041 44.7801 169.18 44.8176 169.302 44.8883C169.425 44.959 169.526 45.0604 169.598 45.1825L170.926 47.4605C170.981 47.5535 170.996 47.6643 170.968 47.7685C170.941 47.8726 170.873 47.9617 170.78 48.0159C170.687 48.0702 170.576 48.0853 170.472 48.0578C170.368 48.0304 170.279 47.9628 170.225 47.8698Z" fill="#1775BB"/>
<path d="M171.102 45.517L170.224 43.7407C170.188 43.6688 170.132 43.609 170.063 43.5688C169.993 43.5287 169.914 43.5101 169.833 43.5153L167.856 43.643C167.803 43.6465 167.749 43.6394 167.699 43.6222C167.648 43.605 167.602 43.5781 167.562 43.5428C167.522 43.5076 167.489 43.4649 167.465 43.417C167.442 43.3691 167.428 43.3171 167.424 43.2638C167.421 43.2106 167.428 43.1572 167.445 43.1067C167.462 43.0561 167.489 43.0095 167.525 42.9694C167.56 42.9293 167.603 42.8966 167.65 42.873C167.698 42.8495 167.75 42.8356 167.804 42.8321L170.052 42.6875C170.212 42.6772 170.371 42.7145 170.51 42.7947C170.649 42.8748 170.761 42.9943 170.832 43.138L171.831 45.1571C171.854 45.2049 171.868 45.2569 171.872 45.3102C171.875 45.3634 171.868 45.4168 171.851 45.4674C171.834 45.5179 171.807 45.5646 171.772 45.6047C171.737 45.6449 171.694 45.6777 171.646 45.7013C171.598 45.725 171.546 45.739 171.493 45.7425C171.44 45.746 171.387 45.739 171.336 45.7219C171.285 45.7048 171.239 45.6779 171.199 45.6428C171.159 45.6076 171.126 45.5649 171.102 45.517Z" fill="#1775BB"/>
<path d="M163.697 41.1432L164.89 39.0551C164.925 38.9935 164.943 38.9239 164.943 38.8531C164.943 38.7822 164.924 38.7127 164.889 38.6514L163.697 36.5645C163.671 36.5181 163.653 36.467 163.647 36.4141C163.64 36.3611 163.644 36.3074 163.658 36.2559C163.672 36.2044 163.696 36.1562 163.729 36.114C163.761 36.0718 163.802 36.0365 163.848 36.01C163.942 35.9566 164.053 35.9425 164.157 35.9709C164.26 35.9992 164.349 36.0676 164.402 36.161L165.711 38.4504C165.781 38.5732 165.818 38.7122 165.818 38.8536C165.818 38.995 165.781 39.134 165.711 39.2567L164.402 41.5463C164.348 41.6396 164.26 41.7077 164.156 41.7356C164.052 41.7635 163.941 41.7489 163.847 41.695C163.755 41.6414 163.687 41.5534 163.659 41.4501C163.63 41.3467 163.644 41.2364 163.697 41.1432Z" fill="#1775BB"/>
<path d="M166.285 41.293C166.196 41.2332 166.134 41.1403 166.113 41.0347C166.091 40.9291 166.113 40.8194 166.173 40.7298L167.272 39.0809C167.317 39.0142 167.34 38.9358 167.34 38.8556C167.34 38.7755 167.316 38.6971 167.272 38.6304L166.173 36.9812C166.113 36.8916 166.091 36.7819 166.112 36.6763C166.134 36.5707 166.196 36.4778 166.285 36.4181V36.4181C166.375 36.3581 166.484 36.336 166.59 36.3567C166.696 36.3774 166.789 36.4392 166.849 36.5285L168.098 38.403C168.187 38.5365 168.235 38.6932 168.235 38.8536C168.235 39.014 168.187 39.1707 168.098 39.3042L166.849 41.1786C166.819 41.2231 166.781 41.2614 166.737 41.2912C166.693 41.3211 166.643 41.3419 166.591 41.3525C166.538 41.3631 166.484 41.3633 166.432 41.3531C166.38 41.3429 166.33 41.3225 166.285 41.293V41.293Z" fill="#1775BB"/>
<path d="M161.817 40.4787C161.731 40.4141 161.674 40.3179 161.659 40.2112C161.643 40.1046 161.671 39.9963 161.736 39.9101L162.346 39.0975C162.398 39.0272 162.427 38.9417 162.427 38.8538C162.427 38.7659 162.398 38.6804 162.346 38.6101L161.736 37.7974C161.671 37.7112 161.644 37.6029 161.659 37.4963C161.674 37.3897 161.731 37.2936 161.817 37.229V37.229C161.903 37.1643 162.012 37.1366 162.118 37.1518C162.225 37.167 162.321 37.2239 162.386 37.3101L163.178 38.3665C163.284 38.5071 163.341 38.6781 163.341 38.8539C163.341 39.0296 163.284 39.2007 163.178 39.3413L162.386 40.3976C162.354 40.4403 162.314 40.4763 162.268 40.5035C162.222 40.5306 162.171 40.5485 162.118 40.556C162.065 40.5636 162.012 40.5606 161.96 40.5473C161.908 40.5341 161.86 40.5107 161.817 40.4787Z" fill="#1775BB"/>
<path d="M181.168 41.5457L179.862 39.2577C179.792 39.1349 179.755 38.996 179.755 38.8546C179.755 38.7132 179.792 38.5742 179.862 38.4515L181.17 36.1619C181.224 36.0686 181.313 36.0005 181.417 35.9726C181.521 35.9447 181.632 35.9593 181.725 36.0132C181.818 36.0669 181.886 36.1552 181.914 36.2589C181.942 36.3625 181.928 36.4731 181.875 36.5664L180.682 38.6546C180.647 38.7162 180.629 38.7859 180.629 38.8567C180.629 38.9276 180.648 38.9971 180.683 39.0584L181.877 41.1461C181.903 41.1925 181.92 41.2436 181.927 41.2965C181.934 41.3494 181.93 41.4032 181.916 41.4547C181.902 41.5062 181.878 41.5544 181.845 41.5966C181.812 41.6388 181.772 41.6741 181.725 41.7006V41.7006C181.679 41.7274 181.627 41.7447 181.574 41.7514C181.52 41.7581 181.466 41.7542 181.414 41.7397C181.362 41.7253 181.314 41.7008 181.272 41.6674C181.229 41.6341 181.194 41.5928 181.168 41.5457V41.5457Z" fill="#1775BB"/>
<path d="M183.186 40.3976L182.393 39.3409C182.288 39.2003 182.231 39.0293 182.231 38.8535C182.231 38.6778 182.288 38.5067 182.393 38.3661L183.185 37.3098C183.25 37.2236 183.346 37.1667 183.453 37.1515C183.559 37.1362 183.668 37.1639 183.754 37.2285V37.2285C183.84 37.2932 183.897 37.3894 183.912 37.496C183.928 37.6026 183.9 37.7109 183.835 37.7971L183.225 38.6097C183.173 38.68 183.144 38.7655 183.144 38.8534C183.144 38.9413 183.173 39.0268 183.225 39.0971L183.835 39.9098C183.9 39.996 183.927 40.1043 183.912 40.2109C183.897 40.3176 183.84 40.4138 183.754 40.4784C183.668 40.543 183.56 40.5707 183.453 40.5556C183.347 40.5404 183.25 40.4836 183.186 40.3976Z" fill="#1775BB"/>
<path d="M178.722 41.1787L177.473 39.3043C177.384 39.1709 177.336 39.014 177.336 38.8535C177.336 38.6931 177.384 38.5362 177.473 38.4027L178.722 36.5286C178.782 36.439 178.875 36.3768 178.981 36.3557C179.086 36.3346 179.196 36.3563 179.285 36.416V36.416C179.375 36.4758 179.437 36.5687 179.458 36.6743C179.479 36.7799 179.458 36.8896 179.398 36.9792L178.301 38.6293C178.256 38.696 178.233 38.7744 178.233 38.8546C178.233 38.9347 178.257 39.0131 178.301 39.0798L179.4 40.729C179.46 40.8186 179.482 40.9283 179.46 41.0339C179.439 41.1395 179.377 41.2324 179.288 41.2921V41.2921C179.243 41.322 179.193 41.3428 179.14 41.3532C179.088 41.3637 179.034 41.3637 178.981 41.3531C178.929 41.3426 178.879 41.3217 178.834 41.2918C178.79 41.2618 178.752 41.2234 178.722 41.1787V41.1787Z" fill="#1775BB"/>
<path d="M174.792 48.0159C174.699 47.962 174.631 47.8733 174.603 47.7692C174.575 47.6651 174.589 47.5542 174.643 47.4609L175.972 45.1831C176.043 45.061 176.145 44.9595 176.268 44.8888C176.39 44.8181 176.529 44.7806 176.671 44.78L179.307 44.7683C179.36 44.7681 179.413 44.7783 179.463 44.7985C179.512 44.8187 179.557 44.8484 179.595 44.886C179.633 44.9236 179.663 44.9682 179.684 45.0175C179.704 45.0667 179.715 45.1195 179.715 45.1728C179.715 45.2262 179.705 45.2791 179.685 45.3285C179.665 45.3779 179.635 45.4228 179.598 45.4607C179.56 45.4986 179.515 45.5288 179.466 45.5494C179.417 45.57 179.364 45.5808 179.311 45.581L176.909 45.5912C176.838 45.5912 176.768 45.6097 176.707 45.6449C176.645 45.6801 176.594 45.7307 176.558 45.7918L175.346 47.8691C175.292 47.9619 175.203 48.0295 175.099 48.057C174.996 48.0845 174.885 48.0697 174.792 48.0159V48.0159Z" fill="#1775BB"/>
<path d="M173.74 45.1574L174.739 43.1383C174.81 42.9944 174.922 42.8748 175.061 42.7946C175.2 42.7144 175.359 42.6771 175.52 42.6875L177.767 42.8323C177.875 42.8393 177.975 42.8886 178.046 42.9695C178.117 43.0504 178.153 43.1562 178.147 43.2636V43.2636C178.14 43.3711 178.09 43.4714 178.009 43.5424C177.928 43.6135 177.823 43.6496 177.715 43.6427L175.737 43.516C175.657 43.5108 175.578 43.5294 175.508 43.5695C175.439 43.6095 175.383 43.6692 175.347 43.741L174.469 45.5175C174.421 45.614 174.337 45.6876 174.235 45.7221C174.133 45.7566 174.021 45.7493 173.925 45.7016C173.877 45.678 173.834 45.6452 173.799 45.605C173.764 45.5649 173.737 45.5182 173.72 45.4677C173.703 45.4172 173.696 45.3638 173.699 45.3105C173.703 45.2573 173.717 45.2053 173.74 45.1574V45.1574Z" fill="#1775BB"/>
<path d="M176.649 48.6323L177.167 47.4178C177.236 47.2562 177.356 47.1213 177.508 47.0334C177.66 46.9456 177.837 46.9094 178.011 46.9304L179.322 47.0883C179.429 47.1012 179.527 47.1561 179.593 47.2409C179.66 47.3256 179.69 47.4333 179.677 47.5402C179.664 47.6472 179.609 47.7446 179.524 47.8111C179.44 47.8775 179.332 47.9077 179.225 47.8948L178.216 47.7731C178.129 47.7626 178.041 47.7806 177.965 47.8246C177.889 47.8685 177.829 47.9359 177.794 48.0167L177.395 48.9513C177.353 49.0503 177.273 49.1284 177.173 49.1685C177.073 49.2086 176.961 49.2074 176.862 49.1651V49.1651C176.763 49.1227 176.685 49.0428 176.645 48.9429C176.605 48.843 176.607 48.7313 176.649 48.6323V48.6323Z" fill="#1775BB"/>
<path d="M165.854 32.5354C165.854 32.482 165.864 32.4291 165.884 32.3797C165.905 32.3303 165.934 32.2854 165.972 32.2475C166.01 32.2096 166.054 32.1795 166.103 32.1588C166.153 32.1382 166.205 32.1274 166.259 32.1272L168.663 32.1167C168.734 32.1167 168.804 32.0981 168.865 32.0629C168.927 32.0277 168.978 31.9771 169.014 31.916L170.225 29.8385C170.28 29.7458 170.368 29.6782 170.472 29.6507C170.576 29.6232 170.686 29.6379 170.779 29.6916V29.6916C170.873 29.7454 170.941 29.8342 170.969 29.9382C170.997 30.0423 170.982 30.1532 170.928 30.2465L169.599 32.5243C169.528 32.6465 169.426 32.7479 169.304 32.8186C169.181 32.8894 169.043 32.9269 168.901 32.9276L166.264 32.9391C166.211 32.9396 166.158 32.9296 166.108 32.9095C166.059 32.8895 166.014 32.8599 165.975 32.8224C165.937 32.7849 165.907 32.7402 165.886 32.691C165.865 32.6417 165.855 32.5888 165.854 32.5354Z" fill="#1775BB"/>
<path d="M165.894 30.1672C165.907 30.0603 165.962 29.9629 166.047 29.8964C166.131 29.8298 166.239 29.7997 166.346 29.8124L167.355 29.9341C167.442 29.9447 167.53 29.9266 167.606 29.8827C167.682 29.8387 167.742 29.7713 167.777 29.6905L168.176 28.756C168.218 28.6569 168.298 28.5788 168.398 28.5387C168.498 28.4986 168.609 28.4998 168.709 28.5421V28.5421C168.808 28.5844 168.886 28.6643 168.926 28.7643C168.966 28.8642 168.965 28.976 168.922 29.0751L168.404 30.2894C168.335 30.4511 168.215 30.5859 168.063 30.6738C167.911 30.7617 167.734 30.7978 167.56 30.7768L166.249 30.6191C166.142 30.6062 166.045 30.5513 165.978 30.4666C165.912 30.3818 165.881 30.2741 165.894 30.1672V30.1672Z" fill="#1775BB"/>
<path d="M167.424 34.445C167.431 34.3375 167.481 34.2372 167.562 34.1661C167.643 34.0951 167.748 34.059 167.856 34.0659L169.834 34.1932C169.914 34.1983 169.993 34.1797 170.063 34.1397C170.132 34.0997 170.188 34.04 170.224 33.9681L171.102 32.1917C171.15 32.0952 171.234 32.0216 171.336 31.987C171.438 31.9525 171.55 31.9599 171.646 32.0076C171.743 32.0553 171.816 32.1394 171.851 32.2414C171.885 32.3434 171.878 32.455 171.83 32.5515L170.832 34.571C170.761 34.7148 170.649 34.8342 170.51 34.9144C170.371 34.9946 170.211 35.0319 170.051 35.0216L167.803 34.8749C167.696 34.8678 167.596 34.8187 167.525 34.7381C167.454 34.6576 167.418 34.5522 167.424 34.445Z" fill="#1775BB"/>
<path d="M168.441 41.5053C168.391 41.4766 168.348 41.4379 168.315 41.3915C168.281 41.3451 168.258 41.2921 168.246 41.236C168.235 41.1799 168.235 41.122 168.247 41.0661C168.259 41.0101 168.283 40.9574 168.318 40.9114L169.856 38.8371L168.574 36.8388C168.534 36.776 168.512 36.7035 168.51 36.6291C168.509 36.5546 168.527 36.4811 168.565 36.4166C168.602 36.3521 168.656 36.2991 168.722 36.2634C168.787 36.2276 168.861 36.2105 168.935 36.2139L171.306 36.3244L172.334 33.9552C172.365 33.884 172.415 33.8232 172.479 33.7799C172.544 33.7365 172.619 33.7125 172.696 33.7105C172.774 33.7086 172.85 33.7289 172.917 33.7691C172.983 33.8092 173.037 33.8675 173.071 33.937L174.249 36.3201L176.902 36.149C176.98 36.144 177.057 36.1611 177.125 36.1985C177.193 36.2359 177.248 36.2919 177.286 36.36C177.323 36.4281 177.339 36.5054 177.334 36.5827C177.329 36.6601 177.301 36.7342 177.255 36.7965L175.717 38.871L176.998 40.8691C177.038 40.9319 177.06 41.0044 177.062 41.0789C177.064 41.1533 177.045 41.2268 177.008 41.2913C176.971 41.3558 176.916 41.4088 176.851 41.4445C176.786 41.4803 176.712 41.4974 176.637 41.494L174.267 41.3837L173.239 43.7527C173.208 43.8239 173.157 43.8847 173.093 43.9281C173.029 43.9714 172.954 43.9955 172.876 43.9974C172.799 43.9993 172.722 43.979 172.656 43.9388C172.589 43.8987 172.536 43.8404 172.502 43.7709L171.324 41.3871L168.671 41.5582C168.591 41.5636 168.511 41.5452 168.441 41.5053V41.5053ZM171.771 40.6131C171.84 40.6532 171.896 40.713 171.932 40.7849L172.843 42.6244L173.633 40.8019C173.666 40.7265 173.721 40.6629 173.791 40.6194C173.861 40.576 173.942 40.5547 174.024 40.5585L175.89 40.6459L174.882 39.0731C174.838 39.0039 174.815 38.9228 174.818 38.8406C174.821 38.7584 174.848 38.679 174.897 38.6128L176.08 37.017L174.032 37.1478C173.952 37.153 173.872 37.1343 173.802 37.0942C173.733 37.0541 173.677 36.9942 173.641 36.9223L172.732 35.0841L171.942 36.9066C171.909 36.982 171.854 37.0456 171.784 37.089C171.714 37.1324 171.633 37.1536 171.55 37.1497L169.684 37.0626L170.692 38.6354C170.736 38.7046 170.759 38.7857 170.756 38.868C170.753 38.9502 170.726 39.0297 170.677 39.0959L169.494 40.6917L171.54 40.5597C171.621 40.5543 171.701 40.5728 171.771 40.6131Z" fill="#1775BB"/>
</g>
<g opacity="0.33" clip-path="url(#clip1_76_1274)">
<path d="M349.035 474.7C348.985 474.517 348.797 474.408 348.614 474.457C348.43 474.507 348.321 474.695 348.371 474.878L353.531 494.137C353.58 494.32 353.768 494.429 353.952 494.38C354.135 494.331 354.244 494.142 354.195 493.959L349.035 474.7Z" fill="#1775BB"/>
<path d="M358.09 477.127L343.991 491.224C343.856 491.358 343.856 491.576 343.99 491.71C344.125 491.844 344.342 491.844 344.477 491.71L358.576 477.613C358.71 477.479 358.71 477.261 358.576 477.127C358.442 476.993 358.224 476.993 358.09 477.127Z" fill="#1775BB"/>
<path d="M341.743 481.506C341.559 481.457 341.371 481.566 341.322 481.75C341.272 481.933 341.381 482.121 341.565 482.171L360.823 487.331C361.006 487.38 361.195 487.271 361.244 487.088C361.293 486.904 361.184 486.716 361.001 486.667L341.743 481.506Z" fill="#1775BB"/>
<path d="M354.566 493.219L353.769 492.899C353.7 492.871 353.623 492.866 353.552 492.886C353.48 492.905 353.416 492.947 353.37 493.005L352.84 493.681C352.783 493.753 352.701 493.8 352.61 493.81C352.52 493.821 352.429 493.796 352.357 493.74C352.321 493.712 352.292 493.677 352.27 493.638C352.247 493.598 352.233 493.555 352.228 493.51C352.222 493.465 352.226 493.42 352.238 493.377C352.25 493.333 352.271 493.292 352.299 493.257L352.989 492.378C353.08 492.261 353.208 492.177 353.351 492.139C353.495 492.1 353.647 492.109 353.785 492.165L354.822 492.581C354.907 492.615 354.974 492.681 355.01 492.765C355.046 492.849 355.047 492.943 355.013 493.028C354.996 493.07 354.971 493.108 354.94 493.14C354.908 493.172 354.871 493.198 354.829 493.216C354.788 493.234 354.743 493.243 354.698 493.243C354.653 493.244 354.608 493.236 354.566 493.219Z" fill="#1775BB"/>
<path d="M349.771 478.774C349.712 478.79 349.651 478.79 349.593 478.775L347.245 478.158C347.202 478.146 347.161 478.126 347.125 478.099C347.089 478.071 347.059 478.037 347.036 477.998C347.013 477.959 346.999 477.916 346.993 477.871C346.987 477.826 346.99 477.78 347.002 477.737V477.737C347.025 477.648 347.082 477.573 347.161 477.527C347.239 477.481 347.333 477.469 347.421 477.492L349.389 478.01C349.447 478.025 349.508 478.025 349.566 478.009C349.623 477.994 349.676 477.963 349.719 477.921L351.164 476.489C351.229 476.425 351.316 476.389 351.407 476.389C351.499 476.39 351.586 476.426 351.65 476.491V476.491C351.714 476.556 351.75 476.643 351.75 476.734C351.749 476.826 351.713 476.913 351.648 476.977L349.923 478.685C349.881 478.727 349.828 478.758 349.771 478.774V478.774Z" fill="#1775BB"/>
<path d="M350.305 480.766C350.239 480.784 350.17 480.781 350.106 480.76L348.085 480.075C348.042 480.061 348.002 480.038 347.968 480.008C347.934 479.979 347.906 479.943 347.886 479.902C347.866 479.862 347.854 479.818 347.851 479.773C347.848 479.728 347.853 479.682 347.868 479.64V479.64C347.882 479.597 347.905 479.557 347.935 479.523C347.965 479.489 348.001 479.462 348.041 479.442C348.082 479.422 348.126 479.41 348.171 479.407C348.216 479.404 348.261 479.41 348.304 479.424L349.892 479.962C349.956 479.983 350.026 479.986 350.091 479.968C350.157 479.951 350.216 479.914 350.26 479.863L351.367 478.603C351.397 478.569 351.433 478.542 351.474 478.522C351.514 478.502 351.558 478.49 351.603 478.487C351.648 478.484 351.693 478.49 351.736 478.505C351.779 478.519 351.818 478.542 351.852 478.572V478.572C351.886 478.602 351.914 478.638 351.934 478.678C351.954 478.719 351.966 478.763 351.968 478.808C351.971 478.853 351.965 478.898 351.951 478.941C351.936 478.984 351.913 479.023 351.884 479.057L350.474 480.661C350.429 480.712 350.37 480.748 350.305 480.766Z" fill="#1775BB"/>
<path d="M349.237 476.782C349.165 476.801 349.089 476.797 349.02 476.769L347.744 476.257C347.659 476.223 347.591 476.157 347.555 476.073C347.52 475.989 347.519 475.894 347.553 475.81V475.81C347.587 475.725 347.653 475.657 347.737 475.622C347.82 475.586 347.915 475.585 348 475.619L348.797 475.939C348.866 475.966 348.942 475.971 349.014 475.952C349.086 475.933 349.15 475.89 349.196 475.832L349.726 475.156C349.782 475.084 349.865 475.038 349.955 475.027C350.046 475.016 350.137 475.042 350.209 475.098V475.098C350.281 475.154 350.327 475.237 350.338 475.327C350.349 475.418 350.323 475.509 350.267 475.58L349.418 476.662C349.372 476.721 349.308 476.763 349.237 476.782Z" fill="#1775BB"/>
<path d="M355.145 491.345L353.177 490.828C353.119 490.812 353.059 490.813 353.001 490.828C352.943 490.843 352.89 490.874 352.848 490.916L351.403 492.348C351.338 492.412 351.25 492.448 351.159 492.448C351.068 492.447 350.981 492.411 350.917 492.346V492.346C350.852 492.281 350.817 492.194 350.817 492.103C350.817 492.012 350.854 491.924 350.919 491.86L352.504 490.289C352.589 490.205 352.694 490.145 352.809 490.114C352.925 490.083 353.047 490.082 353.162 490.113L355.32 490.681C355.408 490.704 355.484 490.761 355.53 490.84C355.575 490.919 355.588 491.012 355.565 491.101C355.542 491.189 355.485 491.264 355.406 491.31C355.327 491.356 355.233 491.369 355.145 491.345Z" fill="#1775BB"/>
<path d="M354.262 489.413L352.674 488.875C352.61 488.854 352.541 488.851 352.475 488.869C352.41 488.886 352.351 488.923 352.306 488.974L351.199 490.234C351.169 490.268 351.133 490.295 351.093 490.315C351.052 490.335 351.008 490.347 350.963 490.35C350.918 490.353 350.873 490.347 350.83 490.332C350.787 490.318 350.748 490.295 350.714 490.265C350.68 490.235 350.652 490.199 350.632 490.159C350.612 490.118 350.601 490.074 350.598 490.029C350.595 489.984 350.601 489.939 350.615 489.896C350.63 489.853 350.653 489.814 350.683 489.78L351.941 488.348C352.031 488.246 352.148 488.173 352.279 488.138C352.41 488.103 352.549 488.108 352.677 488.151L354.483 488.762C354.526 488.776 354.565 488.799 354.599 488.828C354.633 488.858 354.661 488.894 354.681 488.935C354.701 488.975 354.713 489.019 354.716 489.064C354.719 489.109 354.713 489.155 354.698 489.197C354.684 489.24 354.661 489.28 354.631 489.314C354.602 489.348 354.566 489.375 354.525 489.395C354.485 489.415 354.441 489.427 354.396 489.43C354.35 489.433 354.305 489.427 354.262 489.413Z" fill="#1775BB"/>
<path d="M347.215 491.227L346.679 489.263C346.664 489.205 346.633 489.153 346.59 489.111C346.548 489.068 346.495 489.038 346.437 489.022L344.475 488.487C344.432 488.475 344.391 488.455 344.355 488.427C344.32 488.399 344.29 488.365 344.267 488.326C344.245 488.287 344.23 488.243 344.225 488.198C344.219 488.154 344.222 488.108 344.234 488.065C344.258 487.977 344.316 487.902 344.395 487.857C344.474 487.812 344.568 487.8 344.656 487.823L346.809 488.41C346.924 488.442 347.029 488.503 347.114 488.588C347.198 488.672 347.259 488.777 347.291 488.893L347.878 491.046C347.902 491.134 347.889 491.227 347.844 491.306C347.798 491.385 347.723 491.443 347.635 491.467C347.547 491.49 347.454 491.478 347.376 491.433C347.297 491.388 347.239 491.314 347.215 491.227Z" fill="#1775BB"/>
<path d="M348.853 489.767C348.764 489.785 348.671 489.767 348.595 489.716C348.519 489.665 348.467 489.587 348.449 489.498L348.12 487.853C348.107 487.787 348.074 487.726 348.026 487.678C347.978 487.63 347.917 487.597 347.85 487.584L346.206 487.255C346.117 487.237 346.038 487.184 345.988 487.108C345.937 487.033 345.919 486.94 345.936 486.85V486.85C345.954 486.761 346.006 486.682 346.082 486.632C346.158 486.581 346.25 486.562 346.34 486.579L348.209 486.953C348.342 486.98 348.464 487.045 348.56 487.141C348.656 487.237 348.721 487.359 348.748 487.492L349.122 489.362C349.131 489.406 349.131 489.452 349.122 489.496C349.114 489.54 349.096 489.582 349.072 489.62C349.047 489.658 349.014 489.69 348.977 489.715C348.94 489.741 348.897 489.758 348.853 489.767V489.767Z" fill="#1775BB"/>
<path d="M345.692 491.953C345.602 491.966 345.511 491.943 345.438 491.888C345.365 491.834 345.317 491.752 345.304 491.662L345.182 490.811C345.172 490.737 345.138 490.669 345.085 490.616C345.033 490.564 344.964 490.53 344.891 490.519L344.04 490.398C343.949 490.385 343.868 490.337 343.813 490.264C343.759 490.191 343.735 490.099 343.748 490.009V490.009C343.761 489.919 343.809 489.837 343.882 489.783C343.955 489.728 344.047 489.704 344.137 489.717L345.243 489.875C345.39 489.896 345.527 489.965 345.632 490.07C345.737 490.175 345.805 490.311 345.826 490.458L345.984 491.565C345.991 491.609 345.988 491.655 345.977 491.699C345.966 491.742 345.946 491.783 345.919 491.82C345.892 491.856 345.858 491.886 345.819 491.909C345.78 491.932 345.737 491.947 345.692 491.953Z" fill="#1775BB"/>
<path d="M357.909 481.014L355.759 480.426C355.643 480.395 355.538 480.334 355.453 480.249C355.369 480.165 355.308 480.059 355.276 479.944L354.689 477.791C354.666 477.703 354.678 477.609 354.724 477.53C354.769 477.451 354.844 477.394 354.932 477.37C355.02 477.347 355.114 477.359 355.192 477.404C355.271 477.449 355.329 477.524 355.353 477.612L355.888 479.575C355.904 479.633 355.935 479.685 355.978 479.728C356.02 479.77 356.073 479.8 356.131 479.816L358.094 480.351C358.138 480.363 358.178 480.383 358.214 480.411C358.25 480.438 358.28 480.473 358.302 480.512C358.324 480.551 358.339 480.594 358.345 480.639C358.35 480.684 358.347 480.73 358.335 480.773V480.773C358.323 480.817 358.303 480.858 358.275 480.894C358.247 480.93 358.212 480.96 358.172 480.983C358.133 481.005 358.089 481.019 358.044 481.025C357.999 481.03 357.953 481.026 357.909 481.014V481.014Z" fill="#1775BB"/>
<path d="M358.429 479.12L357.323 478.962C357.176 478.941 357.039 478.873 356.934 478.767C356.829 478.662 356.761 478.526 356.74 478.379L356.582 477.272C356.569 477.182 356.592 477.091 356.647 477.018C356.702 476.945 356.783 476.897 356.873 476.884V476.884C356.963 476.871 357.055 476.894 357.128 476.949C357.201 477.004 357.249 477.085 357.262 477.175L357.383 478.026C357.394 478.1 357.428 478.168 357.48 478.221C357.533 478.273 357.601 478.307 357.675 478.318L358.526 478.439C358.616 478.452 358.698 478.5 358.752 478.573C358.807 478.646 358.831 478.738 358.818 478.828C358.805 478.918 358.757 479 358.684 479.054C358.611 479.109 358.519 479.133 358.429 479.12Z" fill="#1775BB"/>
<path d="M356.226 482.258L354.357 481.884C354.224 481.857 354.102 481.792 354.006 481.696C353.91 481.6 353.844 481.477 353.818 481.344L353.444 479.475C353.426 479.386 353.444 479.293 353.495 479.217C353.546 479.142 353.624 479.089 353.713 479.071V479.071C353.803 479.053 353.896 479.072 353.971 479.122C354.047 479.173 354.1 479.251 354.118 479.341L354.449 480.984C354.462 481.051 354.495 481.112 354.543 481.16C354.591 481.208 354.652 481.241 354.718 481.254L356.363 481.583C356.452 481.601 356.531 481.654 356.581 481.729C356.632 481.805 356.65 481.898 356.632 481.987V481.987C356.623 482.032 356.606 482.074 356.581 482.112C356.556 482.15 356.523 482.182 356.485 482.207C356.448 482.232 356.405 482.25 356.361 482.258C356.316 482.267 356.27 482.267 356.226 482.258V482.258Z" fill="#1775BB"/>
<path d="M357.965 488.7C357.877 488.724 357.783 488.711 357.705 488.666C357.626 488.62 357.568 488.545 357.544 488.457L356.976 486.299C356.946 486.183 356.946 486.062 356.977 485.946C357.008 485.83 357.069 485.725 357.153 485.64L358.724 484.055C358.756 484.023 358.793 483.998 358.835 483.98C358.877 483.963 358.921 483.954 358.966 483.954C359.012 483.953 359.056 483.962 359.098 483.979C359.14 483.996 359.178 484.021 359.21 484.053C359.242 484.085 359.268 484.123 359.285 484.164C359.303 484.206 359.312 484.251 359.312 484.296C359.312 484.341 359.303 484.386 359.286 484.428C359.269 484.469 359.244 484.507 359.212 484.54L357.781 485.983C357.739 486.025 357.708 486.078 357.692 486.136C357.677 486.194 357.676 486.254 357.691 486.312L358.209 488.281C358.232 488.368 358.22 488.462 358.174 488.541C358.128 488.619 358.053 488.677 357.965 488.7V488.7Z" fill="#1775BB"/>
<path d="M355.626 487.619L355.015 485.813C354.972 485.685 354.967 485.546 355.002 485.415C355.037 485.284 355.111 485.166 355.213 485.077L356.644 483.818C356.713 483.758 356.802 483.728 356.893 483.733C356.984 483.739 357.069 483.781 357.129 483.85V483.85C357.189 483.918 357.22 484.008 357.214 484.098C357.208 484.189 357.166 484.274 357.098 484.334L355.839 485.442C355.788 485.487 355.751 485.546 355.734 485.611C355.716 485.677 355.718 485.746 355.74 485.81L356.277 487.398C356.306 487.485 356.3 487.579 356.26 487.661C356.219 487.743 356.148 487.805 356.062 487.834C356.019 487.849 355.974 487.855 355.929 487.852C355.884 487.849 355.84 487.837 355.799 487.817C355.759 487.797 355.723 487.769 355.693 487.735C355.663 487.701 355.64 487.662 355.626 487.619V487.619Z" fill="#1775BB"/>
<path d="M359.445 487.958L359.029 486.921C358.973 486.783 358.964 486.631 359.003 486.487C359.041 486.343 359.125 486.216 359.242 486.124L360.121 485.434C360.193 485.378 360.284 485.353 360.374 485.364C360.465 485.375 360.547 485.421 360.603 485.493C360.66 485.564 360.685 485.655 360.674 485.746C360.663 485.836 360.617 485.919 360.545 485.975L359.869 486.506C359.81 486.552 359.768 486.615 359.749 486.687C359.73 486.759 359.734 486.835 359.762 486.904L360.083 487.702C360.117 487.787 360.115 487.881 360.08 487.965C360.044 488.049 359.976 488.115 359.892 488.149V488.149C359.807 488.183 359.713 488.182 359.629 488.146C359.545 488.11 359.479 488.042 359.445 487.958V487.958Z" fill="#1775BB"/>
<path d="M343.356 484.785C343.323 484.754 343.298 484.716 343.28 484.674C343.263 484.633 343.254 484.588 343.254 484.543C343.253 484.498 343.262 484.453 343.279 484.411C343.296 484.369 343.322 484.331 343.353 484.299L344.786 482.854C344.828 482.812 344.859 482.759 344.874 482.701C344.89 482.643 344.89 482.582 344.875 482.524L344.357 480.556C344.334 480.469 344.347 480.375 344.392 480.297C344.438 480.218 344.513 480.161 344.601 480.137V480.137C344.689 480.114 344.783 480.126 344.862 480.171C344.941 480.217 344.998 480.292 345.022 480.38L345.59 482.538C345.62 482.654 345.62 482.775 345.589 482.891C345.558 483.007 345.497 483.112 345.413 483.197L343.842 484.782C343.811 484.814 343.773 484.84 343.731 484.857C343.69 484.875 343.645 484.884 343.6 484.885C343.554 484.885 343.51 484.876 343.468 484.859C343.426 484.842 343.388 484.817 343.356 484.785Z" fill="#1775BB"/>
<path d="M341.962 483.344C341.906 483.273 341.881 483.182 341.892 483.091C341.902 483.001 341.949 482.918 342.02 482.862L342.697 482.331C342.755 482.285 342.797 482.222 342.816 482.15C342.836 482.078 342.831 482.002 342.803 481.933L342.483 481.135C342.449 481.051 342.45 480.956 342.486 480.872C342.522 480.788 342.589 480.722 342.674 480.688V480.688C342.758 480.654 342.853 480.655 342.937 480.691C343.021 480.727 343.087 480.795 343.121 480.879L343.537 481.916C343.592 482.054 343.602 482.206 343.563 482.35C343.524 482.494 343.44 482.621 343.323 482.713L342.445 483.403C342.373 483.459 342.282 483.484 342.192 483.473C342.101 483.463 342.019 483.416 341.962 483.344V483.344Z" fill="#1775BB"/>
<path d="M345.437 484.988C345.377 484.92 345.347 484.83 345.353 484.739C345.359 484.649 345.4 484.564 345.469 484.504L346.728 483.396C346.779 483.351 346.816 483.293 346.833 483.227C346.851 483.162 346.849 483.092 346.827 483.028L346.29 481.44C346.261 481.353 346.267 481.259 346.307 481.177C346.348 481.096 346.419 481.033 346.505 481.004C346.591 480.975 346.686 480.981 346.768 481.022C346.849 481.062 346.912 481.133 346.941 481.219L347.552 483.025C347.595 483.154 347.6 483.292 347.564 483.423C347.529 483.554 347.456 483.672 347.354 483.762L345.921 485.019C345.853 485.079 345.764 485.109 345.673 485.104C345.582 485.098 345.498 485.056 345.437 484.988Z" fill="#1775BB"/>
<path d="M350.27 488.605C350.223 488.617 350.174 488.62 350.126 488.612C350.079 488.604 350.033 488.587 349.992 488.56C349.952 488.533 349.917 488.499 349.891 488.458C349.865 488.417 349.848 488.371 349.841 488.323L349.52 486.162L347.558 485.733C347.496 485.719 347.44 485.689 347.394 485.645C347.348 485.602 347.316 485.547 347.299 485.486C347.283 485.425 347.284 485.361 347.302 485.3C347.319 485.24 347.353 485.185 347.4 485.143L348.885 483.79L348.082 481.758C348.058 481.697 348.052 481.63 348.064 481.566C348.077 481.502 348.107 481.442 348.152 481.395C348.198 481.347 348.256 481.314 348.319 481.298C348.383 481.282 348.45 481.285 348.512 481.306L350.643 482.027L352.128 480.337C352.171 480.288 352.228 480.252 352.291 480.234C352.354 480.215 352.42 480.216 352.483 480.234C352.546 480.253 352.603 480.289 352.646 480.338C352.689 480.388 352.717 480.449 352.726 480.514L353.047 482.675L355.009 483.104C355.071 483.117 355.128 483.148 355.173 483.191C355.219 483.235 355.251 483.29 355.268 483.351C355.284 483.412 355.283 483.476 355.266 483.536C355.248 483.597 355.214 483.651 355.167 483.694L353.683 485.046L354.485 487.079C354.51 487.14 354.516 487.206 354.503 487.271C354.491 487.335 354.46 487.394 354.415 487.442C354.37 487.489 354.312 487.523 354.248 487.539C354.184 487.554 354.117 487.552 354.055 487.53L351.924 486.809L350.439 488.499C350.395 488.55 350.336 488.587 350.27 488.605V488.605ZM351.728 486.078C351.794 486.061 351.863 486.063 351.928 486.085L353.573 486.64L352.956 485.077C352.93 485.012 352.925 484.941 352.941 484.873C352.957 484.806 352.993 484.744 353.044 484.697L354.213 483.633L352.669 483.296C352.601 483.281 352.539 483.245 352.491 483.195C352.444 483.144 352.413 483.08 352.402 483.011L352.155 481.348L351.008 482.652C350.963 482.703 350.904 482.74 350.839 482.757C350.773 482.775 350.704 482.773 350.639 482.751L348.996 482.195L349.613 483.758C349.639 483.823 349.644 483.894 349.628 483.962C349.612 484.03 349.576 484.091 349.525 484.138L348.355 485.203L349.9 485.541C349.968 485.556 350.03 485.591 350.077 485.641C350.125 485.692 350.156 485.756 350.166 485.825L350.413 487.488L351.559 486.184C351.603 486.133 351.663 486.096 351.728 486.078Z" fill="#1775BB"/>
</g>
<defs>
<linearGradient id="paint0_linear_76_1274" x1="259.244" y1="132.965" x2="259.244" y2="352.006" gradientUnits="userSpaceOnUse">
<stop stop-color="#79C4FC"/>
<stop offset="0.802083" stop-color="#C0E1FA" stop-opacity="0"/>
</linearGradient>
<clipPath id="clip0_76_1274">
<rect width="26" height="26" fill="white" transform="translate(168.02 21.0911) rotate(30)"/>
</clipPath>
<clipPath id="clip1_76_1274">
<rect width="22" height="22" fill="white" transform="translate(337.804 476.642) rotate(-15)"/>
</clipPath>
</defs>
</svg>
