<svg width="24" height="24" viewBox="0 0 24 24" fill="none" xmlns="http://www.w3.org/2000/svg">
<path fill-rule="evenodd" clip-rule="evenodd" d="M17.7829 2.99568C17.7402 3.01339 17.6943 3.02251 17.648 3.02251H6.10179C6.07126 3.01729 6.04355 3.00144 6.02358 2.97777C6.0036 2.95409 5.99265 2.92411 5.99265 2.89313C5.99265 2.86216 6.0036 2.83218 6.02358 2.8085C6.04355 2.78482 6.07126 2.76898 6.10179 2.76376L16.8755 1.67626C17.0163 1.65933 17.159 1.67237 17.2944 1.71453C17.4297 1.75668 17.5546 1.82699 17.6609 1.92085C17.7671 2.0147 17.8523 2.12997 17.9109 2.25909C17.9694 2.3882 18 2.52824 18.0005 2.67001C18.0005 2.7163 17.9914 2.76214 17.9737 2.8049C17.956 2.84767 17.93 2.88653 17.8973 2.91926C17.8646 2.952 17.8257 2.97796 17.7829 2.99568ZM3 19.3462V6.37498C3.00982 5.88422 3.21169 5.41689 3.56226 5.07333C3.91283 4.72977 4.38415 4.53738 4.875 4.53748H17.6625C18.1498 4.53748 18.6172 4.73107 18.9618 5.07567C19.3064 5.42027 19.5 5.88764 19.5 6.37498V20.685C19.5 21.1723 19.3064 21.6397 18.9618 21.9843C18.6172 22.3289 18.1498 22.5225 17.6625 22.5225H6.17625C5.33386 22.5225 4.52596 22.1878 3.9303 21.5922C3.33464 20.9965 3 20.1886 3 19.3462ZM8.65897 10.6797C8.42825 10.7858 8.22149 10.9378 8.05125 11.1262C7.73895 11.5032 7.58051 11.9842 7.60763 12.473C7.63474 12.9618 7.84542 13.4223 8.1975 13.7625L10.7625 16.3275C10.8252 16.3904 10.8997 16.4403 10.9818 16.4744C11.0638 16.5085 11.1518 16.526 11.2406 16.526C11.3295 16.526 11.4174 16.5085 11.4995 16.4744C11.5815 16.4403 11.656 16.3904 11.7188 16.3275L14.3438 13.7025C14.523 13.5226 14.6639 13.3081 14.7578 13.0722C14.8517 12.8362 14.8967 12.5836 14.89 12.3297C14.8834 12.0758 14.8252 11.8259 14.7191 11.5952C14.6129 11.3645 14.461 11.1577 14.2725 10.9875C13.8952 10.6714 13.4121 10.5104 12.9207 10.5368C12.4292 10.5633 11.9662 10.7753 11.625 11.13L11.25 11.5237L10.7662 11.055C10.5864 10.8757 10.3719 10.7348 10.1359 10.6409C9.89996 10.547 9.64737 10.502 9.39348 10.5087C9.13959 10.5153 8.8897 10.5735 8.65897 10.6797Z" fill="#9C9C9C"/>
</svg>
