<svg width="550" height="394" viewBox="0 0 550 394" fill="none" xmlns="http://www.w3.org/2000/svg">
<path d="M24.2954 368.87C24.2954 368.87 -6.98134 322.627 1.43933 283.354C9.86 244.081 33.3176 229.571 38.7309 200.737C44.1441 171.904 44.7456 134.839 62.7899 112.471C80.8342 90.1029 96.5651 92.9975 110.654 68.9948C124.742 44.9922 124.744 22.84 162.636 15.571C200.528 8.30205 210.152 21.1095 241.428 18.9161C272.705 16.7227 282.387 -3.20252 316.943 0.444592C351.499 4.09171 348.555 23.1332 368.973 33.1605C389.392 43.1877 416.617 28.7523 436.687 50.4054C456.757 72.0586 445.329 94.0754 460.366 114.945C475.403 135.815 511.491 137.137 521.716 167.753C531.941 198.369 520.513 215.118 527.731 239.223C534.949 263.328 549.384 266.981 549.986 304.852C550.587 342.723 531.941 374 531.941 374L24.2954 368.87Z" fill="#C5FFCA"/>
<path d="M271.5 394C418.132 394 537 384.598 537 373C537 361.402 418.132 352 271.5 352C124.868 352 6 361.402 6 373C6 384.598 124.868 394 271.5 394Z" fill="#C5FFCA"/>
<path d="M211.523 46.03C200.191 37.7211 179.658 47.1088 186.29 66.7583C193.136 87.0403 217.954 75.4767 221 66.2261C214.888 69.961 200.014 71.0285 196.649 61.2426C191.725 46.9191 206.211 44.1618 211.523 46.03Z" fill="white"/>
<path d="M102.404 85.8421C103.458 91.6381 188.372 94.6615 191.874 85.8421C195.375 77.0227 175.164 77.3902 175.164 77.3902C175.164 77.3902 180.467 70.5347 173.487 67.1009C159.296 60.1189 142.459 71.5106 142.459 71.5106C142.459 71.5106 136.58 62.4267 125.555 65.8662C114.531 69.3057 118.258 78.2484 118.258 78.2484C118.258 78.2484 100.935 77.7577 102.404 85.8421Z" fill="#F2E9E9"/>
<path d="M224.571 60.1511C223.898 73.3802 360.96 68.9705 360.96 58.6813C360.96 46.4898 338.211 51.6993 338.211 51.6993C338.211 51.6993 343.555 40.3076 329.958 33.693C316.362 27.0785 304.235 40.675 304.235 40.675C304.235 40.675 292.476 29.6508 276.307 34.428C260.138 39.2051 261.241 50.7315 261.241 50.7315C261.241 50.7315 225.207 47.6657 224.571 60.1511Z" fill="#F2E9E9"/>
<path d="M354.559 132.888C355.845 139.961 459.467 143.651 463.74 132.888C468.014 122.126 443.35 122.574 443.35 122.574C443.35 122.574 449.82 114.208 441.303 110.018C423.986 101.498 403.439 115.399 403.439 115.399C403.439 115.399 396.264 104.314 382.81 108.511C369.357 112.708 373.906 123.621 373.906 123.621C373.906 123.621 352.765 123.023 354.559 132.888Z" fill="#F2E9E9"/>
<path d="M121.605 85.6405C121.605 85.6405 120.951 83.2493 125.218 82.1221C127.715 81.4623 130.747 82.8189 130.747 82.8189C130.747 82.8189 131.053 77.5637 139.89 76.9236C147.977 76.3378 149.641 81.8614 149.641 81.8614C149.641 81.8614 151.667 75.6074 160.863 76.8817C170.059 78.1559 166.509 83.9461 166.509 83.9461C166.509 83.9461 173.869 80.5939 175.378 86.8411" stroke="#E6D8D6" stroke-width="2" stroke-miterlimit="10" stroke-linecap="round" stroke-linejoin="round"/>
<path d="M262.092 61.6996C262.092 61.6996 259.807 58.4998 263.007 56.8237C266.207 55.1476 270.625 58.1951 270.625 58.1951C270.625 58.1951 275.197 47.943 287.843 48.6502C300.49 49.3575 300.033 56.8237 300.033 56.8237C300.033 56.8237 307.188 49.0633 317.934 50.1246C328.679 51.1859 325.024 57.2808 325.024 57.2808C325.024 57.2808 331.317 54.2334 336.55 56.519C341.783 58.8046 336.902 60.9898 336.902 60.9898" stroke="#E6D8D6" stroke-width="2" stroke-miterlimit="10" stroke-linecap="round" stroke-linejoin="round"/>
<path d="M382.315 131.341C382.315 131.341 379.419 128.583 383.229 126.687C387.038 124.792 391.457 127.417 391.457 127.417C391.457 127.417 395.221 120.407 406.443 121.226C417.665 122.045 414.313 128.204 414.313 128.204C414.313 128.204 418.274 123.719 422.998 125.106C427.722 126.493 426.045 129.253 426.045 129.253C426.045 129.253 431.531 126.123 435.34 128.204C439.15 130.286 436.407 133.02 436.407 133.02" stroke="#E6D8D6" stroke-width="2" stroke-miterlimit="10" stroke-linecap="round" stroke-linejoin="round"/>
<path d="M66.5608 329.55C66.5608 330.188 66.5608 363.831 66.5608 363.831H81.3357L83.2442 331.623L66.5608 329.55Z" fill="#A87878"/>
<path d="M114.267 306.587C115.281 307.051 116.445 307.416 117.786 307.622C126.01 308.88 127.693 304.581 127.693 304.581C117.799 295.761 110.051 286.142 104.926 275.547C109.928 275.949 112.811 272.168 112.811 272.168C104.335 264.649 98.292 256.453 94.5049 247.63C95.0138 247.798 95.5462 247.916 96.1026 247.943C99.841 248.13 103.019 245.708 103.019 245.708C96.0719 238.808 91.3865 231.515 88.8746 223.844C89.6481 224.445 92.1444 226.197 94.6201 225.887C97.598 225.513 98.7195 223.083 98.7195 223.083C90.254 218.737 84.5445 211.98 81.7095 202.708C76.5713 211.752 70.7028 218.34 63.9519 221.961C63.9519 221.961 64.1388 222.709 66.5688 222.709C68.9988 222.709 70.868 221.213 70.868 221.213C70.868 221.213 69.3726 224.952 71.6157 225.513C71.6324 225.517 71.6527 225.517 71.6698 225.521C68.8579 232.408 63.8846 238.315 57.2226 243.457C57.2226 243.457 58.5204 246.51 63.0172 245.708C65.5241 245.26 67.6759 243.077 68.4753 242.173C61.3008 254.581 53.2734 265.125 43.7642 272.43C43.7642 272.43 48.846 275.805 56.1015 274.684C49.878 285.784 41.8606 295.274 31.2404 302.429C31.2404 302.429 36.848 306.077 43.7642 304.955C44.0785 304.904 44.3852 304.831 44.6923 304.759C36.7958 317.275 26.3367 329.415 13.6696 341.233C13.6696 341.233 19.6002 344.393 27.5019 341.233C34.276 338.524 39.0911 332.246 39.0911 332.246C39.0911 332.246 37.011 341.103 42.2688 342.486C49.5201 344.393 57.4096 334.676 57.4096 334.676C57.4096 334.676 53.8986 341.986 58.718 342.501C65.084 343.181 68.9988 335.797 68.9988 335.797C68.9988 335.797 70.1203 342.588 75.728 342.557C81.3357 342.526 81.8965 339.349 81.8965 339.349C81.8965 339.349 85.4578 345.868 95.5418 344.393C105.346 342.959 105.449 334.489 105.449 334.489C105.449 334.489 108.043 343.274 116.29 343.461C124.538 343.648 126.571 335.423 126.571 335.423C126.571 335.423 127.222 341.091 132.739 342.34C137.09 343.324 140.216 340.283 140.216 340.283C129.622 330.063 120.921 318.857 114.267 306.587Z" fill="#4BB4AD"/>
<path d="M13.6696 341.233C13.6696 341.233 19.6002 344.393 27.5019 341.233C34.276 338.524 39.0911 332.246 39.0911 332.246C39.0911 332.246 37.011 341.103 42.2688 342.486C49.5201 344.393 57.4095 334.676 57.4095 334.676C57.4095 334.676 53.8986 341.986 58.718 342.501C65.084 343.181 68.9988 335.797 68.9988 335.797C68.9988 335.797 70.1203 342.588 75.728 342.557C81.3357 342.527 81.8964 339.349 81.8964 339.349C81.8964 339.349 85.4578 345.868 95.5418 344.393C105.346 342.959 105.449 334.489 105.449 334.489C105.449 334.489 108.043 343.274 116.29 343.461C124.538 343.648 126.571 335.424 126.571 335.424C126.571 335.424 127.222 341.091 132.739 342.34C137.09 343.324 140.216 340.284 140.216 340.284" stroke="#258A86" stroke-width="2" stroke-miterlimit="10" stroke-linecap="round" stroke-linejoin="round"/>
<path d="M63.9518 221.961C63.9518 221.961 64.1387 222.709 66.5687 222.709C68.9987 222.709 70.8679 221.214 70.8679 221.214C70.8679 221.214 69.3725 224.952 71.6156 225.513C73.8587 226.073 78.9056 223.27 78.9056 223.27C78.9056 223.27 82.0833 226.634 85.0741 226.634C88.0648 226.634 88.6256 223.643 88.6256 223.643C88.6256 223.643 91.6422 226.26 94.62 225.887C97.5979 225.513 98.7195 223.083 98.7195 223.083" stroke="#258A86" stroke-width="2" stroke-miterlimit="10" stroke-linecap="round" stroke-linejoin="round"/>
<path d="M57.2227 243.457C57.2227 243.457 58.5204 246.51 63.0173 245.707C66.1951 245.14 68.8119 241.775 68.8119 241.775C68.8119 241.775 67.3165 247.383 71.4288 247.756C75.5411 248.13 79.2796 244.018 79.2796 244.018C79.2796 244.018 81.1488 249.252 85.0742 248.878C88.9996 248.504 89.5603 243.831 89.5603 243.831C89.5603 243.831 92.3642 247.756 96.1026 247.943C99.8411 248.13 103.019 245.707 103.019 245.707" stroke="#258A86" stroke-width="2" stroke-miterlimit="10" stroke-linecap="round" stroke-linejoin="round"/>
<path d="M43.7639 272.43C43.7639 272.43 49.3716 276.169 57.2224 274.487C65.0731 272.804 68.8116 266.391 68.8116 266.391C68.8116 266.391 68.4378 277.477 76.2885 277.851C84.1393 278.225 84.5131 269.414 84.5131 269.414C84.5131 269.414 84.5131 275.795 89.1862 275.982C93.8593 276.169 96.85 270.486 96.85 270.486C96.85 270.486 98.3532 274.397 103.953 275.421C109.553 276.445 112.81 272.168 112.81 272.168" stroke="#258A86" stroke-width="2" stroke-miterlimit="10" stroke-linecap="round" stroke-linejoin="round"/>
<path d="M31.2402 302.429C31.2402 302.429 36.8479 306.076 43.7641 304.955C50.6802 303.833 55.9141 297.478 55.9141 297.478C55.9141 297.478 50.6802 305.989 54.9794 307.622C59.2787 309.254 64.6994 302.429 64.6994 302.429C64.6994 302.429 65.2602 308.176 71.0548 307.874C76.8494 307.572 80.1206 300.095 80.1206 300.095C80.1206 300.095 79.4664 308.88 84.7002 308.88C89.934 308.88 92.1771 299.721 92.1771 299.721C92.1771 299.721 95.5417 307.858 102.084 307.622C108.626 307.385 107.879 299.16 107.879 299.16C107.879 299.16 109.561 306.363 117.786 307.622C126.01 308.88 127.692 304.581 127.692 304.581" stroke="#258A86" stroke-width="2" stroke-miterlimit="10" stroke-linecap="round" stroke-linejoin="round"/>
<path d="M98.5983 294.233V367.41H183.442V294.233L137.308 248.629L98.5983 294.233Z" fill="#DB915E"/>
<path d="M110.046 272.647V241.943L120.87 242.393V262.669L110.046 272.647Z" fill="#996666"/>
<path d="M98.5982 294.233C102.802 292.219 137.308 248.629 137.308 248.629C137.308 248.629 177.937 293.871 183.442 294.233C188.946 294.594 213.866 294.233 213.866 294.233L188.678 238.411C188.678 238.411 143.483 234.482 136.411 237.177C129.339 239.871 94.484 286.849 93.4737 290.048C92.4634 293.247 95.1352 295.891 98.5982 294.233Z" fill="#1E2633"/>
<path d="M153.995 245.007C155.417 251.438 163.456 251.438 165.829 245.562C168.72 252.34 179.153 253.488 182.377 247.78" stroke="#999999" stroke-width="2" stroke-miterlimit="10" stroke-linecap="round" stroke-linejoin="round"/>
<path d="M166.381 260C168.965 266.317 177.292 267.274 180.068 260.575C181.408 265.934 187.724 266.796 189.639 262.01" stroke="#999999" stroke-width="2" stroke-miterlimit="10" stroke-linecap="round" stroke-linejoin="round"/>
<path d="M177.962 273.694C177.962 273.694 182.03 280.106 188.921 274.842" stroke="#999999" stroke-width="2" stroke-miterlimit="10" stroke-linecap="round" stroke-linejoin="round"/>
<path d="M142.582 240.648L178.71 280.467" stroke="#999999" stroke-width="2" stroke-miterlimit="10" stroke-linecap="round" stroke-linejoin="round"/>
<path d="M179.957 240.911C179.569 240.911 171.504 243.331 163.842 241.987C156.181 240.643 153.895 239.298 149.191 239.164C144.486 239.03 136.555 240.911 134.808 235.669C133.061 230.427 143.545 229.755 146.234 229.755C148.922 229.755 154.702 231.368 158.062 230.427C161.423 229.486 162.229 226.529 171.907 226.125C181.586 225.722 189.382 229.62 189.382 229.62L179.957 240.911Z" fill="white"/>
<path d="M155.868 299.535H120.87V367.41H155.868V299.535Z" fill="#996666"/>
<path d="M148.922 341.966C150.204 341.966 151.242 340.23 151.242 338.088C151.242 335.946 150.204 334.21 148.922 334.21C147.641 334.21 146.603 335.946 146.603 338.088C146.603 340.23 147.641 341.966 148.922 341.966Z" fill="#303E4E"/>
<path d="M120.87 366.289V299.535H155.868V358.008" stroke="#303E4E" stroke-width="4" stroke-miterlimit="10" stroke-linecap="round" stroke-linejoin="round"/>
<path d="M107.178 236.379C105.759 236.685 105.535 242.041 106.818 243.478C108.101 244.914 121.992 245.514 122.857 244.692C123.722 243.869 124.125 238.868 123.42 237.777C122.714 236.685 109.435 235.892 107.178 236.379Z" fill="#A87878"/>
<path d="M147.816 277.958C146.859 278.206 146.854 281.859 147.768 282.801C148.681 283.744 158.155 283.768 158.721 283.184C159.288 282.6 159.423 279.184 158.913 278.46C158.402 277.736 149.34 277.565 147.816 277.958Z" fill="#F1AF78"/>
<path d="M139.818 269.387C138.851 269.596 138.698 273.245 139.572 274.224C140.447 275.203 149.912 275.612 150.501 275.052C151.091 274.491 151.366 271.084 150.885 270.34C150.404 269.596 141.356 269.056 139.818 269.387Z" fill="#F1AF78"/>
<path d="M101.476 358.214C100.518 358.462 100.514 362.115 101.427 363.057C102.34 364 111.815 364.024 112.381 363.44C112.947 362.856 113.083 359.44 112.572 358.716C112.062 357.992 102.999 357.821 101.476 358.214Z" fill="#F1AF78"/>
<path d="M99.602 348.607C99.1245 348.835 99.1961 352.485 99.6753 353.445C100.154 354.406 104.928 354.62 105.201 354.048C105.475 353.476 105.474 350.066 105.202 349.333C104.931 348.599 100.361 348.245 99.602 348.607Z" fill="#F1AF78"/>
<path d="M167.58 329.836C166.622 330.084 166.618 333.737 167.531 334.679C168.444 335.622 177.919 335.646 178.485 335.062C179.051 334.478 179.187 331.062 178.676 330.338C178.166 329.614 169.103 329.443 167.58 329.836Z" fill="#F1AF78"/>
<path d="M102.04 294.616C101.451 294.848 101.505 298.499 102.085 299.455C102.664 300.411 108.523 300.582 108.864 300.007C109.205 299.433 109.236 296.021 108.909 295.29C108.582 294.559 102.975 294.246 102.04 294.616Z" fill="#F1AF78"/>
<path d="M173.122 337.945C172.534 338.177 172.588 341.828 173.167 342.784C173.747 343.74 179.606 343.911 179.947 343.336C180.288 342.761 180.319 339.35 179.992 338.618C179.665 337.887 174.058 337.575 173.122 337.945Z" fill="#F1AF78"/>
<path d="M425.245 367.41V251.811H288.435L235.939 179.694L183.442 244.918V367.41H425.245Z" fill="#F1AF78"/>
<path d="M287.905 264.318V362.638" stroke="#CC7940" stroke-width="2" stroke-miterlimit="10" stroke-linecap="round" stroke-linejoin="round"/>
<path d="M256.18 284.485H210.508V367.41H256.18V284.485Z" fill="#996666"/>
<path d="M183.442 253.25C176.139 259.905 169.607 251.062 173.985 245.337C178.363 239.612 229.104 162.363 234.661 161.521C240.217 160.679 379.216 158.206 385.615 162.247C392.013 166.288 447.074 245.596 441.181 251.658C435.287 257.719 295.819 263.057 287.905 258.174C279.991 253.291 235.673 183.632 235.673 183.632C235.673 183.632 191.576 245.836 183.442 253.25Z" fill="#303E4E"/>
<path d="M246.627 336.53C248.572 336.53 250.149 334.247 250.149 331.432C250.149 328.616 248.572 326.333 246.627 326.333C244.682 326.333 243.106 328.616 243.106 331.432C243.106 334.247 244.682 336.53 246.627 336.53Z" fill="#303E4E"/>
<path d="M253.169 174.018C256.491 181.65 268.836 182.843 274.031 174.018C277.949 185.531 294.998 185.8 297.586 174.018C301.208 182.171 312.782 184.187 318.112 174.018C321.981 186.338 334.534 185.128 336.955 174.018C345.169 180.948 353.179 182.225 360.846 174.018C363.929 181.633 372.6 182.81 375.315 174.018C379.214 182.81 388.18 182.81 390.794 174.018" stroke="#999999" stroke-width="2" stroke-miterlimit="10" stroke-linecap="round" stroke-linejoin="round"/>
<path d="M268.983 193.885C273.981 201.167 285.151 200.586 288.678 191.849C293.822 201.167 307.785 201.817 311.753 191.849C314.105 201.817 328.361 204.35 331.889 191.849C337.22 200.683 343.996 200.63 352.024 192.867C359.226 200.301 373.335 198.167 375.981 190.227C378.039 198.704 390.794 198.301 393.471 190.227" stroke="#999999" stroke-width="2" stroke-miterlimit="10" stroke-linecap="round" stroke-linejoin="round"/>
<path d="M281.771 214.265C287.649 223.706 302.787 225.857 308.815 215.206C314.545 224.647 330.272 224.916 335.122 213.759C341.589 224.244 354.816 223.572 359.667 212.818C364.076 221.69 376.128 222.314 380.096 212.818C387.004 222.314 403.024 220.615 409.344 212.012" stroke="#999999" stroke-width="2" stroke-miterlimit="10" stroke-linecap="round" stroke-linejoin="round"/>
<path d="M238.943 168.922L290.662 243.911" stroke="#999999" stroke-width="2" stroke-miterlimit="10" stroke-linecap="round" stroke-linejoin="round"/>
<path d="M300.187 252.229C299.79 246.322 314.436 243.358 322.098 242.954C329.759 242.551 339.169 244.299 343.873 242.282C348.578 240.266 351.401 233.545 358.794 232.873C366.187 232.201 373.445 235.024 379.494 233.814C385.543 232.604 392.398 223.329 405.84 223.598C419.282 223.867 419.685 233.142 422.777 235.427C425.869 237.712 432.052 238.519 434.875 246.18C437.697 253.842 431.917 260.196 406.109 262.262C380.301 264.327 301.263 268.225 300.187 252.229Z" fill="white"/>
<path d="M386.276 158.648C386.741 154.098 366.814 151.523 354.985 150.314C343.156 149.104 336.032 147.222 329.983 147.088C323.935 146.953 320.709 148.969 315.332 148.432C309.955 147.894 307.804 143.189 298.261 143.055C288.717 142.921 277.964 151.927 268.689 152.196C259.414 152.464 247.585 153.136 246.241 158.648C244.897 164.159 257.263 165.369 262.505 164.696C267.748 164.024 277.695 160.529 284.281 161.202C290.868 161.874 309.283 169.67 320.709 168.863C332.134 168.057 351.222 164.024 361.169 163.756C371.115 163.487 385.575 165.503 386.276 158.648Z" fill="white"/>
<path d="M232.67 259.458C239.651 259.458 245.31 253.799 245.31 246.819C245.31 239.838 239.651 234.179 232.67 234.179C225.69 234.179 220.031 239.838 220.031 246.819C220.031 253.799 225.69 259.458 232.67 259.458Z" fill="#FFCC66"/>
<path d="M306.033 283.39L307.803 330.556H343.064L341.75 283.39H306.033Z" fill="#FFCC66"/>
<path d="M366.42 283.39L368.211 330.556H401.131L403.091 283.39H366.42Z" fill="#FFCC66"/>
<path d="M324.548 284.485L327.506 329.186" stroke="#303E4E" stroke-width="4" stroke-miterlimit="10" stroke-linecap="round" stroke-linejoin="round"/>
<path d="M307.803 300.92H340.873" stroke="#303E4E" stroke-width="4" stroke-miterlimit="10" stroke-linecap="round" stroke-linejoin="round"/>
<path d="M368.211 300.92H401.35" stroke="#303E4E" stroke-width="4" stroke-miterlimit="10" stroke-linecap="round" stroke-linejoin="round"/>
<path d="M384.781 284.485V329.186" stroke="#303E4E" stroke-width="4" stroke-miterlimit="10" stroke-linecap="round" stroke-linejoin="round"/>
<path d="M220.044 247.386H245.297" stroke="#303E4E" stroke-width="4" stroke-miterlimit="10" stroke-linecap="round" stroke-linejoin="round"/>
<path d="M232.67 234.179V259.458" stroke="#303E4E" stroke-width="4" stroke-miterlimit="10" stroke-linecap="round" stroke-linejoin="round"/>
<path d="M232.67 259.458C239.651 259.458 245.31 253.799 245.31 246.819C245.31 239.838 239.651 234.179 232.67 234.179C225.689 234.179 220.03 239.838 220.03 246.819C220.03 253.799 225.689 259.458 232.67 259.458Z" stroke="#303E4E" stroke-width="4" stroke-miterlimit="10" stroke-linecap="round" stroke-linejoin="round"/>
<path d="M306.033 283.39L307.803 330.556H343.064L341.749 283.39H306.033Z" stroke="#303E4E" stroke-width="4" stroke-miterlimit="10" stroke-linecap="round" stroke-linejoin="round"/>
<path d="M366.419 283.39L368.211 330.556H401.131L403.091 283.39H366.419Z" stroke="#303E4E" stroke-width="4" stroke-miterlimit="10" stroke-linecap="round" stroke-linejoin="round"/>
<path d="M210.508 365.367V284.485H256.18V366.025" stroke="#303E4E" stroke-width="4" stroke-miterlimit="10" stroke-linecap="round" stroke-linejoin="round"/>
<path d="M342.717 106.102C340.482 97.3655 336.55 93.7344 333.195 90.952L333.031 95.5606C331.201 91.3591 329.409 88.8217 329.409 88.8217L304.928 85.7851C304.928 85.7851 295.786 84.0378 287.456 92.6825C286.154 94.0336 285.038 95.4887 284.117 97.0109C283.932 97.2952 283.761 97.5822 283.619 97.8748C283.618 97.8774 283.617 97.8801 283.616 97.8827C281.07 102.527 280.289 107.715 281.497 112.448C281.601 116.041 281.971 118.698 281.971 118.698C299.347 132.233 316.631 140.47 333.678 134.96C333.678 134.96 334.09 134.601 335.498 125.473L338.552 128.45C338.552 128.45 346.331 120.232 342.717 106.102Z" fill="#FE434C"/>
<path d="M278.415 127.599C278.415 127.599 275.977 133.371 276.282 140.358C276.587 147.344 279.045 156.881 279.045 156.881L332.254 155.988L330.222 139.014L278.415 127.599Z" fill="#FE434C"/>
<path d="M275.165 127.027L280.94 121.237L333.27 136.576L336.55 144.601C336.55 144.601 326.656 145.629 309.566 143.053C286.136 139.522 275.165 127.027 275.165 127.027Z" fill="#FE434C"/>
<path d="M307.645 78.4671C307.553 78.078 307.2 69.7822 307.2 69.7822L301.681 78.083C301.681 78.083 301.448 65.5141 303.978 63.1871C306.509 60.8601 318.062 58.9917 321.584 59.9478C325.107 60.9038 330.226 72.4188 330.226 72.4188L307.645 78.4671Z" fill="#FE434C"/>
<path d="M311.143 81.5065L306.8 85.9504L312.686 91.6992L316.74 86.7884L311.143 81.5065Z" fill="#D47B75"/>
<path d="M281.971 120.222C281.971 120.222 306.512 136.576 336.55 134.849" stroke="#2F3A49" stroke-width="5" stroke-miterlimit="10" stroke-linecap="round" stroke-linejoin="round"/>
<path d="M318.734 132.315C318.734 132.315 319.292 146.125 298.77 140.357C279.578 134.964 274.294 128.45 274.294 128.45" stroke="#FBFAFE" stroke-width="5" stroke-miterlimit="10" stroke-linecap="round" stroke-linejoin="round"/>
<path d="M321.892 103.664C321.892 103.664 322.599 116.054 320.587 125.093" stroke="#FBFAFE" stroke-width="5" stroke-miterlimit="10" stroke-linecap="round" stroke-linejoin="round"/>
<path d="M336.55 144.601C336.55 144.601 330.527 148.178 320.944 144.804C316.43 143.214 314.642 140.357 314.642 140.357" stroke="#FBFAFE" stroke-width="5" stroke-miterlimit="10" stroke-linecap="round" stroke-linejoin="round"/>
<path d="M328.094 76.3848C328.094 76.3848 332.166 91.5582 323.207 92.6247C314.247 93.6912 309.566 79.6275 309.566 79.6275C309.566 79.6275 313.316 71.0608 320.261 71.1989C327.207 71.3371 328.094 76.3848 328.094 76.3848Z" fill="#EFA48F"/>
<path d="M326.958 81.0312C326.958 81.0312 326.238 80.557 325.024 80.9995" stroke="#1E2633" stroke-width="0.75" stroke-miterlimit="10" stroke-linecap="round" stroke-linejoin="round"/>
<path d="M319.867 80.9955C319.867 80.9955 319.148 80.5212 317.933 80.9637" stroke="#1E2633" stroke-width="0.75" stroke-miterlimit="10" stroke-linecap="round" stroke-linejoin="round"/>
<path d="M326.697 81.0212C326.697 81.0212 326.73 82.1316 326.197 82.1565C325.664 82.1813 325.858 80.9333 325.858 80.9333C325.858 80.9333 326.412 80.7722 326.697 81.0212Z" fill="#1E2633"/>
<path d="M319.606 80.9856C319.606 80.9856 319.64 82.0959 319.107 82.1208C318.574 82.1456 318.768 80.8977 318.768 80.8977C318.768 80.8977 319.321 80.7366 319.606 80.9856Z" fill="#1E2633"/>
<path d="M287.456 92.6826C279.127 101.327 278.416 114.228 287.456 121.745C296.497 129.262 304.269 123.675 305.767 120.933C307.265 118.19 306.361 112.298 300.159 108.54C293.958 104.781 298.021 99.194 298.021 99.194" stroke="#E1283A" stroke-width="2" stroke-miterlimit="10" stroke-linecap="round" stroke-linejoin="round"/>
<path d="M334.848 102.332C334.848 102.332 338.733 109.574 333.755 116.472" stroke="#E1283A" stroke-width="2" stroke-miterlimit="10" stroke-linecap="round" stroke-linejoin="round"/>
<path d="M307.2 69.7822L309.043 66.9863" stroke="#E1283A" stroke-width="2" stroke-miterlimit="10" stroke-linecap="round" stroke-linejoin="round"/>
<path d="M305.784 80.8284C304.525 79.4206 303.452 83.9687 303.357 85.7061C303.188 88.8217 312.295 94.0102 319.867 93.9889C331.506 93.9562 330.967 90.0985 330.967 90.0985C330.967 90.0985 312.393 88.2175 305.784 80.8284Z" fill="#FEFDFF"/>
<path d="M329.006 84.7137C329.006 84.7137 337.782 95.2833 334.09 98.9914C330.439 102.659 327.712 99.7961 327.712 99.7961C327.712 99.7961 327.265 108.727 322.746 109.537C312.404 111.391 313.91 98.1803 313.91 98.1803C313.91 98.1803 310.322 100.014 308.323 96.9056C303.956 90.1133 313 85.1356 311.283 78.0956L311.77 77.7541C311.77 77.7541 315.188 86.2789 323.366 86.5222C326.937 86.6284 329.006 84.7137 329.006 84.7137Z" fill="#FBFAFE"/>
<path d="M320.69 77.9593C319.962 77.4411 316.186 78.0085 315.589 78.5125C315.272 78.7807 315.148 79.2595 315.509 79.49C315.87 79.7205 320.039 79.6248 320.463 79.4766C320.886 79.3283 321.078 78.2355 320.69 77.9593Z" fill="#FBFAFE"/>
<path d="M328.706 78.0175C327.993 77.4731 324.884 78.1608 324.615 78.4612C324.345 78.7616 324.367 79.5231 324.742 79.6191C325.118 79.7151 328.533 79.7825 328.895 79.4651C329.16 79.2322 329.137 78.3459 328.706 78.0175Z" fill="#FBFAFE"/>
<path d="M308.596 80.0399C308.596 80.0399 313.956 76.9864 319.427 76.7493C324.898 76.5123 328.742 77.7681 328.742 77.7681C328.742 77.7681 331.935 77.7743 331.891 73.9166C331.846 70.059 326.035 68.9995 319.063 70.0776C312.091 71.1558 306.997 75.7607 307.025 79.1478C307.038 80.7517 308.596 80.0399 308.596 80.0399Z" fill="#FBFAFE"/>
<path d="M300.748 82.8188C302.376 82.8188 303.695 81.4991 303.695 79.8712C303.695 78.2433 302.376 76.9236 300.748 76.9236C299.12 76.9236 297.8 78.2433 297.8 79.8712C297.8 81.4991 299.12 82.8188 300.748 82.8188Z" fill="#FBFAFE"/>
<path d="M307.874 115.041C310.343 115.164 314.475 120.206 313.308 122.448C312.141 124.691 301.068 130.786 299.443 130.583C297.818 130.38 294.615 129.567 293.669 127.129C292.723 124.691 303.811 114.838 307.874 115.041Z" fill="#FBFAFE"/>
<path d="M327.683 118.495C325.627 120.421 331.931 135.459 335.749 135.459C339.568 135.459 342.209 132.828 342.412 130.588C342.615 128.348 335.301 115.853 332.66 116.057C330.019 116.26 329.308 116.971 327.683 118.495Z" fill="#FBFAFE"/>
<path d="M311.125 115.549L330.527 120.628L324.127 131.395C324.127 131.395 335.505 136.068 340.685 157.705C345.866 179.342 342.416 195.9 342.416 195.9C319.898 204.551 288.653 201.817 273.115 187.887C273.115 187.887 272.044 158.978 286.542 143.053C301.04 127.129 311.328 126.418 311.328 126.418L311.125 115.549Z" fill="#F1AF78"/>
<path d="M319.17 127.599L319.401 120.222" stroke="#CC7940" stroke-width="2" stroke-miterlimit="10" stroke-linecap="round" stroke-linejoin="round"/>
<path d="M315.289 118.228L315.97 127.599" stroke="#CC7940" stroke-width="2" stroke-miterlimit="10" stroke-linecap="round" stroke-linejoin="round"/>
<path d="M326.261 121.237L322.013 128.449" stroke="#CC7940" stroke-width="2" stroke-miterlimit="10" stroke-linecap="round" stroke-linejoin="round"/>
<path d="M313.511 128.45C313.511 128.45 317.279 132.195 324.127 131.395" stroke="#CC7940" stroke-width="2" stroke-miterlimit="10" stroke-linecap="round" stroke-linejoin="round"/>
<path d="M294.774 152.209C294.774 152.209 301.955 136.827 310.395 130.588" stroke="#CC7940" stroke-width="2" stroke-miterlimit="10" stroke-linecap="round" stroke-linejoin="round"/>
<path d="M333.398 164.661C333.398 164.661 332.386 149.25 324.127 133.02" stroke="#CC7940" stroke-width="2" stroke-miterlimit="10" stroke-linecap="round" stroke-linejoin="round"/>
<path d="M315.97 152.209C315.97 152.209 318.451 142.017 319.17 134.977" stroke="#CC7940" stroke-width="2" stroke-miterlimit="10" stroke-linecap="round" stroke-linejoin="round"/>
<path d="M280.94 172.892C280.94 172.892 286.928 191.544 316.723 193.885" stroke="#CC7940" stroke-width="2" stroke-miterlimit="10" stroke-linecap="round" stroke-linejoin="round"/>
<path d="M292.874 181.335C292.874 181.335 300.538 187.341 313.511 186.572" stroke="#CC7940" stroke-width="2" stroke-miterlimit="10" stroke-linecap="round" stroke-linejoin="round"/>
<path d="M311.244 121.948C311.549 122.253 317.109 124.095 317.876 126.628C318.642 129.161 317.163 130.176 317.163 130.176C317.163 130.176 319.308 133.325 316.74 135.56C314.172 137.795 309.493 136.982 306.398 133.02C303.303 129.059 303.562 128.729 303.562 128.729C305.198 125.354 307.753 123.086 311.244 121.948Z" fill="#E1283A"/>
<path d="M329.229 122.813C329.229 122.813 324.331 122.22 322.908 124.319C321.486 126.418 324.331 127.599 324.331 127.599C324.331 127.599 319.004 130.075 321.058 133.63C323.112 137.185 331.746 136.372 334.997 133.02C338.247 129.668 329.229 122.813 329.229 122.813Z" fill="#E1283A"/>
<path d="M310.417 84.3483C308.696 83.2291 306.799 81.9635 305.784 80.8284C304.524 79.4206 303.452 83.9687 303.357 85.7061C303.291 86.9305 304.916 88.6313 307.728 90.4781" stroke="#CCCCCC" stroke-width="0.75" stroke-miterlimit="10" stroke-linecap="round" stroke-linejoin="round"/>
<path d="M312.09 78.467C312.09 78.467 315.188 86.2787 323.366 86.522C326.937 86.6283 329.006 84.7136 329.006 84.7136C329.006 84.7136 337.782 95.2831 334.09 98.9913C330.44 102.658 327.712 99.7959 327.712 99.7959C327.712 99.7959 327.265 108.726 322.746 109.536C312.404 111.391 313.91 98.1801 313.91 98.1801C313.91 98.1801 310.626 99.7963 308.323 96.9054C304.176 91.6992 312.948 83.367 311.414 78.7564" stroke="#CCCCCC" stroke-width="0.75" stroke-miterlimit="10" stroke-linecap="round" stroke-linejoin="round"/>
<path d="M308.596 80.0399C308.596 80.0399 313.956 76.9864 319.427 76.7493C324.898 76.5123 328.742 77.7681 328.742 77.7681C328.742 77.7681 331.935 77.7743 331.891 73.9166C331.846 70.059 326.035 68.9995 319.063 70.0776C312.091 71.1558 306.997 75.7607 307.025 79.1478C307.038 80.7517 308.596 80.0399 308.596 80.0399Z" stroke="#CCCCCC" stroke-width="0.75" stroke-miterlimit="10" stroke-linecap="round" stroke-linejoin="round"/>
<path d="M300.748 82.8188C302.376 82.8188 303.695 81.4991 303.695 79.8712C303.695 78.2433 302.376 76.9236 300.748 76.9236C299.12 76.9236 297.8 78.2433 297.8 79.8712C297.8 81.4991 299.12 82.8188 300.748 82.8188Z" stroke="#CCCCCC" stroke-width="0.75" stroke-miterlimit="10" stroke-linecap="round" stroke-linejoin="round"/>
<path d="M308.818 84.1969C310.502 84.1969 311.868 82.8311 311.868 81.1463C311.868 79.4615 310.502 78.0957 308.818 78.0957C307.133 78.0957 305.767 79.4615 305.767 81.1463C305.767 82.8311 307.133 84.1969 308.818 84.1969Z" fill="#EFA48F"/>
<path d="M321.284 88.8151C321.284 88.8151 319.704 88.9843 319.401 87.6133" stroke="#D47B75" stroke-width="0.75" stroke-miterlimit="10" stroke-linecap="round" stroke-linejoin="round"/>
<path d="M323.665 82.285C323.665 82.285 325.591 83.619 325.024 85.0233C324.305 86.8046 322.163 86.2313 321.284 85.3555" stroke="#D47B75" stroke-width="0.75" stroke-miterlimit="10" stroke-linecap="round" stroke-linejoin="round"/>
<path d="M328.673 81.4058L327.788 81.5586C327.788 81.5586 328.512 81.9971 328.47 82.1853C328.427 82.3735 327.712 82.2777 327.712 82.2777L328.214 83.1793" stroke="#D47B75" stroke-width="0.75" stroke-miterlimit="10" stroke-linecap="round" stroke-linejoin="round"/>
<path d="M315.97 81.1515L317.231 81.2279C317.231 81.2279 316.045 81.8416 316.086 82.0992C316.127 82.3567 317.294 82.1345 317.294 82.1345L316.418 82.9254" stroke="#D47B75" stroke-width="0.75" stroke-miterlimit="10" stroke-linecap="round" stroke-linejoin="round"/>
<path d="M308.342 80.352C309.501 80.2545 310.255 80.8367 310.524 82.0001C309.804 81.4176 309.089 81.2235 308.382 81.6824" stroke="#D47B75" stroke-width="0.75" stroke-miterlimit="10" stroke-linecap="round" stroke-linejoin="round"/>
<path d="M293.586 266.279C292.619 266.487 292.466 270.137 293.34 271.116C294.214 272.095 303.68 272.504 304.269 271.943C304.859 271.383 305.133 267.975 304.653 267.231C304.172 266.488 295.124 265.948 293.586 266.279Z" fill="#DB915E"/>
<path d="M301.851 273.523C300.884 273.731 300.731 277.38 301.605 278.359C302.479 279.339 311.945 279.747 312.534 279.187C313.124 278.626 313.398 275.219 312.918 274.475C312.437 273.731 303.389 273.191 301.851 273.523Z" fill="#DB915E"/>
<path d="M310.602 262.81C309.645 263.06 309.652 266.713 310.568 267.653C311.484 268.593 320.958 268.589 321.522 268.004C322.087 267.418 322.213 264.002 321.7 263.28C321.188 262.557 312.124 262.412 310.602 262.81Z" fill="#DB915E"/>
<path d="M361.069 335.422C360.112 335.672 360.118 339.325 361.035 340.265C361.951 341.205 371.425 341.201 371.989 340.616C372.554 340.03 372.68 336.614 372.167 335.892C371.654 335.169 362.591 335.024 361.069 335.422Z" fill="#DB915E"/>
<path d="M353.296 344.104C352.338 344.354 352.345 348.007 353.261 348.947C354.177 349.887 363.651 349.883 364.216 349.298C364.78 348.712 364.906 345.296 364.393 344.574C363.881 343.851 354.818 343.706 353.296 344.104Z" fill="#DB915E"/>
<path d="M401.093 267.901C400.135 268.152 400.142 271.804 401.058 272.744C401.974 273.684 411.448 273.681 412.013 273.095C412.577 272.509 412.703 269.093 412.19 268.371C411.678 267.649 402.615 267.503 401.093 267.901Z" fill="#DB915E"/>
<path d="M195.047 359.196C194.09 359.446 194.096 363.099 195.012 364.039C195.928 364.979 205.403 364.975 205.967 364.39C206.531 363.804 206.657 360.388 206.145 359.666C205.632 358.943 196.569 358.798 195.047 359.196Z" fill="#DB915E"/>
<path d="M290.694 359.232C289.737 359.482 289.743 363.135 290.659 364.075C291.575 365.015 301.05 365.011 301.614 364.426C302.179 363.84 302.305 360.424 301.792 359.702C301.279 358.98 292.216 358.834 290.694 359.232Z" fill="#DB915E"/>
<path d="M189.135 350.364C188.178 350.614 188.184 354.267 189.1 355.207C190.016 356.147 199.49 356.143 200.055 355.557C200.619 354.972 200.745 351.555 200.233 350.833C199.72 350.111 190.657 349.966 189.135 350.364Z" fill="#DB915E"/>
<path d="M195.205 341.776C194.248 342.027 194.254 345.68 195.17 346.62C196.086 347.56 205.561 347.556 206.125 346.97C206.689 346.385 206.815 342.968 206.303 342.246C205.79 341.524 196.727 341.378 195.205 341.776Z" fill="#DB915E"/>
<path d="M187.688 254.605C186.731 254.855 186.738 258.508 187.654 259.448C188.57 260.388 198.044 260.384 198.608 259.799C199.173 259.213 199.299 255.797 198.786 255.074C198.274 254.352 189.21 254.207 187.688 254.605Z" fill="#DB915E"/>
<path d="M193.245 262.81C192.288 263.06 192.294 266.713 193.21 267.653C194.126 268.593 203.6 268.589 204.165 268.004C204.729 267.418 204.855 264.002 204.343 263.28C203.83 262.557 194.767 262.412 193.245 262.81Z" fill="#DB915E"/>
<path d="M201.117 244.128C200.16 244.378 200.167 248.031 201.083 248.971C201.999 249.911 211.473 249.907 212.037 249.322C212.602 248.736 212.728 245.32 212.215 244.598C211.703 243.876 202.639 243.73 201.117 244.128Z" fill="#DB915E"/>
<path d="M234.719 203.247C233.762 203.497 233.768 207.15 234.684 208.09C235.6 209.03 245.074 209.026 245.639 208.441C246.203 207.855 246.329 204.439 245.817 203.717C245.304 202.994 236.241 202.849 234.719 203.247Z" fill="#DB915E"/>
<path d="M228.648 195.481C227.691 195.732 227.698 199.384 228.614 200.324C229.53 201.264 239.004 201.261 239.568 200.675C240.133 200.089 240.259 196.673 239.746 195.951C239.234 195.229 230.17 195.083 228.648 195.481Z" fill="#DB915E"/>
<path d="M391.514 353.271C390.556 353.522 390.563 357.174 391.479 358.114C392.395 359.054 401.869 359.051 402.434 358.465C402.998 357.879 403.124 354.463 402.611 353.741C402.099 353.019 393.036 352.873 391.514 353.271Z" fill="#DB915E"/>
<path d="M333.365 147.182C333.365 147.182 329.828 198.924 333.365 203.213C336.902 207.502 367.512 206.125 371.559 203.213C375.606 200.301 371.559 147.182 371.559 147.182H333.365Z" fill="#996666"/>
<path d="M333.254 142.022C329.529 142.5 328.941 150.868 332.308 153.113C335.675 155.358 372.128 156.296 374.398 155.011C376.668 153.725 377.725 145.912 375.874 144.206C374.023 142.501 339.177 141.262 333.254 142.022Z" fill="#A87878"/>
<path d="M357.088 197.611C356.131 197.861 356.137 201.514 357.053 202.454C357.969 203.394 367.444 203.39 368.008 202.805C368.572 202.219 368.699 198.803 368.186 198.08C367.673 197.358 358.61 197.213 357.088 197.611Z" fill="#A87878"/>
<path d="M351.018 187.911C350.061 188.162 350.067 191.814 350.983 192.755C351.899 193.695 361.373 193.691 361.938 193.105C362.502 192.52 362.628 189.103 362.116 188.381C361.603 187.659 352.54 187.513 351.018 187.911Z" fill="#A87878"/>
<path d="M337.066 158.65C336.109 158.9 336.115 162.553 337.031 163.493C337.947 164.433 347.421 164.429 347.986 163.843C348.55 163.258 348.676 159.841 348.164 159.119C347.651 158.397 338.588 158.251 337.066 158.65Z" fill="#A87878"/>
<path d="M361.353 170.115C360.566 170.358 360.599 174.01 361.362 174.957C362.124 175.903 369.935 175.972 370.396 175.391C370.857 174.81 370.935 171.396 370.507 170.67C370.078 169.944 362.605 169.729 361.353 170.115Z" fill="#A87878"/>
<path d="M448.018 329.554V364.276H466.047V328.313L448.018 329.554Z" fill="#A87878"/>
<path d="M488.887 283.379C490.42 284.765 492.345 286.019 494.576 286.479C500.514 287.702 505.551 286.479 505.551 286.479C492.848 275.156 484.325 262.758 479.433 249.426C480.576 250.169 482.021 250.847 483.811 251.25C488.583 252.325 494.576 250.934 494.576 250.934C479.533 238.714 470.364 223.912 465.882 207.05C467.561 208.162 469.565 209.218 471.615 209.66C477.749 210.985 480.099 207.214 480.099 207.214C465.332 195.682 456.45 182.286 452.471 167.337C447.5 183.192 438.065 197.118 422.036 208.192C422.036 208.192 424.43 211.8 431.05 209.416C437.294 207.166 439.8 201.587 439.8 201.587C439.8 201.587 439.213 204.215 439.594 206.69C435.428 222.927 426.92 237.52 413.552 250.271C413.552 250.271 418.058 250.264 423.627 248.559C426.292 247.743 428.485 246.064 429.78 244.893C423.878 261.266 414.712 276.245 401.886 289.659C401.886 289.659 409.84 291.372 415.408 288.681C420.975 285.99 422.036 282.809 422.036 282.809C422.036 282.809 421.765 286.517 423.266 289.054C417.208 304.602 405.589 321.174 388.895 336.631C388.895 336.631 395.442 339.253 403.913 336.631C410.368 334.634 414.2 329.784 416.271 326.249C414.053 330.718 411.461 337.348 416.468 338.045C423.892 339.078 430.52 328.313 430.52 328.313C430.52 328.313 428.664 336.631 435.027 336.387C441.39 336.142 442.981 326.074 442.981 326.074C442.981 326.074 443.511 335.163 449.344 335.163C455.177 335.163 457.298 329.334 457.298 329.334C457.298 329.334 460.745 336.876 467.373 336.876C474.001 336.876 472.941 327.09 472.941 327.09C472.941 327.09 477.713 334.674 484.076 335.653C490.439 336.631 489.113 323.42 489.113 323.42C489.113 323.42 492.03 332.717 498.393 332.595C504.548 332.476 501.524 325.059 501.32 324.575C501.433 324.844 503.595 329.858 509.528 332.595C515.626 335.408 521.989 332.595 521.989 332.595C507.397 317.007 496.019 300.681 488.887 283.379ZM417.69 323.519C418.13 322.56 418.324 322.022 418.324 322.197C418.324 322.317 418.073 322.8 417.69 323.519Z" fill="#4BB4AD"/>
<path d="M422.036 208.192C422.036 208.192 424.43 211.8 431.05 209.416C437.294 207.166 439.8 201.587 439.8 201.587C439.8 201.587 437.944 209.905 442.981 210.884C448.019 211.862 449.874 204.523 449.874 204.523C449.874 204.523 451.995 211.308 456.503 210.973C461.01 210.639 461.54 203.544 461.54 203.544C461.54 203.544 466.452 208.545 471.615 209.66C477.749 210.985 480.099 207.214 480.099 207.214" stroke="#258A86" stroke-width="2" stroke-miterlimit="10" stroke-linecap="round" stroke-linejoin="round"/>
<path d="M413.552 250.271C413.552 250.271 418.058 250.265 423.627 248.559C427.956 247.233 431.048 243.627 431.048 243.627C431.048 243.627 428.037 249.255 432.725 250.375C437.413 251.495 444.307 241.953 444.307 241.953C444.307 241.953 442.981 252.177 448.814 252.325C454.647 252.473 457.298 243.627 457.298 243.627C457.298 243.627 462.601 253.156 468.433 252.325C474.266 251.495 475.857 245.817 475.857 245.817C475.857 245.817 478.051 249.953 483.811 251.25C488.583 252.325 494.576 250.934 494.576 250.934" stroke="#258A86" stroke-width="2" stroke-miterlimit="10" stroke-linecap="round" stroke-linejoin="round"/>
<path d="M401.886 289.659C401.886 289.659 409.84 291.372 415.408 288.681C420.976 285.989 422.036 282.809 422.036 282.809C422.036 282.809 421.422 291.127 427.074 291.372C432.725 291.616 442.186 279.873 442.186 279.873C442.186 279.873 440.172 289.659 445.553 289.904C450.935 290.148 454.064 282.564 454.064 282.564C454.064 282.564 456.768 288.925 462.601 288.925C468.433 288.925 468.168 282.564 468.168 282.564C468.168 282.564 474.001 290.148 482.485 289.414C490.969 288.681 484.871 278.405 484.871 278.405C484.871 278.405 488.638 285.256 494.576 286.479C500.514 287.702 505.551 286.479 505.551 286.479" stroke="#258A86" stroke-width="2" stroke-miterlimit="10" stroke-linecap="round" stroke-linejoin="round"/>
<path d="M388.895 336.631C388.895 336.631 395.442 339.253 403.913 336.631C414.947 333.217 418.324 321.463 418.324 322.197C418.324 322.931 409.045 337.012 416.468 338.045C423.892 339.078 430.52 328.313 430.52 328.313C430.52 328.313 428.664 336.631 435.027 336.387C441.39 336.142 442.981 326.074 442.981 326.074C442.981 326.074 443.511 335.163 449.344 335.163C455.177 335.163 457.298 329.334 457.298 329.334C457.298 329.334 460.745 336.876 467.373 336.876C474.001 336.876 472.941 327.09 472.941 327.09C472.941 327.09 477.713 334.674 484.076 335.653C490.439 336.631 489.113 323.42 489.113 323.42C489.113 323.42 492.03 332.717 498.393 332.595C504.756 332.472 501.309 324.549 501.309 324.549C501.309 324.549 503.43 329.782 509.528 332.595C515.626 335.408 521.989 332.595 521.989 332.595" stroke="#258A86" stroke-width="2" stroke-miterlimit="10" stroke-linecap="round" stroke-linejoin="round"/>
<path d="M98.5982 347.741C98.5982 347.741 85.8974 346.861 76.2226 349.72C66.5478 352.578 68.5268 355.876 63.2496 356.536C57.9724 357.196 48.2976 357.745 48.2976 362.638C48.2976 367.53 98.5982 367.41 98.5982 367.41V347.741Z" fill="white"/>
<path d="M183.442 346.861C183.442 346.861 173.191 345.982 166.155 350.599C159.118 355.217 160.313 358.075 155.868 359.615C151.422 361.154 146.87 363.332 147.717 367.41C148.564 371.488 183.442 367.41 183.442 367.41V346.861Z" fill="white"/>
<path d="M517.089 364.276C522.743 363.106 514.153 352.044 506.08 351.31C498.007 350.576 496.294 350.576 493.603 349.842C490.912 349.108 480.148 337.885 469.138 338.114C458.129 338.344 445.163 350.343 438.069 351.193C430.974 352.044 422.656 350.099 416.784 351.193C410.913 352.288 405.847 361.829 402.753 362.563C399.659 363.297 395.012 362.764 395.011 365.499C395.009 373.809 488.71 370.147 517.089 364.276Z" fill="white"/>
<path d="M115.865 229.692C115.865 229.692 106.496 222.447 106.828 213.636C107.16 204.825 121.859 205.927 122.962 196.005C124.064 186.083 118.552 157.421 136.926 135.372C155.299 113.324 183.656 114.426 195.201 128.758C206.746 143.089 196.029 161.83 189.261 166.607C182.492 171.385 163.738 171.385 154.742 179.101C145.745 186.818 157.504 197.126 150.155 206.304C142.805 215.481 131.781 210.588 122.962 215.607C114.142 220.626 115.865 229.692 115.865 229.692Z" fill="white"/>
<path d="M354.716 123.368C354.716 123.368 343.249 105.774 348.644 91.9337C354.039 78.0933 364.803 79.97 371.371 64.253C375.22 55.0447 384.273 44.0789 397.175 50.6472C410.077 57.2155 409.843 74.7243 394.36 82.5079C378.878 90.2916 369.546 86.0995 361.236 94.2431C353.778 101.552 354.247 109.187 354.716 123.368Z" fill="white"/>
<path d="M117.133 116.054C118.058 116.054 118.808 115.304 118.808 114.379C118.808 113.454 118.058 112.703 117.133 112.703C116.208 112.703 115.458 113.454 115.458 114.379C115.458 115.304 116.208 116.054 117.133 116.054Z" fill="white"/>
<path d="M20.1207 275.629C22.2675 275.629 24.0078 273.889 24.0078 271.742C24.0078 269.595 22.2675 267.855 20.1207 267.855C17.9739 267.855 16.2336 269.595 16.2336 271.742C16.2336 273.889 17.9739 275.629 20.1207 275.629Z" fill="white"/>
<path d="M507.954 265C510.67 265 512.873 262.798 512.873 260.082C512.873 257.365 510.67 255.163 507.954 255.163C505.237 255.163 503.035 257.365 503.035 260.082C503.035 262.798 505.237 265 507.954 265Z" fill="white"/>
<path d="M423.577 162.171C425.285 162.171 426.669 160.787 426.669 159.079C426.669 157.372 425.285 155.988 423.577 155.988C421.87 155.988 420.486 157.372 420.486 159.079C420.486 160.787 421.87 162.171 423.577 162.171Z" fill="white"/>
<path d="M199.083 299.37C201.623 299.37 203.681 297.311 203.681 294.772C203.681 292.232 201.623 290.174 199.083 290.174C196.544 290.174 194.485 292.232 194.485 294.772C194.485 297.311 196.544 299.37 199.083 299.37Z" fill="white"/>
<path d="M39.587 356.442C42.2512 356.442 44.411 354.283 44.411 351.618C44.411 348.954 42.2512 346.794 39.587 346.794C36.9228 346.794 34.7631 348.954 34.7631 351.618C34.7631 354.283 36.9228 356.442 39.587 356.442Z" fill="white"/>
<path d="M428.578 316.974C431.34 316.974 433.579 314.735 433.579 311.974C433.579 309.212 431.34 306.973 428.578 306.973C425.816 306.973 423.578 309.212 423.578 311.974C423.578 314.735 425.816 316.974 428.578 316.974Z" fill="white"/>
<path d="M371.377 276.547C372.704 276.547 373.78 275.472 373.78 274.145C373.78 272.818 372.704 271.742 371.377 271.742C370.05 271.742 368.974 272.818 368.974 274.145C368.974 275.472 370.05 276.547 371.377 276.547Z" fill="white"/>
<path d="M250.484 131.209L261.812 138.939" stroke="white" stroke-width="2" stroke-miterlimit="10" stroke-linecap="round" stroke-linejoin="round"/>
<path d="M250.776 138.453L261.812 131.209" stroke="white" stroke-width="2" stroke-miterlimit="10" stroke-linecap="round" stroke-linejoin="round"/>
<path d="M256.367 128.535L256.116 141.419" stroke="white" stroke-width="2" stroke-miterlimit="10" stroke-linecap="round" stroke-linejoin="round"/>
<path d="M174.627 183.765L177.128 194.553" stroke="white" stroke-width="2" stroke-miterlimit="10" stroke-linecap="round" stroke-linejoin="round"/>
<path d="M170.838 188.227L181.356 189.961" stroke="white" stroke-width="2" stroke-miterlimit="10" stroke-linecap="round" stroke-linejoin="round"/>
<path d="M179.584 185.394L172.388 192.91" stroke="white" stroke-width="2" stroke-miterlimit="10" stroke-linecap="round" stroke-linejoin="round"/>
<path d="M71.2147 251.524L85.2025 261.07" stroke="white" stroke-width="2" stroke-miterlimit="10" stroke-linecap="round" stroke-linejoin="round"/>
<path d="M71.5748 260.469L85.2024 251.524" stroke="white" stroke-width="2" stroke-miterlimit="10" stroke-linecap="round" stroke-linejoin="round"/>
<path d="M78.4787 248.222L78.1692 264.132" stroke="white" stroke-width="2" stroke-miterlimit="10" stroke-linecap="round" stroke-linejoin="round"/>
<path d="M454.147 249.382L455.967 259.298" stroke="white" stroke-width="2" stroke-miterlimit="10" stroke-linecap="round" stroke-linejoin="round"/>
<path d="M450.514 253.281L460.005 255.3" stroke="white" stroke-width="2" stroke-miterlimit="10" stroke-linecap="round" stroke-linejoin="round"/>
<path d="M458.587 251.073L451.726 257.605" stroke="white" stroke-width="2" stroke-miterlimit="10" stroke-linecap="round" stroke-linejoin="round"/>
<path d="M306.87 343.249L309.719 355.236" stroke="white" stroke-width="2" stroke-miterlimit="10" stroke-linecap="round" stroke-linejoin="round"/>
<path d="M302.682 348.237L314.395 350.101" stroke="white" stroke-width="2" stroke-miterlimit="10" stroke-linecap="round" stroke-linejoin="round"/>
<path d="M312.396 345.031L304.435 353.438" stroke="white" stroke-width="2" stroke-miterlimit="10" stroke-linecap="round" stroke-linejoin="round"/>
<path d="M487.32 174.9L504.549 186.657" stroke="white" stroke-width="2" stroke-miterlimit="10" stroke-linecap="round" stroke-linejoin="round"/>
<path d="M487.764 185.918L504.549 174.9" stroke="white" stroke-width="2" stroke-miterlimit="10" stroke-linecap="round" stroke-linejoin="round"/>
<path d="M496.268 170.833L495.886 190.429" stroke="white" stroke-width="2" stroke-miterlimit="10" stroke-linecap="round" stroke-linejoin="round"/>
<path d="M77.6791 149.621L84.6298 171.2" stroke="white" stroke-width="2" stroke-miterlimit="10" stroke-linecap="round" stroke-linejoin="round"/>
<path d="M70.7144 159.374L92.4681 161.108" stroke="white" stroke-width="2" stroke-miterlimit="10" stroke-linecap="round" stroke-linejoin="round"/>
<path d="M88.0707 152.095L74.6786 168.662" stroke="white" stroke-width="2" stroke-miterlimit="10" stroke-linecap="round" stroke-linejoin="round"/>
<path d="M530.943 294.634L533.132 306.558" stroke="white" stroke-width="2" stroke-miterlimit="10" stroke-linecap="round" stroke-linejoin="round"/>
<path d="M526.574 299.322L537.988 301.751" stroke="white" stroke-width="2" stroke-miterlimit="10" stroke-linecap="round" stroke-linejoin="round"/>
<path d="M536.282 296.667L528.031 304.522" stroke="white" stroke-width="2" stroke-miterlimit="10" stroke-linecap="round" stroke-linejoin="round"/>
<path d="M201.935 107.863L232.32 108.399" stroke="white" stroke-width="2" stroke-miterlimit="10" stroke-linecap="round" stroke-linejoin="round"/>
<path d="M199.934 105.486L202.28 108.042L199.355 110.118" stroke="white" stroke-width="2" stroke-miterlimit="10" stroke-linecap="round" stroke-linejoin="round"/>
<path d="M234.671 110.752L232.152 108.356L234.925 106.092" stroke="white" stroke-width="2" stroke-miterlimit="10" stroke-linecap="round" stroke-linejoin="round"/>
<path d="M203.68 103.98L207.614 108.267L202.708 111.749" stroke="white" stroke-width="2" stroke-miterlimit="10" stroke-linecap="round" stroke-linejoin="round"/>
<path d="M230.507 112.258L226.284 108.24L230.934 104.443" stroke="white" stroke-width="2" stroke-miterlimit="10" stroke-linecap="round" stroke-linejoin="round"/>
<path d="M209.33 120.773L224.974 95.49" stroke="white" stroke-width="2" stroke-miterlimit="10" stroke-linecap="round" stroke-linejoin="round"/>
<path d="M206.212 121.264L209.662 120.572L210.054 124.072" stroke="white" stroke-width="2" stroke-miterlimit="10" stroke-linecap="round" stroke-linejoin="round"/>
<path d="M228.245 94.6919L224.851 95.6099L224.216 92.1436" stroke="white" stroke-width="2" stroke-miterlimit="10" stroke-linecap="round" stroke-linejoin="round"/>
<path d="M206.739 117.36L212.525 116.199L213.182 122.069" stroke="white" stroke-width="2" stroke-miterlimit="10" stroke-linecap="round" stroke-linejoin="round"/>
<path d="M227.51 98.9471L221.819 100.487L220.753 94.6738" stroke="white" stroke-width="2" stroke-miterlimit="10" stroke-linecap="round" stroke-linejoin="round"/>
<path d="M224.671 121.044L209.928 95.2247" stroke="white" stroke-width="2" stroke-miterlimit="10" stroke-linecap="round" stroke-linejoin="round"/>
<path d="M227.77 121.644L224.346 120.831L223.831 124.315" stroke="white" stroke-width="2" stroke-miterlimit="10" stroke-linecap="round" stroke-linejoin="round"/>
<path d="M206.687 94.3119L210.046 95.3489L210.804 91.9072" stroke="white" stroke-width="2" stroke-miterlimit="10" stroke-linecap="round" stroke-linejoin="round"/>
<path d="M227.382 117.724L221.639 116.36L220.776 122.203" stroke="white" stroke-width="2" stroke-miterlimit="10" stroke-linecap="round" stroke-linejoin="round"/>
<path d="M207.272 98.5901L212.905 100.329L214.175 94.5576" stroke="white" stroke-width="2" stroke-miterlimit="10" stroke-linecap="round" stroke-linejoin="round"/>
<path d="M222.15 108.22C222.197 105.54 219.998 103.328 217.238 103.279C214.478 103.231 212.202 105.364 212.155 108.044C212.107 110.724 214.307 112.936 217.067 112.984C219.827 113.033 222.102 110.9 222.15 108.22Z" stroke="white" stroke-width="2" stroke-miterlimit="10" stroke-linecap="round" stroke-linejoin="round"/>
<path d="M252.747 276.373L283.024 276.907" stroke="white" stroke-width="2" stroke-miterlimit="10" stroke-linecap="round" stroke-linejoin="round"/>
<path d="M250.753 274.004L253.091 276.551L250.176 278.62" stroke="white" stroke-width="2" stroke-miterlimit="10" stroke-linecap="round" stroke-linejoin="round"/>
<path d="M285.366 279.252L282.856 276.865L285.62 274.608" stroke="white" stroke-width="2" stroke-miterlimit="10" stroke-linecap="round" stroke-linejoin="round"/>
<path d="M254.486 272.504L258.406 276.776L253.517 280.245" stroke="white" stroke-width="2" stroke-miterlimit="10" stroke-linecap="round" stroke-linejoin="round"/>
<path d="M281.217 280.752L277.009 276.749L281.643 272.965" stroke="white" stroke-width="2" stroke-miterlimit="10" stroke-linecap="round" stroke-linejoin="round"/>
<path d="M260.116 289.237L275.704 264.044" stroke="white" stroke-width="2" stroke-miterlimit="10" stroke-linecap="round" stroke-linejoin="round"/>
<path d="M257.008 289.726L260.447 289.037L260.837 292.524" stroke="white" stroke-width="2" stroke-miterlimit="10" stroke-linecap="round" stroke-linejoin="round"/>
<path d="M278.964 263.249L275.582 264.164L274.948 260.71" stroke="white" stroke-width="2" stroke-miterlimit="10" stroke-linecap="round" stroke-linejoin="round"/>
<path d="M257.533 285.836L263.299 284.679L263.954 290.528" stroke="white" stroke-width="2" stroke-miterlimit="10" stroke-linecap="round" stroke-linejoin="round"/>
<path d="M278.231 267.489L272.56 269.023L271.498 263.231" stroke="white" stroke-width="2" stroke-miterlimit="10" stroke-linecap="round" stroke-linejoin="round"/>
<path d="M275.402 289.506L260.712 263.78" stroke="white" stroke-width="2" stroke-miterlimit="10" stroke-linecap="round" stroke-linejoin="round"/>
<path d="M278.49 290.105L275.078 289.294L274.565 292.766" stroke="white" stroke-width="2" stroke-miterlimit="10" stroke-linecap="round" stroke-linejoin="round"/>
<path d="M257.482 262.87L260.829 263.903L261.584 260.474" stroke="white" stroke-width="2" stroke-miterlimit="10" stroke-linecap="round" stroke-linejoin="round"/>
<path d="M278.103 286.199L272.381 284.839L271.521 290.662" stroke="white" stroke-width="2" stroke-miterlimit="10" stroke-linecap="round" stroke-linejoin="round"/>
<path d="M258.064 267.133L263.678 268.866L264.943 263.115" stroke="white" stroke-width="2" stroke-miterlimit="10" stroke-linecap="round" stroke-linejoin="round"/>
<path d="M272.89 276.728C272.937 274.058 270.745 271.854 267.995 271.806C265.245 271.757 262.977 273.883 262.93 276.553C262.883 279.223 265.074 281.427 267.825 281.476C270.575 281.524 272.843 279.399 272.89 276.728Z" stroke="white" stroke-width="2" stroke-miterlimit="10" stroke-linecap="round" stroke-linejoin="round"/>
<path d="M44.3661 305.708L75.7896 306.262" stroke="white" stroke-width="2" stroke-miterlimit="10" stroke-linecap="round" stroke-linejoin="round"/>
<path d="M42.2976 303.25L44.7234 305.893L41.6981 308.04" stroke="white" stroke-width="2" stroke-miterlimit="10" stroke-linecap="round" stroke-linejoin="round"/>
<path d="M78.2204 308.696L75.6156 306.218L78.4835 303.876" stroke="white" stroke-width="2" stroke-miterlimit="10" stroke-linecap="round" stroke-linejoin="round"/>
<path d="M46.1716 301.693L50.2397 306.126L45.1661 309.727" stroke="white" stroke-width="2" stroke-miterlimit="10" stroke-linecap="round" stroke-linejoin="round"/>
<path d="M73.9149 310.253L69.5468 306.098L74.3562 302.171" stroke="white" stroke-width="2" stroke-miterlimit="10" stroke-linecap="round" stroke-linejoin="round"/>
<path d="M52.0145 319.059L68.1921 292.912" stroke="white" stroke-width="2" stroke-miterlimit="10" stroke-linecap="round" stroke-linejoin="round"/>
<path d="M48.7893 319.567L52.3576 318.851L52.7628 322.47" stroke="white" stroke-width="2" stroke-miterlimit="10" stroke-linecap="round" stroke-linejoin="round"/>
<path d="M71.5756 292.087L68.0659 293.036L67.4086 289.452" stroke="white" stroke-width="2" stroke-miterlimit="10" stroke-linecap="round" stroke-linejoin="round"/>
<path d="M49.334 315.529L55.3184 314.329L55.9978 320.399" stroke="white" stroke-width="2" stroke-miterlimit="10" stroke-linecap="round" stroke-linejoin="round"/>
<path d="M70.8153 296.487L64.9295 298.08L63.8273 292.068" stroke="white" stroke-width="2" stroke-miterlimit="10" stroke-linecap="round" stroke-linejoin="round"/>
<path d="M67.8789 319.339L52.6329 292.638" stroke="white" stroke-width="2" stroke-miterlimit="10" stroke-linecap="round" stroke-linejoin="round"/>
<path d="M71.084 319.96L67.5431 319.119L67.0106 322.722" stroke="white" stroke-width="2" stroke-miterlimit="10" stroke-linecap="round" stroke-linejoin="round"/>
<path d="M49.2809 291.694L52.755 292.766L53.5383 289.207" stroke="white" stroke-width="2" stroke-miterlimit="10" stroke-linecap="round" stroke-linejoin="round"/>
<path d="M70.6822 315.906L64.7439 314.495L63.8508 320.538" stroke="white" stroke-width="2" stroke-miterlimit="10" stroke-linecap="round" stroke-linejoin="round"/>
<path d="M49.8854 296.118L55.7114 297.917L57.0249 291.948" stroke="white" stroke-width="2" stroke-miterlimit="10" stroke-linecap="round" stroke-linejoin="round"/>
<path d="M65.2718 306.077C65.3207 303.305 63.0464 301.018 60.1921 300.967C57.3377 300.917 54.9843 303.123 54.9354 305.895C54.8865 308.666 57.1608 310.954 60.0151 311.004C62.8695 311.054 65.2229 308.848 65.2718 306.077Z" stroke="white" stroke-width="2" stroke-miterlimit="10" stroke-linecap="round" stroke-linejoin="round"/>
<path d="M466.343 306.732L497.349 307.279" stroke="white" stroke-width="2" stroke-miterlimit="10" stroke-linecap="round" stroke-linejoin="round"/>
<path d="M464.302 304.306L466.696 306.914L463.711 309.033" stroke="white" stroke-width="2" stroke-miterlimit="10" stroke-linecap="round" stroke-linejoin="round"/>
<path d="M499.748 309.68L497.178 307.235L500.008 304.924" stroke="white" stroke-width="2" stroke-miterlimit="10" stroke-linecap="round" stroke-linejoin="round"/>
<path d="M468.125 302.77L472.139 307.144L467.132 310.697" stroke="white" stroke-width="2" stroke-miterlimit="10" stroke-linecap="round" stroke-linejoin="round"/>
<path d="M495.5 311.216L491.19 307.116L495.935 303.241" stroke="white" stroke-width="2" stroke-miterlimit="10" stroke-linecap="round" stroke-linejoin="round"/>
<path d="M473.89 319.905L489.853 294.106" stroke="white" stroke-width="2" stroke-miterlimit="10" stroke-linecap="round" stroke-linejoin="round"/>
<path d="M470.708 320.406L474.229 319.7L474.628 323.272" stroke="white" stroke-width="2" stroke-miterlimit="10" stroke-linecap="round" stroke-linejoin="round"/>
<path d="M493.191 293.291L489.728 294.228L489.08 290.691" stroke="white" stroke-width="2" stroke-miterlimit="10" stroke-linecap="round" stroke-linejoin="round"/>
<path d="M471.245 316.422L477.15 315.238L477.821 321.228" stroke="white" stroke-width="2" stroke-miterlimit="10" stroke-linecap="round" stroke-linejoin="round"/>
<path d="M492.441 297.633L486.633 299.204L485.546 293.273" stroke="white" stroke-width="2" stroke-miterlimit="10" stroke-linecap="round" stroke-linejoin="round"/>
<path d="M489.544 320.181L474.5 293.835" stroke="white" stroke-width="2" stroke-miterlimit="10" stroke-linecap="round" stroke-linejoin="round"/>
<path d="M492.706 320.794L489.213 319.964L488.687 323.519" stroke="white" stroke-width="2" stroke-miterlimit="10" stroke-linecap="round" stroke-linejoin="round"/>
<path d="M471.193 292.904L474.621 293.962L475.393 290.45" stroke="white" stroke-width="2" stroke-miterlimit="10" stroke-linecap="round" stroke-linejoin="round"/>
<path d="M492.31 316.794L486.45 315.402L485.569 321.364" stroke="white" stroke-width="2" stroke-miterlimit="10" stroke-linecap="round" stroke-linejoin="round"/>
<path d="M471.789 297.269L477.538 299.044L478.834 293.154" stroke="white" stroke-width="2" stroke-miterlimit="10" stroke-linecap="round" stroke-linejoin="round"/>
<path d="M486.971 307.095C487.019 304.361 484.775 302.104 481.959 302.054C479.142 302.004 476.82 304.181 476.772 306.916C476.724 309.65 478.968 311.907 481.784 311.957C484.601 312.007 486.923 309.83 486.971 307.095Z" stroke="white" stroke-width="2" stroke-miterlimit="10" stroke-linecap="round" stroke-linejoin="round"/>
</svg>
