<svg width="32" height="32" viewBox="0 0 32 32" fill="none" xmlns="http://www.w3.org/2000/svg">
<circle cx="16" cy="16" r="16" fill="#C5FFCA"/>
<path d="M16.6567 13.194L16.3129 13.5549L15.8798 13.1253C15.7149 12.9609 15.5183 12.8318 15.302 12.7457C15.0857 12.6596 14.8541 12.6184 14.6214 12.6245C14.3887 12.6306 14.1596 12.6839 13.9481 12.7812C13.7366 12.8785 13.5471 13.0178 13.391 13.1906C13.1013 13.5364 12.9537 13.9793 12.9779 14.4298C13.0022 14.8802 13.1965 15.3047 13.5217 15.6174L15.866 17.9687C15.9235 18.0264 15.9918 18.0722 16.067 18.1034C16.1422 18.1346 16.2229 18.1507 16.3043 18.1507C16.3857 18.1507 16.4664 18.1346 16.5416 18.1034C16.6168 18.0722 16.6851 18.0264 16.7426 17.9687L19.1488 15.5624C19.3132 15.3975 19.4423 15.201 19.5284 14.9847C19.6145 14.7684 19.6557 14.5368 19.6496 14.3041C19.6435 14.0713 19.5902 13.8423 19.4929 13.6308C19.3956 13.4193 19.2563 13.2298 19.0835 13.0737C18.739 12.7827 18.2968 12.6332 17.8464 12.6556C17.3959 12.6779 16.9707 12.8703 16.6567 13.194Z" fill="#46C531"/>
<path d="M24.666 21.1244C24.5977 20.989 24.5624 20.8394 24.5629 20.6878V9.65687C24.5629 9.21744 24.3883 8.79601 24.0776 8.48529C23.7669 8.17456 23.3454 8 22.906 8H9.71975C9.28032 8 8.85889 8.17456 8.54816 8.48529C8.23744 8.79601 8.06288 9.21744 8.06288 9.65687V20.6912C8.06324 20.8428 8.02791 20.9924 7.95975 21.1278L7.12788 22.7812C7.02741 22.98 6.98478 23.203 7.00483 23.4248C7.02489 23.6467 7.10682 23.8584 7.24131 24.0359C7.36312 24.1862 7.51804 24.3063 7.69395 24.3868C7.86987 24.4673 8.06201 24.5061 8.25538 24.5H14.2951C14.3648 24.498 14.433 24.4784 14.4931 24.4429C14.5532 24.4075 14.6034 24.3573 14.6388 24.2972C14.7275 24.1478 14.8539 24.0244 15.0053 23.9393C15.1568 23.8542 15.3279 23.8105 15.5016 23.8125H17.1241C17.2961 23.8123 17.4651 23.8569 17.6146 23.9419C17.7641 24.0269 17.8889 24.1493 17.9766 24.2972C18.0121 24.3573 18.0622 24.4075 18.1223 24.4429C18.1825 24.4784 18.2506 24.498 18.3204 24.5H24.3704C24.564 24.504 24.7559 24.4633 24.9312 24.3811C25.1065 24.2988 25.2604 24.1771 25.381 24.0256C25.514 23.8495 25.5954 23.6398 25.6161 23.42C25.6367 23.2003 25.5958 22.9791 25.4979 22.7812L24.666 21.1244ZM22.6035 19.6291C22.6044 19.8248 22.528 20.013 22.3909 20.1527C22.2538 20.2924 22.067 20.3723 21.8713 20.375H10.7544C10.5575 20.375 10.3687 20.2968 10.2294 20.1575C10.0902 20.0183 10.0119 19.8294 10.0119 19.6325V11.0388C10.0119 10.9105 10.0372 10.7836 10.0863 10.6652C10.1353 10.5467 10.2072 10.4391 10.2979 10.3484C10.3885 10.2578 10.4962 10.1859 10.6146 10.1368C10.733 10.0878 10.86 10.0625 10.9882 10.0625H21.6444C21.9031 10.0634 22.1509 10.1666 22.3338 10.3494C22.5166 10.5323 22.6198 10.7801 22.6207 11.0388L22.6035 19.6291Z" fill="#46C531"/>
<path d="M13.8207 18.3125H11.8647C11.7736 18.3125 11.6861 18.3487 11.6217 18.4132C11.5572 18.4776 11.521 18.5651 11.521 18.6562C11.521 18.7474 11.5572 18.8349 11.6217 18.8993C11.6861 18.9638 11.7736 19 11.8647 19H13.8207C13.9119 19 13.9993 18.9638 14.0638 18.8993C14.1282 18.8349 14.1644 18.7474 14.1644 18.6562C14.1644 18.5651 14.1282 18.4776 14.0638 18.4132C13.9993 18.3487 13.9119 18.3125 13.8207 18.3125Z" fill="#46C531"/>
<path d="M11.8647 17.2812H12.3494C12.4406 17.2812 12.528 17.245 12.5925 17.1806C12.657 17.1161 12.6932 17.0287 12.6932 16.9375C12.6932 16.8463 12.657 16.7589 12.5925 16.6944C12.528 16.63 12.4406 16.5938 12.3494 16.5938H11.8647C11.7736 16.5938 11.6861 16.63 11.6217 16.6944C11.5572 16.7589 11.521 16.8463 11.521 16.9375C11.521 17.0287 11.5572 17.1161 11.6217 17.1806C11.6861 17.245 11.7736 17.2812 11.8647 17.2812Z" fill="#46C531"/>
</svg>
