<svg width="24" height="24" viewBox="0 0 24 24" fill="none" xmlns="http://www.w3.org/2000/svg">
<path fill-rule="evenodd" clip-rule="evenodd" d="M16.3315 4.06125C16.3315 5.47579 15.1848 6.6225 13.7702 6.6225C12.3557 6.6225 11.209 5.47579 11.209 4.06125C11.209 2.64671 12.3557 1.5 13.7702 1.5C15.1848 1.5 16.3315 2.64671 16.3315 4.06125ZM9 9C10.2426 9 11.25 7.99264 11.25 6.75C11.25 5.50736 10.2426 4.5 9 4.5C7.75736 4.5 6.75 5.50736 6.75 6.75C6.75 7.99264 7.75736 9 9 9ZM18.4467 16.5L15.1167 11.16C15.0465 11.0456 15.0049 10.9159 14.9954 10.782C14.9859 10.648 15.0087 10.5138 15.0621 10.3906C15.1154 10.2673 15.1976 10.1588 15.3018 10.074C15.4059 9.98931 15.529 9.9309 15.6605 9.90375C16.7072 9.6607 17.7883 9.60107 18.8555 9.7275C19.0496 9.75807 19.2239 9.86359 19.341 10.0214C19.4581 10.1792 19.5087 10.3766 19.4817 10.5713C19.3627 11.2704 19.52 11.9884 19.9205 12.5738C20.1484 12.8859 20.4388 13.1471 20.7732 13.3408C21.1077 13.5345 21.4788 13.6564 21.863 13.6988C21.9835 13.7187 22.0974 13.7678 22.1947 13.8418C22.292 13.9158 22.3697 14.0125 22.4211 14.1234C22.4725 14.2343 22.496 14.3561 22.4896 14.4782C22.4831 14.6002 22.447 14.7189 22.3842 14.8238C21.4919 16.3465 21.1653 18.1352 21.4617 19.875C21.4842 20.0128 21.4678 20.1542 21.4144 20.2832C21.3609 20.4122 21.2725 20.5237 21.159 20.6052C21.0456 20.6866 20.9117 20.7348 20.7724 20.7443C20.6331 20.7537 20.4939 20.7241 20.3705 20.6588C18.8284 19.8007 17.0331 19.5139 15.3005 19.8488C15.1802 19.8758 15.0551 19.8728 14.9363 19.84C14.8175 19.8072 14.7086 19.7456 14.6192 19.6607C14.5299 19.5758 14.4628 19.4702 14.424 19.3532C14.3852 19.2362 14.3758 19.1115 14.3967 18.99C14.4878 18.613 14.4991 18.2212 14.43 17.8395C14.3609 17.4579 14.2129 17.0949 13.9955 16.7738C13.8958 16.6377 13.7828 16.5121 13.658 16.3988C13.9377 16.2436 14.1649 16.0086 14.3105 15.7238C14.4056 15.5402 14.4629 15.3394 14.479 15.1333C14.4951 14.9271 14.4697 14.7199 14.4042 14.5238C14.1553 13.7849 13.8258 13.0756 13.4217 12.4088C13.0992 11.8725 13.8492 11.295 14.2505 11.775L18.1955 16.6763C18.2199 16.7068 18.255 16.7269 18.2937 16.7325C18.3325 16.7381 18.3719 16.7286 18.4039 16.7062C18.4359 16.6837 18.4582 16.6499 18.4661 16.6116C18.4741 16.5733 18.4671 16.5334 18.4467 16.5ZM3.4352 22.0743C3.36053 21.9346 3.32686 21.7767 3.33808 21.6187C3.45773 19.6334 2.87348 17.6695 1.68808 16.0725C1.60507 15.9652 1.54939 15.8394 1.52585 15.7058C1.50231 15.5722 1.5116 15.4349 1.55294 15.3058C1.59427 15.1766 1.66641 15.0594 1.76312 14.9643C1.85983 14.8692 1.97822 14.7991 2.10808 14.76C2.53634 14.6672 2.94045 14.4859 3.29438 14.2275C3.64831 13.9692 3.94423 13.6396 4.16308 13.26C4.5407 12.5548 4.62945 11.7305 4.41058 10.9612C4.38235 10.8551 4.3754 10.7444 4.39013 10.6356C4.40486 10.5267 4.44098 10.4219 4.4964 10.3271C4.55182 10.2323 4.62545 10.1494 4.71306 10.0832C4.80066 10.0169 4.9005 9.96868 5.00683 9.9412C6.19282 9.66776 7.41738 9.60304 8.62558 9.74995C8.77393 9.76645 8.91623 9.81798 9.04073 9.90031C9.16523 9.98263 9.26838 10.0934 9.34164 10.2234C9.4149 10.3535 9.45619 10.4991 9.46209 10.6482C9.46799 10.7974 9.43834 10.9458 9.37558 11.0812L6.28558 17.4825C6.26271 17.5227 6.25677 17.5704 6.26907 17.6151C6.28138 17.6598 6.31093 17.6977 6.3512 17.7206C6.39148 17.7435 6.4392 17.7494 6.48386 17.7371C6.52852 17.7248 6.56646 17.6952 6.58933 17.655L10.3993 11.655C10.48 11.5287 10.5897 11.4235 10.7192 11.3482C10.8488 11.2728 10.9944 11.2295 11.1441 11.2218C11.2937 11.2141 11.443 11.2423 11.5796 11.3039C11.7162 11.3655 11.8361 11.4589 11.9293 11.5762C12.6916 12.5242 13.283 13.5977 13.6768 14.7487C13.7098 14.8536 13.7218 14.964 13.7119 15.0735C13.702 15.183 13.6705 15.2894 13.6193 15.3867C13.568 15.484 13.498 15.5702 13.4133 15.6402C13.3285 15.7103 13.2308 15.7629 13.1256 15.795C12.3585 16.0233 11.7103 16.5411 11.3181 17.2387C11.1135 17.6248 10.9919 18.0494 10.9609 18.4853C10.9299 18.9212 10.9902 19.3587 11.1381 19.77C11.1787 19.9036 11.1852 20.0454 11.1569 20.1822C11.1287 20.3191 11.0666 20.4466 10.9763 20.5533C10.8861 20.66 10.7706 20.7423 10.6403 20.7928C10.51 20.8433 10.3691 20.8604 10.2306 20.8425C8.25021 20.68 6.2759 21.2203 4.65433 22.3687C4.52415 22.4589 4.37112 22.5104 4.2129 22.5174C4.05468 22.5244 3.89771 22.4865 3.76011 22.4081C3.62251 22.3296 3.50987 22.2139 3.4352 22.0743ZM13.1704 10.5C14.1024 10.5 14.8579 9.74448 14.8579 8.8125C14.8579 7.88052 14.1024 7.125 13.1704 7.125C12.2384 7.125 11.4829 7.88052 11.4829 8.8125C11.4829 9.74448 12.2384 10.5 13.1704 10.5ZM18.0037 7.73625C18.0037 8.43627 17.4363 9.00375 16.7363 9.00375C16.0362 9.00375 15.4688 8.43627 15.4688 7.73625C15.4688 7.03623 16.0362 6.46875 16.7363 6.46875C17.4363 6.46875 18.0037 7.03623 18.0037 7.73625Z" fill="#EF5D5D"/>
</svg>
