<svg width="257" height="133" viewBox="0 0 257 133" fill="none" xmlns="http://www.w3.org/2000/svg">
<g opacity="0.55">
<path fill-rule="evenodd" clip-rule="evenodd" d="M237.806 0.427047C239.613 1.01597 241.232 2.77613 241.655 4.61294C242.973 10.3209 239.321 12.838 236.385 14.8611L236.38 14.8645C235.696 15.3338 235.052 15.7783 234.498 16.2365C233.805 16.8098 233.31 17.4096 233.119 17.8739C233.629 17.7243 234.15 17.5788 234.672 17.4332C236.747 16.8539 238.83 16.2727 240.188 15.426C242.227 17.0825 240.978 22.9541 236.35 23.4079C236.934 24.0254 237.27 24.3036 237.57 24.5527C237.949 24.8667 238.272 25.1343 238.967 25.9765C240.323 27.6203 241.881 33.6325 242.489 36.4586C242.727 37.5645 242.878 37.3758 243.314 36.8298C243.816 36.2011 244.697 35.0986 246.524 34.9537C247.346 34.8881 250.038 35.3337 251.681 36.0191C253.361 36.7177 256.007 40.5038 256.108 41.8637C256.108 41.8637 253.688 40.8419 252.799 40.8606C252.593 40.645 252.518 40.2734 252.438 39.8794C252.271 39.0553 252.084 38.1329 250.637 38.3329C248.77 37.2438 246.904 37.0977 246.511 37.482C245.707 38.2669 245.126 39.0719 244.547 39.8733C243.84 40.8533 243.136 41.8281 242.034 42.7542C242.41 43.2219 242.738 43.6032 243.057 43.9743L243.058 43.9752L243.058 43.9753L243.058 43.9756L243.058 43.9757L243.058 43.9759C243.477 44.4625 243.881 44.9318 244.357 45.5555C244.451 45.6777 244.551 45.804 244.654 45.9332C245.38 46.8448 246.226 47.9067 245.521 48.7736L245.38 48.9467C244.181 50.4233 242.137 52.9415 240.041 53.7271C237.644 54.6259 234.047 54.3496 233.832 54.2713C234.336 52.2454 235.667 51.5192 236.616 51.4833C238.739 53.362 241.947 50.3733 243.467 48.0931C241.893 46.537 238.751 44.1504 236.728 45.454C234.909 46.6264 233.8 47.6395 232.536 48.7935C231.834 49.4345 231.085 50.1189 230.14 50.8983C229.449 51.4684 229.291 52.9948 229.223 54.0761C229.09 56.235 228.515 57.4796 226.895 58.1887C225.33 58.8736 221.572 59.9902 220.666 60.2449C220.57 60.6858 220.361 61.5239 220.116 62.5079C219.588 64.6235 218.892 67.4133 218.794 68.3791C218.517 71.114 216.445 72.8039 214.598 74.3099L214.597 74.3103C214.253 74.5915 213.916 74.8662 213.6 75.1401C213.542 74.6743 213.975 73.4825 214.377 72.3747L214.377 72.3745L214.377 72.3743L214.377 72.3741C214.761 71.3185 215.116 70.3394 214.993 70.1381C217.152 70.1638 217.012 68.5107 216.882 66.9723L216.882 66.9701C216.87 66.8261 216.858 66.6833 216.848 66.5428C216.834 66.3487 216.978 66.0547 217.186 65.6295C217.544 64.9001 218.09 63.7845 218.353 62.1237C218.693 59.9637 218.245 59.4961 217.879 59.3362C216.332 58.6602 214.915 59.1619 214.482 61.2122C214.334 61.908 214.214 62.629 214.093 63.3548C213.82 64.9907 213.543 66.6507 212.943 68.1006C212.541 69.0739 209.219 71.4908 209.046 71.3458C209.19 70.9402 209.257 70.2564 209.327 69.5433C209.427 68.5298 209.533 67.4571 209.872 67.0402C210.224 66.6073 210.57 66.3291 210.885 66.0761C211.674 65.4413 212.266 64.9653 212.266 62.6023C212.555 61.7807 212.843 60.6748 213.121 59.6032L213.121 59.603C213.595 57.7821 214.042 56.0601 214.432 55.999C214.743 55.9504 215.626 56.1193 216.557 56.2974C217.478 56.4733 218.445 56.6581 218.953 56.6513C219.748 56.6403 221.406 54.5029 219.083 49.3907C219.083 49.3907 218.393 49.1227 217.285 48.665C216.484 48.3337 216.054 47.884 215.68 47.4931C215.538 47.344 215.404 47.2034 215.26 47.0813C217.937 46.0986 218.989 46.2652 218.989 46.2652C219.69 44.8487 222.006 41.7846 224.818 39.0204C217.022 44.075 205.543 53.2272 192.326 69.1803C193.526 71.4441 194.776 74.4529 194.656 76.4486C194.556 78.115 196.401 74.8401 196.45 74.753C197.899 71.8337 200.762 71.8326 204.102 72.7292C205.693 73.1566 209.425 74.6962 209.272 74.877C208.125 76.2258 206.747 76.2545 205.861 76.1911C205.764 76.0731 205.675 75.9415 205.586 75.8088L205.586 75.8087C205.127 75.1282 204.648 74.4187 202.931 75.3706C201.139 74.1128 199.315 74.7613 199.025 75.2614C198.619 75.9599 198.295 76.7013 197.955 77.478L197.955 77.4781C197.329 78.9098 196.651 80.4612 195.311 82.0842C195.687 82.631 196.123 83.1524 196.558 83.674L196.558 83.6742C197.045 84.2572 197.532 84.8405 197.938 85.4601C198.625 86.5105 198.67 87.4496 197.805 88.3628C197.567 88.614 197.325 88.8824 197.075 89.1598L197.074 89.1605C196 90.3539 194.776 91.7122 193.068 92.5729C190.293 93.9702 186.93 93.6184 186.722 93.5214C187.352 91.5478 189.143 90.3462 190.091 90.3981C192.71 91.0208 193.813 89.5181 195.128 87.727L195.128 87.7265L195.129 87.7261L195.131 87.7237C195.343 87.4348 195.56 87.1385 195.791 86.8425C194.319 85.1457 191.715 84.0699 189.615 85.1843C186.68 86.7427 183.243 88.8094 180.466 90.7416C179.741 91.2467 179.487 92.7538 179.352 93.8263C179.083 95.9664 178.431 97.1547 176.771 97.7128C175.168 98.2515 171.35 99.0197 170.43 99.19C170.307 99.619 170.047 100.43 169.742 101.383L169.742 101.384L169.741 101.386L169.741 101.387L169.74 101.39L169.74 101.392C169.08 103.454 168.21 106.175 168.05 107.129C167.601 109.83 165.429 111.324 163.493 112.656L163.492 112.656C163.13 112.905 162.777 113.149 162.444 113.393C162.415 112.922 162.923 111.772 163.394 110.704C163.843 109.688 164.259 108.745 164.148 108.533C166.301 108.758 166.265 107.095 166.232 105.549C166.229 105.404 166.226 105.26 166.225 105.119C166.223 104.924 166.385 104.645 166.619 104.241C167.022 103.547 167.638 102.485 168.004 100.852C168.48 98.729 168.064 98.2217 167.708 98.0282C166.209 97.2115 164.764 97.5826 164.202 99.5865C164.011 100.266 163.846 100.974 163.68 101.686L163.68 101.687C163.304 103.293 162.924 104.923 162.233 106.313C161.77 107.248 158.306 109.352 158.142 109.192C158.311 108.801 158.422 108.125 158.537 107.421C158.7 106.42 158.873 105.36 159.238 104.975C159.617 104.575 159.979 104.33 160.309 104.106C161.136 103.546 161.756 103.126 161.904 100.77C162.246 99.9762 162.603 98.8982 162.949 97.854L162.949 97.8539C163.536 96.0833 164.09 94.4099 164.482 94.3849C164.795 94.3649 165.664 94.6143 166.581 94.8772C167.488 95.1372 168.441 95.4105 168.949 95.4503C169.624 95.5034 171.023 94.0732 170.187 90.3621C162.245 95.8124 152.996 100.659 142.928 104.588C143.413 106.706 143.091 109.807 143.091 109.807C143.091 109.807 147.208 108.943 148.772 109.058C149.541 109.114 150.593 109.791 151.599 110.439C152.636 111.107 153.625 111.744 154.206 111.636C155.352 111.424 160.2 116.635 160.2 116.635L156.781 116.41C156.781 116.41 156.65 115.223 155.926 114.296C155.29 113.485 153.752 113.992 153.752 113.992C153.752 113.992 150.221 111.567 148.372 111.505C146.522 111.444 142.867 113.636 142.867 113.636C142.867 113.636 146.49 113.167 147.308 113.015C147.823 112.92 149.171 114.428 150.402 115.806L150.402 115.806C151.128 116.619 151.814 117.386 152.264 117.752C153.478 118.739 154.936 124.275 154.936 124.275L151.904 122.161C151.904 122.161 152.289 121.813 151.887 119.968C151.485 118.124 150.25 119.035 150.25 119.035C150.25 119.035 147.437 115.011 146.864 115.117C146.724 115.143 146.379 115.292 145.866 115.513C144.287 116.194 141.121 117.558 137.494 118.116C137.39 118.132 137.184 117.998 136.93 117.831C136.583 117.605 136.147 117.32 135.755 117.277C135.075 117.2 124.469 116.742 122.532 117.303C121.365 117.641 121.208 118.154 121.057 118.65C120.957 118.977 120.859 119.296 120.475 119.552C118.584 120.811 112.297 119.754 112.297 119.754C112.297 119.754 108.543 126.342 107.304 127.546C105.572 129.23 102.315 129.127 102.315 129.127L104.373 126.221C104.373 126.221 105.216 126.683 106.405 125.744C107.453 124.916 107.147 123.688 107.147 123.688C107.147 123.688 110.425 119.848 110.473 118.577C110.276 118.241 109.793 117.997 109.196 117.697C108.819 117.507 108.397 117.294 107.973 117.021C107.591 117.649 107.033 118.546 106.548 119.325L106.546 119.327C106.021 120.172 105.581 120.878 105.544 120.955C105.28 121.509 103.49 123.239 102.818 123.871C101.883 124.751 98.9254 124.857 98.9254 124.857L100.763 121.538C100.763 121.538 101.872 121.862 103.036 121.142C104.2 120.421 104.18 118.785 104.18 118.785C104.18 118.785 107.304 114.066 107.952 113.895C108.185 113.833 108.586 114.198 109.094 114.66C109.997 115.481 111.238 116.61 112.471 116.188C113.763 115.745 114.244 113.815 114.509 112.195C102.526 114.099 90.5275 114.694 80.2123 114.694C74.6264 114.694 69.5342 114.52 65.2049 114.284C64.1987 118.321 60.9725 121.47 57.5024 122.786C58.3334 124.843 58.7886 127.519 59.008 129.199C64.3497 129.657 67.8652 129.022 69.4618 127.308C70.0624 126.664 70.3527 125.882 70.3751 124.85C70.4021 123.621 69.9866 122.894 69.1044 122.627C68.1975 122.353 67.3761 122.771 67.2719 123.02C67.2234 124.01 66.5264 124.754 65.7004 124.696C64.879 124.637 64.255 123.775 64.3035 122.784C64.4155 120.476 66.3243 118.828 68.7328 118.951C71.0178 119.068 73.4381 120.994 73.354 124.946C73.3097 126.982 72.667 128.681 71.4429 129.995C69.2653 132.331 65.6359 132.947 62.1391 132.947C60.5338 132.947 58.9564 132.817 57.56 132.664C49.9502 131.829 17.8666 127.981 11.3361 126.338C7.76846 125.44 3.15453 123.559 1.43082 119.7C0.589763 117.818 0.531254 115.646 1.26124 113.418C1.56383 112.495 2.42729 112.042 3.1943 112.408C3.95856 112.773 4.33338 113.817 4.0317 114.74C3.62397 115.984 3.63082 117.049 4.05272 117.995C4.51759 119.034 5.49944 120.001 6.89449 120.837C7.46084 118.806 8.74893 116.915 9.10455 116.417C9.24305 116.225 9.38932 116.028 9.5429 115.834C8.64197 115.295 8.12225 114.759 7.78354 114.207C5.16712 109.943 6.29843 97.7888 11.7269 93.7523C18.2876 88.8739 15.5126 77.2079 10.7862 78.4888C11.0234 78.925 11.215 79.4064 11.3452 79.9319C12.0748 82.8617 10.6971 85.9507 8.26852 86.8303C5.83951 87.7104 3.27932 86.0489 2.54979 83.1186C2.09864 81.3072 2.83639 79.0193 3.36571 78.062C4.79414 75.4791 12.386 68.6674 23.8313 81.5051C26.231 84.197 27.5124 86.6997 28.2504 89.0649C28.7365 87.7682 29.207 86.9064 29.5738 86.8243C28.8461 86.1405 28.235 84.682 28.2907 82.345C28.331 80.6963 30.099 78.1989 32.1198 80.0721C32.188 80.135 32.0939 79.9647 31.9328 79.6727C31.5533 78.9852 30.8015 77.6232 30.9177 77.0442C31.0831 76.2198 31.511 75.6231 31.511 75.6231C31.7395 75.2939 30.5447 73.0287 29.1263 73.2305C28.2007 73.3617 27.0822 71.9694 26.4144 70.984C26.2087 71.3783 25.8946 71.6915 25.4965 71.8359C24.6207 72.153 23.6978 71.5542 23.4355 70.4982C23.1726 69.4427 23.669 68.3289 24.5444 68.0118C25.4202 67.6947 26.3426 68.2941 26.605 69.3501C26.6406 69.4913 26.6598 69.633 26.6694 69.7741C29.028 69.0297 35.6811 67.1124 37.6205 68.486C38.7077 69.2554 39.3676 69.7986 39.7953 70.1506C40.4404 70.6815 40.5572 70.7776 40.8147 70.5594C41.2426 70.196 42.2806 70.5495 43.3274 72.6713C43.9882 74.011 43.4934 74.4161 43.1061 74.7332C42.8799 74.9184 42.6903 75.0735 42.7889 75.3673C43.0568 76.1652 44.8655 77.1164 44.8655 77.1164L43.646 78.8082C43.646 78.8082 44.9373 78.4454 45.2467 79.6883C45.8021 81.5708 47.4385 82.9875 48.5364 83.186C48.4441 85.0967 46.096 86.5712 44.701 85.8262C43.3054 85.0807 43.172 87.3178 43.172 87.3178L43.3603 88.8949C43.3603 88.8949 46.9992 87.078 47.5459 88.2343C47.7714 88.7111 48.1597 88.3677 48.6504 87.9336C49.3502 87.3145 50.2584 86.5111 51.1999 87.6404C52.8007 89.5616 51.8723 91.1436 50.8603 91.8274C49.8479 92.5112 48.1223 91.9327 48.1223 91.9327C48.1223 91.9327 46.4114 94.4285 44.5058 94.7544C43.4709 94.9667 43.0947 96.0122 43.6103 96.0166C43.681 96.0172 43.7713 96.0361 43.8739 96.0577C44.1777 96.1215 44.5896 96.2081 44.9217 95.9063C46.1454 95.6549 48.088 96.0607 49.3679 97.6306C51.2491 99.9365 52.2166 105.283 52.5326 107.365C54.6763 106.119 56.0772 104.288 56.0182 101.838C55.9016 97.0019 60.6924 91.6487 64.5837 92.0109C68.3982 92.3655 70.4807 94.8773 70.77 97.4298C71.0082 99.533 70.3203 101.605 68.6354 102.216C66.9505 102.826 65.1743 101.673 64.6687 99.6399C64.4667 98.8293 64.5005 98.0027 64.7172 97.2616C61.4642 98.3347 62.9379 102.46 64.501 106.835C64.6166 107.159 64.7327 107.484 64.8474 107.809C65.4219 109.438 65.6098 111.016 65.4944 112.503C77.8627 113.167 96.3829 113.322 114.794 110.339C114.801 110.308 114.807 110.279 114.813 110.25C114.064 110.288 112.482 110.026 112.524 108.049C114.904 107.203 118.211 106.64 120.522 106.248C121.088 106.151 121.594 106.065 122.012 105.988C124.139 105.594 132.231 105.711 132.231 105.711C132.231 105.711 130.957 104.54 129.76 102.734C128.776 101.25 127.914 98.431 127.802 96.8865C124.811 98.0467 123.955 95.9331 123.955 95.9331L126.762 94.9587C126.762 94.9587 126.798 94.7718 127.472 93.9821C127.32 93.8843 127.195 93.7226 127.128 93.5133C127.056 93.2895 126.975 93.0865 126.89 92.8919C126.719 92.7877 126.487 92.6741 126.172 92.5732C124.708 92.1022 122.604 92.2445 120.995 93.2933C120.958 93.322 120.917 93.3457 120.873 93.3661C120.647 93.5238 120.429 93.6992 120.227 93.8949C119.618 94.4872 118.885 95.4169 118.108 96.4023L118.107 96.403C115.779 99.3564 112.604 103.383 108.799 103.383C107.253 103.383 105.604 102.719 103.865 101.049C102.199 99.4495 101.237 97.4031 101.056 95.15C100.074 94.6228 98.872 93.4224 99.2194 91.4234C99.3035 90.9382 99.6989 90.6283 100.101 90.7286C100.503 90.8301 100.762 91.3065 100.677 91.7923C100.575 92.384 100.806 92.8114 101.1 93.1059C101.102 93.0893 101.103 93.0728 101.105 93.0562C101.555 89.5094 103.609 86.7523 105.314 85.9588C105.699 85.7801 106.129 86.0106 106.277 86.4733C106.425 86.9359 106.234 87.4559 105.85 87.6346C104.547 88.2417 102.925 90.5908 102.577 93.3281C102.361 95.0309 102.569 97.509 104.792 99.6441C109.747 104.401 113.784 99.2802 117.029 95.1649L117.029 95.1649C117.03 95.1643 117.03 95.1638 117.03 95.1632C115.7 95.9429 114.416 96.8903 112.889 98.1939C112.2 98.7822 110.802 99.4362 109.424 99.4362C109.094 99.4362 108.766 99.3993 108.45 99.3149C107.475 99.0552 106.706 98.3814 106.224 97.3651C105.478 95.7946 105.518 93.9661 106.325 92.5925C107.209 91.0887 108.811 90.4309 110.61 90.8329C111.015 90.9233 111.282 91.392 111.207 91.88C111.132 92.3675 110.746 92.6906 110.339 92.5996C109.109 92.3239 108.088 92.7006 107.54 93.6319C107.065 94.4398 107.056 95.5018 107.517 96.4723C107.792 97.053 108.203 97.4086 108.771 97.5603C109.843 97.8454 111.164 97.3171 111.81 96.8881C111.472 96.6929 111.199 96.4365 110.996 96.115C110.534 95.3832 110.622 94.6366 110.644 94.4943C110.72 94.0069 111.108 93.6859 111.513 93.7775C111.908 93.8674 112.172 94.3173 112.112 94.7932C112.098 95.091 112.469 95.429 113.333 95.5172C113.382 95.5228 113.429 95.5338 113.474 95.5492C115.718 93.794 117.655 92.7116 120.238 91.7333C121.548 90.8538 123.036 90.5196 124.378 90.5213C123.575 90.2351 122.697 90.1287 121.828 90.0272L121.489 89.987C120.63 89.8833 119.067 89.6931 117.661 88.9415C117.626 88.9597 117.591 88.9773 117.553 88.9889C117.077 89.1328 116.596 89.2017 116.121 89.2017C114.1 89.2017 112.199 87.9434 111.288 85.8617C111.096 85.4234 111.235 84.8796 111.599 84.648C111.963 84.417 112.413 84.5852 112.605 85.0236C113.202 86.3884 114.462 87.2673 115.823 87.3875C115.271 86.6448 114.875 85.6875 114.77 84.4352C114.729 83.9417 115.026 83.5011 115.436 83.4509C115.844 83.4013 116.21 83.7597 116.251 84.2538C116.498 87.1857 119.113 87.8943 121.637 88.1998L121.972 88.2401C123.785 88.4518 126.145 88.7303 127.649 91.0115C127.898 90.5323 128.274 90.0035 128.836 89.4262C129.323 88.9257 129.868 88.4532 130.445 87.954L130.448 87.9516C133.149 85.6119 134.838 83.8297 133.753 80.509C133.434 79.5347 132.284 78.5691 131.19 78.3568C130.641 78.2504 129.877 78.2829 129.352 79.0433C128.868 79.7442 128.777 80.4677 129.103 81.0285C129.378 81.501 129.998 81.8666 130.717 81.5545C131.103 81.3864 131.53 81.6279 131.67 82.0944C131.809 82.5609 131.609 83.0759 131.222 83.2447C129.977 83.7856 128.604 83.2998 127.883 82.0596C127.319 81.0891 127.109 79.485 128.208 77.8931C128.967 76.793 130.109 76.327 131.426 76.5823C133.061 76.8994 134.622 78.2735 135.138 79.849C136.73 84.7205 133.602 87.4308 131.318 89.4093L131.317 89.4096C130.764 89.8877 130.243 90.3393 129.802 90.7921C128.947 91.6705 128.62 92.4199 128.747 92.6785C128.753 92.6903 128.758 92.7022 128.764 92.7142C130.942 90.9127 135.928 87.4036 135.928 87.4036C135.928 87.4036 137.297 88.614 137.333 90.223C137.371 91.8321 134.973 96.0119 133.561 96.4255C134.179 96.8891 135.025 97.4794 135.953 98.1271C138.274 99.7472 141.11 101.727 142.187 102.983C152.263 99.0556 161.645 94.1127 169.667 88.5832C169.626 88.4648 169.582 88.3446 169.536 88.2227C169.536 88.2227 168.866 87.8918 167.791 87.3338C167.011 86.9292 166.61 86.4407 166.262 86.0163L166.262 86.0161L166.262 86.016L166.261 86.0155L166.261 86.0149L166.26 86.0139C166.129 85.8539 166.005 85.703 165.871 85.5692C168.603 84.8358 169.641 85.0978 169.641 85.0978C171.033 82.7189 178.413 76.5799 183.673 74.9995C183.219 71.9628 181.987 61.7553 181.987 61.7553C181.987 61.7553 180.751 61.9086 180.029 61.6637C179.308 61.4183 178.315 60.6667 178.366 59.7795C179.587 59.8459 180.534 59.5278 181.066 59.3489C181.352 59.253 181.518 59.1971 181.544 59.2617C181.717 59.1737 181.893 59.081 182.074 58.9843C182.048 58.923 182.022 58.8626 181.995 58.8031C181.911 58.7496 181.818 58.6944 181.705 58.6387C180.211 57.9004 177.317 57.7934 175.112 59.2023C175.063 59.2486 175.006 59.2861 174.946 59.3159C174.672 59.5034 174.408 59.7113 174.161 59.95C173.454 60.6366 172.607 61.7106 171.711 62.8478L171.707 62.8533C169.041 66.2347 165.405 70.8463 161.056 70.8468C159.296 70.8468 157.421 70.0919 155.445 68.195C153.531 66.3565 152.435 64.0019 152.245 61.4108C151.138 60.8406 149.739 59.4957 150.132 57.2359C150.215 56.7501 150.613 56.4413 151.013 56.5411C151.415 56.6431 151.673 57.119 151.589 57.6048C151.44 58.4628 151.841 59.0374 152.278 59.3992C152.281 59.3631 152.285 59.3271 152.288 59.2912L152.288 59.2889L152.288 59.288L152.288 59.2872C152.294 59.2287 152.299 59.17 152.307 59.1108C152.819 55.0743 155.151 51.9389 157.085 51.0379C157.469 50.8603 157.9 51.0903 158.048 51.5523C158.196 52.0155 158.005 52.5355 157.621 52.7142C156.089 53.4277 154.185 56.1805 153.778 59.3832C153.525 61.3815 153.769 64.2887 156.373 66.7905C162.163 72.3506 166.857 66.399 170.628 61.6159C170.776 61.4273 170.915 61.2514 171.058 61.0716C169.313 62.0317 167.688 63.2101 165.709 64.8991C164.929 65.5658 163.346 66.3069 161.785 66.3069C161.413 66.3069 161.042 66.265 160.683 66.169C159.593 65.879 158.732 65.1246 158.193 63.9882C157.356 62.2247 157.399 60.1734 158.304 58.6349C159.296 56.947 161.101 56.2102 163.129 56.663C163.533 56.754 163.8 57.2221 163.725 57.7101C163.65 58.1982 163.263 58.5196 162.858 58.4297C161.393 58.1011 160.176 58.5566 159.519 59.6749C158.944 60.6509 158.933 61.9297 159.486 63.0959C159.82 63.8007 160.317 64.2319 161.005 64.4155C162.392 64.785 164.119 64.0058 164.778 63.4869C164.312 63.2625 163.944 62.9459 163.684 62.5335C163.171 61.7185 163.286 60.8676 163.301 60.7733C163.377 60.2853 163.768 59.9649 164.17 60.057C164.567 60.1475 164.83 60.6013 164.768 61.0788C164.766 61.1141 164.762 61.29 164.886 61.4709C165.011 61.6523 165.357 61.9699 166.278 62.0642C166.343 62.0703 166.405 62.0907 166.464 62.116C169.065 60.0752 171.301 58.8235 174.292 57.6919C176.029 56.5229 178.044 56.1921 179.747 56.3338C178.64 55.7641 177.354 55.612 176.089 55.4636L175.698 55.4173C174.708 55.2982 172.894 55.0765 171.279 54.1981C171.229 54.2284 171.178 54.2532 171.122 54.2703C170.583 54.4336 170.037 54.5124 169.5 54.5124C167.212 54.5124 165.06 53.0897 164.03 50.7357C163.839 50.2967 163.978 49.753 164.341 49.5214C164.705 49.2909 165.155 49.458 165.347 49.897C166.096 51.6086 167.724 52.6717 169.44 52.7065C168.715 51.838 168.186 50.6899 168.057 49.1404C168.015 48.6474 168.313 48.2068 168.722 48.1566C169.133 48.1059 169.497 48.466 169.538 48.9601C169.83 52.4379 172.891 53.2728 175.846 53.6301L176.233 53.6764C178.454 53.9362 181.123 54.2582 182.798 56.974C183.073 56.3917 183.523 55.736 184.228 55.012C184.787 54.438 185.414 53.8942 186.079 53.3191L186.079 53.3188C188.766 50.9919 191.305 48.7934 189.926 44.5806C189.546 43.4177 188.182 42.2668 186.885 42.0154C186.224 41.8875 185.302 41.9288 184.663 42.8536C184.069 43.7132 183.962 44.6077 184.37 45.3085C184.71 45.8941 185.478 46.3502 186.36 45.9658C186.749 45.7954 187.174 46.0386 187.314 46.5057C187.454 46.9727 187.253 47.4872 186.867 47.6554C185.479 48.2598 183.95 47.7183 183.15 46.3397C182.525 45.2628 182.292 43.4794 183.519 41.7044C184.368 40.4753 185.648 39.9553 187.122 40.2414C188.97 40.6004 190.732 42.1483 191.312 43.9217C193.117 49.4371 189.696 52.3988 186.946 54.7754L186.933 54.7863L186.933 54.7865L186.932 54.787C186.299 55.3363 185.701 55.8549 185.192 56.3773C184.694 56.8892 184.316 57.4021 184.103 57.8332C184.802 57.4213 185.525 56.9845 186.249 56.547L186.25 56.5467L186.251 56.5461L186.251 56.5457L186.251 56.5456L186.252 56.5452C187.929 55.5314 189.612 54.5142 191.019 53.7954C192.949 55.635 192.113 60.5686 187.894 62.7809C189.123 64.294 189.694 65.0831 190.841 66.7032C191.024 66.961 191.238 67.2894 191.47 67.6713C209.778 45.6428 224.823 36.4973 231.468 33.2123C230.808 29.6203 229.826 21.8557 229.826 21.8557C229.826 21.8557 228.604 22.122 227.868 21.9444C227.133 21.7663 226.096 21.1085 226.09 20.219C227.312 20.1731 228.236 19.7688 228.756 19.5414C229.035 19.4195 229.197 19.3485 229.227 19.4106C229.775 19.069 230.446 18.7709 231.189 18.4982C231.163 18.4131 231.136 18.3297 231.108 18.2475C231.029 18.183 230.941 18.1169 230.834 18.0468C229.411 17.1254 226.542 16.6556 224.227 17.781C224.174 17.8196 224.116 17.8489 224.054 17.8715C223.764 18.0242 223.483 18.1985 223.218 18.4052C222.455 18.9998 221.519 19.9623 220.529 20.9817L220.528 20.9819L220.527 20.9837L220.526 20.9847C217.761 23.83 214.051 27.6472 210.027 27.6472C208.034 27.6477 205.963 26.7114 203.892 24.2565C202.146 22.1881 201.26 19.7088 201.293 17.1072C200.243 16.4014 198.967 14.8888 199.551 12.6908C199.678 12.2193 200.096 11.9585 200.488 12.1102C200.88 12.2618 201.095 12.7675 200.97 13.24C200.748 14.0743 201.097 14.6963 201.499 15.111C201.506 15.0751 201.512 15.0392 201.518 15.0034C201.529 14.945 201.539 14.8865 201.552 14.8281C202.41 10.8777 205 8.05164 207.002 7.3982C207.397 7.26806 207.807 7.55094 207.915 8.03069C208.022 8.50933 207.787 9.00231 207.391 9.13245C205.806 9.65024 203.673 12.1493 202.993 15.2836C202.568 17.239 202.561 20.1604 204.936 22.9749C210.214 29.232 215.396 23.9019 219.56 19.6173C219.723 19.4491 219.877 19.2919 220.034 19.1309C218.215 19.8665 216.498 20.8348 214.385 22.2664C213.67 22.7505 212.365 23.2148 211.03 23.2148C210.434 23.2148 209.832 23.1227 209.275 22.8983C208.216 22.4726 207.425 21.614 206.987 20.4163C206.307 18.558 206.526 16.5232 207.559 15.1066C208.691 13.5521 210.547 13.0448 212.528 13.7512C212.922 13.8913 213.148 14.392 213.031 14.8673C212.914 15.3437 212.499 15.6145 212.106 15.4744C210.679 14.9643 209.428 15.2632 208.678 16.2927C208.022 17.1916 207.9 18.462 208.349 19.6912C208.621 20.434 209.078 20.9253 209.746 21.1938C211.093 21.7353 212.879 21.1789 213.582 20.7455C213.138 20.4637 212.798 20.1025 212.575 19.6586C212.134 18.7835 212.321 17.9514 212.344 17.8593C212.461 17.3835 212.876 17.1133 213.271 17.2561C213.656 17.3956 213.88 17.8797 213.777 18.3468C213.772 18.381 213.752 18.5558 213.861 18.7516C213.969 18.9473 214.287 19.3074 215.194 19.5158C215.258 19.5302 215.318 19.5583 215.375 19.5908C218.138 17.888 220.469 16.9236 223.541 16.1742C225.369 15.229 227.401 15.1529 229.084 15.5075C228.032 14.8028 226.767 14.4901 225.522 14.1841L225.135 14.0881C224.161 13.8449 222.376 13.3977 220.844 12.3208C220.793 12.3445 220.739 12.3627 220.683 12.3726C220.368 12.4272 220.053 12.4537 219.741 12.4537C217.19 12.4537 214.838 10.6864 213.934 7.96728C213.782 7.50628 213.966 6.98354 214.348 6.79881C214.73 6.61353 215.163 6.83684 215.317 7.29839C215.912 9.08943 217.433 10.3478 219.131 10.6031C218.489 9.64968 218.072 8.43765 218.076 6.88593C218.077 6.39075 218.411 5.99041 218.821 5.99041H218.823C219.234 5.99207 219.567 6.3957 219.565 6.89199C219.556 10.3875 222.529 11.6017 225.437 12.3291L225.819 12.4234C228.005 12.9605 230.631 13.6156 232.062 16.526C232.386 15.9817 232.889 15.3862 233.653 14.7542C234.259 14.2535 234.929 13.7915 235.64 13.3029C238.514 11.326 241.228 9.45778 240.221 5.09488C239.943 3.89056 238.686 2.57541 237.417 2.16184C236.771 1.95119 235.85 1.87566 235.134 2.71714C234.469 3.49685 234.286 4.37308 234.631 5.12081C234.919 5.74669 235.644 6.29589 236.554 6.02459C236.954 5.90548 237.357 6.1994 237.456 6.68079C237.555 7.16219 237.311 7.64911 236.913 7.76822C235.48 8.19392 234.007 7.46602 233.329 5.99371C232.8 4.84343 232.723 3.04083 234.096 1.42956C235.045 0.313466 236.363 -0.0438722 237.806 0.427047ZM9.65261 122.121C9.98126 120.704 11.6721 118 12.7298 117.208C14.6825 117.857 17.3771 118.534 21.1367 119.269C30.8527 121.167 51.0504 123.394 53.8831 123.453C54.0504 123.457 54.219 123.453 54.3877 123.446C54.9115 124.147 55.6027 126.726 55.9642 128.876C46.0411 127.745 17.9151 124.322 11.9427 122.819C11.129 122.615 10.3648 122.38 9.65261 122.121Z" fill="url(#paint0_linear_76_1261)" fill-opacity="0.7"/>
</g>
<defs>
<linearGradient id="paint0_linear_76_1261" x1="105.754" y1="59.3368" x2="275.572" y2="17.163" gradientUnits="userSpaceOnUse">
<stop stop-color="#6BB7F0"/>
<stop offset="1" stop-color="#1597F8" stop-opacity="0.36"/>
</linearGradient>
</defs>
</svg>
