<svg width="474" height="473" viewBox="0 0 474 473" fill="none" xmlns="http://www.w3.org/2000/svg">
<g opacity="0.55">
<path fill-rule="evenodd" clip-rule="evenodd" d="M413.297 19.9952C415.201 19.9703 417.29 21.1088 418.264 22.7029C421.292 27.6557 418.595 31.1974 416.427 34.044L416.424 34.0489C415.919 34.7099 415.443 35.3351 415.058 35.9443C414.48 36.8578 414.185 37.7159 414.262 38.1969C414.733 37.8683 415.22 37.5396 415.708 37.2106L415.709 37.2105L415.709 37.2102C417.51 35.9958 419.318 34.7772 420.35 33.541C422.813 34.4498 423.449 40.3967 419.171 42.3136C419.922 42.7088 420.329 42.8636 420.693 43.0023C421.153 43.1769 421.544 43.3259 422.47 43.8978C424.277 45.0143 427.636 50.1917 429.097 52.6651C429.668 53.6331 429.753 53.4064 430 52.7506C430.283 51.9953 430.781 50.6709 432.481 49.9463C433.245 49.6202 435.954 49.1753 437.735 49.2945C439.557 49.4142 443.262 52.1391 443.782 53.3907C443.782 53.3907 441.154 53.204 440.311 53.5074C440.047 53.37 439.859 53.0433 439.661 52.6969C439.245 51.9722 438.779 51.1612 437.46 51.8153C435.337 51.3872 433.511 51.849 433.255 52.3386C432.732 53.3383 432.428 54.2854 432.125 55.2283C431.755 56.3814 431.387 57.5282 430.623 58.7574C431.127 59.0786 431.56 59.3335 431.981 59.5816C432.532 59.9065 433.064 60.22 433.713 60.656C433.84 60.7411 433.975 60.8277 434.113 60.9164L434.114 60.9172C435.091 61.5448 436.23 62.2757 435.826 63.3213L435.746 63.5298C435.061 65.3098 433.894 68.3454 432.137 69.7615C430.129 71.3812 426.609 72.2768 426.379 72.2719C426.229 70.1964 427.274 69.0826 428.169 68.7436C430.78 69.8355 432.912 65.9813 433.654 63.3388C431.666 62.3755 427.923 61.1316 426.398 63.0133C425.027 64.7053 424.283 66.0189 423.436 67.5151L423.436 67.5153C422.965 68.3463 422.463 69.2337 421.803 70.2735C421.321 71.0343 421.645 72.5267 421.918 73.5696C422.463 75.6512 422.302 77.0116 420.976 78.2022C419.695 79.3523 416.455 81.6153 415.669 82.1472C415.715 82.5933 415.776 83.4493 415.848 84.4548L415.849 84.4607L415.849 84.4613L415.849 84.4615C416.004 86.6292 416.208 89.4877 416.415 90.4315C417.002 93.1035 415.55 95.3659 414.256 97.3821L414.255 97.3829C414.014 97.7592 413.778 98.1269 413.562 98.4871C413.361 98.0659 413.403 96.8008 413.442 95.6252L413.442 95.625C413.48 94.5046 413.514 93.4654 413.334 93.3151C415.403 92.645 414.755 91.1286 414.152 89.7175C414.095 89.5848 414.039 89.453 413.985 89.323C413.911 89.1441 413.957 88.8202 414.024 88.3516C414.138 87.5478 414.312 86.3184 414.046 84.6655C413.698 82.516 413.125 82.2184 412.725 82.1853C411.038 82.0441 409.842 82.9735 410.066 85.0493C410.142 85.7539 410.252 86.4735 410.362 87.198C410.611 88.8307 410.864 90.4875 410.742 92.0498C410.661 93.0984 408.243 96.4489 408.032 96.3678C408.043 95.9386 407.895 95.2712 407.74 94.5752L407.74 94.575C407.519 93.5857 407.286 92.5386 407.48 92.0357C407.682 91.5136 407.925 91.1397 408.147 90.7996C408.703 89.9463 409.119 89.3065 408.383 87.0748C408.404 86.2056 408.334 85.0688 408.266 83.9671L408.266 83.9669L408.266 83.9667C408.151 82.0949 408.042 80.3247 408.395 80.1418C408.677 79.9959 409.573 79.8713 410.518 79.74C411.451 79.6103 412.431 79.474 412.915 79.3039C413.67 79.0381 414.588 76.4863 410.778 72.4051C410.778 72.4051 410.036 72.3736 408.836 72.2976C407.967 72.2425 407.417 71.9559 406.939 71.7069L406.938 71.7068C406.756 71.6118 406.584 71.5223 406.409 71.4531C408.659 69.6642 409.714 69.4835 409.714 69.4835C409.917 68.1005 410.924 65.0938 412.416 61.9855C406.655 69.3879 399.041 81.3793 391.841 99.5776C393.697 101.331 395.845 103.784 396.354 105.716C396.777 107.322 397.519 103.637 397.538 103.539C398.012 100.317 400.744 99.3953 404.211 99.1684C405.862 99.0604 409.903 99.3143 409.814 99.5341C409.139 101.176 407.833 101.646 406.967 101.871C406.838 101.791 406.712 101.695 406.586 101.599C405.936 101.104 405.258 100.588 403.916 102.038C401.814 101.427 400.275 102.625 400.154 103.191C399.984 103.981 399.905 104.785 399.823 105.628C399.671 107.181 399.507 108.864 398.733 110.827C399.263 111.222 399.841 111.574 400.419 111.927L400.419 111.927C401.065 112.321 401.711 112.715 402.291 113.17C403.274 113.941 403.61 114.813 403.068 115.953C402.919 116.266 402.772 116.597 402.62 116.939L402.619 116.941L402.619 116.941C401.965 118.413 401.22 120.089 399.858 121.451C397.645 123.662 394.326 124.411 394.097 124.386C394.084 122.32 395.419 120.61 396.339 120.354C399.033 120.1 399.618 118.327 400.315 116.213L400.316 116.213C400.428 115.871 400.544 115.52 400.672 115.165C398.74 114.036 395.92 113.857 394.263 115.584C391.947 117.999 389.31 121.055 387.261 123.772C386.726 124.482 386.953 125.987 387.158 127.043C387.568 129.15 387.315 130.481 385.905 131.542C384.542 132.566 381.138 134.519 380.313 134.975C380.329 135.421 380.334 136.274 380.34 137.276L380.34 137.277L380.34 137.277C380.352 139.436 380.368 142.284 380.513 143.236C380.925 145.93 379.317 148.039 377.885 149.919L377.884 149.919L377.884 149.919L377.884 149.919L377.884 149.919C377.616 150.271 377.354 150.614 377.113 150.952C376.939 150.517 377.065 149.268 377.183 148.108C377.294 147.004 377.398 145.98 377.226 145.816C379.351 145.336 378.799 143.777 378.286 142.328C378.238 142.192 378.19 142.057 378.145 141.925C378.083 141.741 378.151 141.425 378.249 140.969C378.417 140.184 378.674 138.983 378.515 137.323C378.309 135.166 377.753 134.821 377.354 134.753C375.669 134.464 374.406 135.279 374.493 137.351C374.522 138.054 374.585 138.775 374.648 139.5L374.648 139.501L374.648 139.501L374.648 139.502L374.648 139.502C374.79 141.139 374.934 142.801 374.708 144.335C374.557 145.366 371.906 148.467 371.7 148.368C371.739 147.945 371.634 147.271 371.525 146.569C371.369 145.571 371.204 144.515 371.433 144.035C371.67 143.536 371.939 143.187 372.184 142.87C372.799 142.076 373.26 141.48 372.668 139.207C372.747 138.348 372.753 137.215 372.758 136.118L372.758 136.118C372.766 134.258 372.775 132.5 373.141 132.35C373.433 132.231 374.341 132.187 375.298 132.14C376.244 132.094 377.238 132.046 377.736 131.92C378.404 131.751 379.306 129.914 377.268 126.611C371.444 134.19 364.223 141.621 355.96 148.464C357.194 150.254 357.925 153.618 357.925 153.618C357.925 153.618 361.578 151.485 363.103 151.091C363.853 150.897 365.065 151.198 366.224 151.485C367.42 151.782 368.559 152.065 369.08 151.777C370.105 151.209 376.341 154.563 376.341 154.563L373.015 155.448C373.015 155.448 372.522 154.371 371.544 153.731C370.687 153.171 369.379 154.142 369.379 154.142C369.379 154.142 365.263 152.989 363.482 153.525C361.701 154.06 358.901 157.297 358.901 157.297C358.901 157.297 362.206 155.693 362.938 155.288C363.398 155.034 365.151 156.022 366.752 156.925C367.696 157.457 368.587 157.96 369.13 158.161C370.592 158.701 373.701 163.448 373.701 163.448L370.157 162.429C370.157 162.429 370.415 161.978 369.459 160.369C368.503 158.761 367.61 160.015 367.61 160.015C367.61 160.015 363.681 157.127 363.168 157.411C363.043 157.48 362.76 157.731 362.341 158.103C361.048 159.251 358.457 161.552 355.176 163.24C355.081 163.289 354.843 163.228 354.549 163.153C354.149 163.051 353.645 162.923 353.258 163.008C352.587 163.153 342.343 166.124 340.673 167.273C339.666 167.965 339.676 168.499 339.686 169.015C339.692 169.355 339.699 169.687 339.412 170.052C338.002 171.844 331.686 172.865 331.686 172.865C331.686 172.865 330.157 180.274 329.351 181.806C328.225 183.948 325.09 184.895 325.09 184.895L326.147 181.498C326.147 181.498 327.095 181.663 327.935 180.396C328.675 179.28 328.003 178.221 328.003 178.221C328.003 178.221 329.932 173.554 329.583 172.341C329.291 172.087 328.755 172.013 328.094 171.921L328.093 171.921C327.675 171.863 327.207 171.798 326.718 171.676C326.549 172.391 326.296 173.416 326.076 174.306L326.076 174.307L326.076 174.308C325.837 175.271 325.638 176.077 325.627 176.162C325.547 176.768 324.38 178.972 323.937 179.783C323.32 180.912 320.535 181.96 320.535 181.96L321.255 178.243C321.255 178.243 322.411 178.194 323.296 177.142C324.181 176.09 323.654 174.555 323.654 174.555C323.654 174.555 325.162 169.107 325.727 168.738C325.93 168.606 326.425 168.821 327.052 169.093L327.052 169.093C328.168 169.577 329.701 170.243 330.744 169.45C331.919 168.555 331.666 166.342 331.386 164.677C320.526 170.344 309.231 174.771 299.368 178.089C294.247 179.812 289.512 181.236 285.424 182.379C285.777 186.555 283.689 190.608 280.781 192.976C282.217 194.658 283.49 197.046 284.226 198.566C289.447 197.301 292.588 195.582 293.568 193.452C293.936 192.651 293.967 191.819 293.663 190.835C293.303 189.663 292.68 189.107 291.758 189.136C290.81 189.165 290.16 189.821 290.14 190.09C290.404 191.043 289.976 191.968 289.172 192.176C288.373 192.382 287.509 191.765 287.244 190.811C286.626 188.591 287.923 186.424 290.25 185.775C292.459 185.159 295.364 186.212 296.525 189.978C297.122 191.919 297.045 193.731 296.294 195.364C294.958 198.267 291.702 200.005 288.379 201.117C286.853 201.628 285.313 202.006 283.938 202.306C276.443 203.936 244.742 210.499 238.019 211.021C234.346 211.306 229.37 210.993 226.52 207.889C225.13 206.376 224.392 204.339 224.387 201.999C224.384 201.029 225.063 200.326 225.906 200.428C226.748 200.531 227.431 201.399 227.435 202.368C227.438 203.676 227.779 204.681 228.477 205.442C229.245 206.277 230.482 206.88 232.07 207.228C231.971 205.126 232.601 202.926 232.783 202.342C232.854 202.116 232.931 201.884 233.016 201.651C231.991 201.427 231.328 201.086 230.833 200.671C227.007 197.468 224.266 185.606 228.157 180.06C232.861 173.356 226.56 163.199 222.47 165.914C222.833 166.252 223.166 166.646 223.455 167.102C225.068 169.643 224.729 173.004 222.697 174.609C220.665 176.214 217.71 175.456 216.096 172.915C215.098 171.345 215.081 168.945 215.284 167.87C215.83 164.972 220.906 156.111 235.816 164.62C238.914 166.388 240.91 168.33 242.351 170.315C242.407 168.945 242.583 167.99 242.905 167.796C241.997 167.38 240.957 166.193 240.276 163.962C239.796 162.387 240.693 159.459 243.204 160.59C243.289 160.628 243.146 160.496 242.901 160.271L242.901 160.271C242.324 159.741 241.18 158.69 241.109 158.104C241.007 157.271 241.227 156.569 241.227 156.569C241.34 156.185 239.492 154.42 238.206 155.062C237.366 155.481 235.865 154.518 234.919 153.798C234.848 154.237 234.647 154.633 234.314 154.897C233.58 155.476 232.514 155.203 231.933 154.286C231.351 153.37 231.473 152.157 232.206 151.578C232.94 150.999 234.006 151.273 234.587 152.189C234.665 152.312 234.728 152.44 234.782 152.57C236.792 151.114 242.519 147.18 244.795 147.864C246.072 148.247 246.87 148.551 247.388 148.748C248.168 149.046 248.31 149.1 248.486 148.811C248.779 148.331 249.878 148.335 251.54 150.012C252.59 151.07 252.247 151.611 251.978 152.035C251.821 152.283 251.69 152.49 251.876 152.737C252.381 153.407 254.401 153.732 254.401 153.732L253.773 155.723C253.773 155.723 254.887 154.968 255.572 156.047C256.692 157.654 258.695 158.475 259.802 158.313C260.314 160.152 258.544 162.297 256.983 162.035C255.42 161.773 255.997 163.935 255.997 163.935L256.672 165.369C256.672 165.369 259.563 162.489 260.446 163.41C260.811 163.79 261.072 163.341 261.402 162.774C261.874 161.965 262.485 160.914 263.736 161.684C265.863 162.995 265.477 164.789 264.729 165.759C263.981 166.729 262.157 166.73 262.157 166.73C262.157 166.73 261.314 169.639 259.603 170.554C258.686 171.085 258.656 172.195 259.148 172.035C259.216 172.013 259.308 172.002 259.412 171.99C259.721 171.954 260.14 171.904 260.361 171.513C261.446 170.885 263.422 170.651 265.133 171.731C267.657 173.322 270.268 178.107 271.214 179.964C272.861 178.103 273.618 175.925 272.792 173.624C271.162 169.085 274.035 162.495 277.847 161.6C281.583 160.722 284.351 162.437 285.428 164.76C286.315 166.675 286.312 168.855 284.902 169.968C283.493 171.082 281.442 170.556 280.323 168.793C279.877 168.09 279.649 167.297 279.622 166.526C276.868 168.577 279.564 172.012 282.423 175.655L282.426 175.658C282.636 175.927 282.848 176.196 283.059 176.467C284.095 177.799 284.763 179.202 285.126 180.617C296.916 177.312 314.026 171.683 330.207 163.297C329.485 163.318 328.649 163.018 328.265 161.766C330.269 160.205 333.245 158.615 335.324 157.504C335.833 157.231 336.288 156.988 336.662 156.781C338.565 155.728 346.309 153.243 346.309 153.243C346.309 153.243 344.732 152.548 343.03 151.231C341.632 150.149 339.936 147.77 339.349 146.351C336.86 148.403 335.389 146.686 335.389 146.686L337.759 144.868C337.759 144.868 337.733 144.66 338.2 143.561C337.983 143.546 337.765 143.426 337.607 143.211C337.469 143.023 337.329 142.857 337.187 142.701C336.992 142.658 336.735 142.625 336.404 142.631C334.864 142.657 332.902 143.466 331.696 144.971C331.669 145.01 331.638 145.045 331.603 145.078C331.436 145.3 331.283 145.535 331.151 145.784C330.755 146.538 330.345 147.649 329.912 148.827L329.911 148.828C328.611 152.358 326.838 157.171 323.212 158.392C321.74 158.888 319.962 158.791 317.786 157.775C315.702 156.802 314.15 155.183 313.277 153.118C312.178 152.936 310.66 152.19 310.37 150.195C310.299 149.711 310.579 149.292 310.994 149.257C311.408 149.224 311.802 149.59 311.873 150.075C311.959 150.665 312.312 150.994 312.684 151.177C312.682 151.171 312.681 151.164 312.679 151.158C312.677 151.148 312.675 151.139 312.673 151.129C312 147.642 313.1 144.385 314.478 143.09C314.789 142.798 315.27 142.878 315.555 143.266C315.84 143.654 315.819 144.206 315.509 144.497C314.456 145.488 313.641 148.222 314.16 150.913C314.483 152.587 315.452 154.855 318.233 156.154C324.431 159.047 326.687 152.926 328.499 148.007C328.5 148.006 328.5 148.005 328.5 148.005C327.474 149.167 326.546 150.471 325.496 152.19C325.023 152.965 323.894 154.03 322.581 154.472C322.267 154.578 321.943 154.648 321.615 154.67C320.607 154.738 319.664 154.35 318.889 153.547C317.691 152.306 317.16 150.57 317.502 149.017C317.878 147.316 319.199 146.182 321.038 145.984C321.451 145.939 321.852 146.295 321.932 146.779C322.012 147.263 321.744 147.691 321.329 147.736C320.071 147.871 319.215 148.553 318.983 149.607C318.782 150.52 319.103 151.524 319.844 152.291C320.286 152.75 320.788 152.953 321.376 152.914C322.486 152.838 323.58 151.917 324.063 151.305C323.68 151.23 323.34 151.076 323.047 150.838C322.38 150.296 322.231 149.565 322.208 149.424C322.129 148.94 322.398 148.513 322.813 148.469C323.218 148.427 323.608 148.767 323.7 149.234C323.779 149.519 324.237 149.719 325.088 149.525C325.136 149.514 325.184 149.51 325.232 149.51C326.824 147.136 328.334 145.494 330.49 143.744C331.464 142.495 332.779 141.702 334.058 141.273C333.204 141.261 332.334 141.443 331.475 141.626L331.139 141.697C330.289 141.874 328.74 142.197 327.168 141.939C327.14 141.968 327.112 141.996 327.079 142.019C326.67 142.307 326.234 142.527 325.782 142.679C323.856 143.327 321.653 142.751 320.139 141.082C319.819 140.731 319.783 140.174 320.058 139.839C320.333 139.504 320.814 139.518 321.133 139.87C322.126 140.964 323.6 141.388 324.934 141.065C324.177 140.542 323.502 139.767 323.013 138.621C322.82 138.169 322.967 137.658 323.341 137.479C323.715 137.302 324.175 137.522 324.368 137.974C325.514 140.658 328.225 140.487 330.725 139.965L331.057 139.895C332.85 139.513 335.184 139.019 337.326 140.686C337.414 140.154 337.609 139.535 337.964 138.811C338.272 138.183 338.645 137.563 339.04 136.907L339.042 136.904C340.888 133.833 341.943 131.612 339.877 128.831C339.271 128.015 337.876 127.474 336.767 127.625C336.211 127.701 335.494 127.976 335.23 128.861C334.986 129.677 335.124 130.388 335.609 130.812C336.018 131.169 336.723 131.314 337.31 130.79C337.625 130.507 338.108 130.598 338.385 130.993C338.664 131.388 338.633 131.937 338.317 132.22C337.299 133.129 335.839 133.112 334.767 132.175C333.929 131.441 333.229 129.997 333.782 128.144C334.164 126.864 335.107 126.059 336.44 125.877C338.097 125.651 340.011 126.445 340.992 127.764C344.023 131.844 341.884 135.402 340.323 137.999L340.323 137.999C339.945 138.627 339.588 139.22 339.309 139.788C338.767 140.89 338.689 141.701 338.89 141.904C338.934 141.949 338.974 141.998 339.008 142.049C340.547 139.632 344.143 134.812 344.143 134.812C344.143 134.812 345.822 135.513 346.357 137.017C346.893 138.521 345.907 143.227 344.691 144.07C345.424 144.308 346.412 144.593 347.498 144.905L347.498 144.905C350.023 145.633 353.07 146.51 354.622 147.304C362.945 140.432 370.307 132.834 376.213 125.116C376.159 125.047 376.103 124.978 376.046 124.908C376.046 124.908 375.303 124.811 374.104 124.629C373.233 124.498 372.699 124.166 372.234 123.877L372.234 123.877L372.234 123.876L372.233 123.876L372.232 123.875C372.057 123.766 371.892 123.664 371.722 123.58C374.101 122.01 375.173 121.923 375.173 121.923C375.761 119.23 380.893 111.062 385.421 107.878C384.042 105.157 379.69 95.9158 379.69 95.9158C379.69 95.9158 378.558 96.4578 377.793 96.4587C377.028 96.459 375.847 96.0683 375.618 95.2145C376.805 94.8846 377.609 94.2799 378.062 93.9398C378.304 93.7575 378.446 93.6512 378.491 93.7038C378.642 93.5513 378.796 93.3916 378.953 93.2258C378.867 93.123 378.781 93.0252 378.694 92.9307C378.597 92.9074 378.491 92.8854 378.366 92.8691C376.714 92.6526 373.924 93.4801 372.261 95.5151C372.228 95.5748 372.186 95.6281 372.137 95.6757C371.935 95.9402 371.748 96.2209 371.587 96.5249C371.127 97.3984 370.654 98.6817 370.154 100.04L370.153 100.041L370.151 100.048C368.662 104.09 366.631 109.602 362.488 110.998C360.812 111.562 358.79 111.453 356.319 110.299C353.924 109.181 352.149 107.313 351.162 104.933C349.93 104.75 348.18 103.932 347.851 101.677C347.78 101.192 348.063 100.773 348.475 100.739C348.89 100.706 349.284 101.072 349.354 101.557C349.479 102.413 350.04 102.826 350.568 103.027C350.548 102.933 350.524 102.841 350.506 102.746C349.74 98.7775 350.987 95.0747 352.55 93.605C352.86 93.3147 353.343 93.3929 353.627 93.781C353.912 94.1701 353.892 94.7213 353.581 95.0128C352.344 96.1766 351.385 99.3817 351.992 102.53C352.372 104.495 353.508 107.156 356.767 108.678C364.01 112.06 366.633 104.945 368.739 99.2283C368.821 99.0031 368.899 98.7926 368.98 98.5773C367.615 100.042 366.433 101.674 365.073 103.9C364.537 104.779 363.259 105.985 361.772 106.486C361.418 106.605 361.051 106.685 360.68 106.709C359.551 106.786 358.496 106.351 357.629 105.453C356.284 104.06 355.688 102.113 356.071 100.373C356.493 98.464 357.983 97.1908 360.055 96.9669C360.469 96.9229 360.869 97.2784 360.949 97.7623C361.029 98.2462 360.76 98.6735 360.346 98.7188C358.848 98.8791 357.831 99.6987 357.552 100.963C357.308 102.067 357.694 103.276 358.584 104.198C359.121 104.755 359.728 105.001 360.441 104.954C361.877 104.857 363.281 103.568 363.747 102.868C363.233 102.806 362.784 102.626 362.409 102.321C361.667 101.717 361.512 100.879 361.496 100.785C361.417 100.301 361.691 99.8733 362.102 99.8312C362.509 99.7889 362.9 100.132 362.989 100.602C362.998 100.636 363.049 100.803 363.223 100.934C363.399 101.065 363.827 101.253 364.734 101.046C364.798 101.031 364.863 101.031 364.927 101.036C366.771 98.2778 368.512 96.3809 371.01 94.355C372.301 92.6962 374.119 91.7379 375.785 91.325C374.553 91.1436 373.281 91.4127 372.03 91.6787L371.643 91.7606C370.663 91.9658 368.866 92.339 367.054 92.0295C367.016 92.0739 366.975 92.1137 366.927 92.1477C366.464 92.4747 365.969 92.7239 365.457 92.8964C363.277 93.6305 360.785 92.9801 359.072 91.0923C358.753 90.7401 358.717 90.1831 358.991 89.8482C359.266 89.5142 359.747 89.5274 360.066 89.8794C361.311 91.2521 363.193 91.7315 364.838 91.2138C363.878 90.6279 363.018 89.7157 362.412 88.2972C362.219 87.8461 362.367 87.3352 362.741 87.1566C363.117 86.977 363.575 87.1996 363.768 87.652C365.127 90.8355 368.302 90.6403 371.228 90.0289L371.612 89.9484C373.808 89.4807 376.451 88.9278 378.89 90.9497C378.972 90.3126 379.196 89.5506 379.643 88.642C379.997 87.9218 380.426 87.2082 380.88 86.453L380.88 86.4526C382.717 83.3978 384.453 80.5115 381.83 76.984C381.107 76.0101 379.45 75.3633 378.136 75.5425C377.467 75.6339 376.601 75.9688 376.279 77.0452C375.981 78.0458 376.156 78.9231 376.763 79.4527C377.269 79.8955 378.142 80.0788 378.863 79.4335C379.181 79.1481 379.661 79.241 379.94 79.6361C380.218 80.0315 380.187 80.5806 379.871 80.8631C378.737 81.8778 377.112 81.858 375.921 80.8158C374.991 80.0015 374.215 78.3955 374.832 76.3294C375.259 74.8988 376.317 73.9982 377.81 73.7949C379.682 73.5403 381.842 74.4334 382.946 75.9184C386.379 80.5369 384.04 84.4253 382.159 87.5472L382.15 87.5613L382.15 87.5615L382.149 87.5625C381.717 88.2834 381.308 88.9639 380.986 89.6192C380.594 90.4175 380.379 91.1574 380.374 91.6623C380.949 91.01 381.542 90.3196 382.136 89.628L382.136 89.6279L382.136 89.6277L382.136 89.6276L382.137 89.6264L382.137 89.6263L382.138 89.6259L382.138 89.6258L382.138 89.6256C383.423 88.1293 384.713 86.628 385.831 85.4972C388.246 86.6137 388.984 91.5405 385.646 94.9854C387.29 96.0189 388.08 96.5805 389.68 97.7414C389.928 97.9219 390.227 98.1563 390.558 98.4337C400.969 72.2362 412.259 58.7911 417.69 53.3718C415.983 50.3143 412.46 42.9451 412.46 42.9451C412.46 42.9451 411.376 43.5898 410.618 43.6586C409.861 43.7269 408.666 43.4389 408.383 42.6009C409.536 42.1644 410.292 41.4855 410.718 41.1036C410.946 40.8989 411.079 40.7795 411.127 40.8286C411.548 40.3241 412.104 39.8211 412.737 39.3187C412.645 39.1807 412.55 39.0504 412.454 38.925C412.36 38.8895 412.255 38.8554 412.131 38.8239C410.49 38.4124 407.612 38.8898 405.757 40.6918C405.719 40.7452 405.672 40.7914 405.62 40.8325C405.392 41.0693 405.178 41.3235 404.99 41.6034C404.448 42.408 403.856 43.6143 403.229 44.892L403.229 44.8922L403.228 44.8945L403.227 44.8956C401.478 48.4616 399.132 53.2458 395.299 54.5363C393.401 55.1758 391.139 54.9579 388.404 53.3099C386.099 51.9218 384.485 49.8713 383.709 47.4104C382.489 47.0826 380.804 46.0672 380.678 43.8098C380.652 43.3252 380.969 42.9457 381.39 42.9627C381.81 42.9798 382.172 43.387 382.2 43.8722C382.247 44.7292 382.773 45.203 383.284 45.4647C383.28 45.4287 383.274 45.3929 383.269 45.357C383.261 45.2987 383.253 45.2403 383.247 45.1812C382.837 41.1858 384.426 37.694 386.129 36.4368C386.465 36.1875 386.943 36.3224 387.195 36.7396C387.446 37.1559 387.375 37.6956 387.038 37.9452C385.689 38.9411 384.435 41.9782 384.761 45.148C384.964 47.1258 385.864 49.8794 389 51.7684C395.97 55.9687 399.248 49.2877 401.883 43.9176C401.947 43.7866 402.009 43.6608 402.071 43.5358L402.094 43.4893L402.183 43.3076C400.68 44.5835 399.345 46.046 397.778 48.0715C397.248 48.7567 396.149 49.6123 394.878 50.0404C394.31 50.2315 393.709 50.3377 393.108 50.305C391.967 50.2438 390.947 49.6888 390.158 48.7014C388.933 47.1693 388.51 45.1828 389.054 43.5175C389.649 41.6904 391.259 40.6176 393.365 40.6478C393.784 40.6533 394.154 41.0526 394.19 41.5377C394.227 42.0238 393.916 42.4118 393.498 42.4061C391.981 42.3831 390.883 43.0656 390.488 44.2758C390.142 45.3326 390.421 46.568 391.23 47.5816C391.72 48.1939 392.307 48.5102 393.027 48.5488C394.478 48.6269 396.006 47.5302 396.541 46.8966C396.03 46.7738 395.595 46.5426 395.244 46.1962C394.552 45.5134 394.472 44.6698 394.465 44.5757C394.429 44.0899 394.741 43.7024 395.161 43.7104C395.571 43.7181 395.934 44.1024 395.982 44.5752C395.987 44.6092 396.023 44.7799 396.187 44.9294C396.351 45.0793 396.765 45.3164 397.694 45.2219C397.759 45.2148 397.825 45.2221 397.889 45.2345C399.992 42.7449 401.913 41.0891 404.605 39.3985C406.051 37.9225 407.964 37.1991 409.676 36.9936C408.455 36.6673 407.154 36.7783 405.873 36.8892L405.475 36.9228C404.472 37.0061 402.633 37.1574 400.839 36.6345C400.798 36.6732 400.753 36.7075 400.702 36.7349C400.419 36.8874 400.127 37.0133 399.83 37.1133C397.401 37.9311 394.613 37.0207 392.907 34.7499C392.619 34.3647 392.632 33.8132 392.938 33.5169C393.245 33.2199 393.726 33.2914 394.016 33.6768C395.139 35.1727 396.978 35.87 398.674 35.5661C397.767 34.874 396.994 33.8663 396.516 32.4036C396.363 31.9368 396.556 31.453 396.946 31.3215L396.949 31.3208C397.34 31.1906 397.783 31.464 397.936 31.9318C399.013 35.2266 402.22 35.4171 405.216 35.1695L405.609 35.1359C407.857 34.9409 410.562 34.7157 412.828 36.9979C412.968 36.3814 413.262 35.6592 413.793 34.8192C414.214 34.1535 414.709 33.5033 415.234 32.8153C417.357 30.0322 419.361 27.4027 417.047 23.6168C416.408 22.5718 414.803 21.7363 413.466 21.7535C412.785 21.7623 411.885 21.9864 411.465 23.0085C411.074 23.9559 411.171 24.8398 411.732 25.4333C412.201 25.9304 413.062 26.2152 413.844 25.6679C414.188 25.4275 414.663 25.575 414.907 25.9967C415.15 26.4184 415.07 26.9551 414.727 27.195C413.495 28.0553 411.866 27.8421 410.764 26.6728C409.902 25.7592 409.269 24.0862 410.076 22.1287C410.633 20.7733 411.777 20.0142 413.297 19.9952ZM235.095 207.566C234.962 206.12 235.72 203.024 236.477 201.938C238.536 201.931 241.31 201.714 245.114 201.214C254.944 199.92 274.84 195.603 277.551 194.759C277.711 194.709 277.87 194.652 278.028 194.591C278.746 195.088 280.213 197.309 281.231 199.228C271.445 201.314 243.639 207.021 237.491 207.498C236.653 207.563 235.853 207.584 235.095 207.566Z" fill="url(#paint0_linear_297_7226)"/>
</g>
<path d="M459.947 448.381C464.502 442.433 472.243 429.044 473.382 405.735C475.575 360.831 455.419 364.006 450.629 335.701C443.108 291.255 441.384 261.476 406.115 235.534C377.576 214.542 307.175 187.538 243.774 227.722C191.17 261.064 134.101 196.798 82.6871 235.534C46.5142 262.787 67.689 295.108 46.5142 320.895C31.8521 338.75 6.35711 345.916 1.40739 381.448C-3.69768 418.095 15.3009 441.921 22.5332 449.506C18.2707 450.345 16.0106 451.221 16.0106 452.123C16.0106 458.193 118.434 463.115 244.779 463.115C371.125 463.115 473.548 458.193 473.548 452.123C473.548 450.809 468.747 449.549 459.947 448.381Z" fill="url(#paint1_linear_297_7226)"/>
<path d="M391.586 265.425L398.947 280.438" stroke="white" stroke-width="3" stroke-miterlimit="10" stroke-linecap="round" stroke-linejoin="round"/>
<path d="M386.947 273.629L403.586 272.234" stroke="white" stroke-width="3" stroke-miterlimit="10" stroke-linecap="round" stroke-linejoin="round"/>
<path d="M399.164 266.04L391.227 280.075" stroke="white" stroke-width="3" stroke-miterlimit="10" stroke-linecap="round" stroke-linejoin="round"/>
<path d="M135.811 262.67L149.603 272.099" stroke="white" stroke-width="3" stroke-miterlimit="10" stroke-linecap="round" stroke-linejoin="round"/>
<path d="M135.811 272.099L149.603 262.67" stroke="white" stroke-width="3" stroke-miterlimit="10" stroke-linecap="round" stroke-linejoin="round"/>
<path d="M142.707 259.464V275.595" stroke="white" stroke-width="3" stroke-miterlimit="10" stroke-linecap="round" stroke-linejoin="round"/>
<path d="M230.649 245.449L233.889 258.508" stroke="white" stroke-width="3" stroke-miterlimit="10" stroke-linecap="round" stroke-linejoin="round"/>
<path d="M225.609 251.11L238.93 252.847" stroke="white" stroke-width="3" stroke-miterlimit="10" stroke-linecap="round" stroke-linejoin="round"/>
<path d="M236.504 247.223L227.88 256.908" stroke="white" stroke-width="3" stroke-miterlimit="10" stroke-linecap="round" stroke-linejoin="round"/>
<path d="M30.6224 372.291L36.3155 383.902" stroke="white" stroke-width="3" stroke-miterlimit="10" stroke-linecap="round" stroke-linejoin="round"/>
<path d="M27.0344 378.636L39.9035 377.557" stroke="white" stroke-width="3" stroke-miterlimit="10" stroke-linecap="round" stroke-linejoin="round"/>
<path d="M36.4831 372.766L30.3446 383.621" stroke="white" stroke-width="3" stroke-miterlimit="10" stroke-linecap="round" stroke-linejoin="round"/>
<path d="M450.02 398.732L455.713 410.343" stroke="white" stroke-width="3" stroke-miterlimit="10" stroke-linecap="round" stroke-linejoin="round"/>
<path d="M446.432 405.077L459.301 403.998" stroke="white" stroke-width="3" stroke-miterlimit="10" stroke-linecap="round" stroke-linejoin="round"/>
<path d="M455.88 399.208L449.742 410.062" stroke="white" stroke-width="3" stroke-miterlimit="10" stroke-linecap="round" stroke-linejoin="round"/>
<path d="M141.38 347.172C141.38 347.172 112.611 303.711 105.372 297.314C98.1326 290.917 86.2605 297.417 90.5999 305.162C94.9394 312.907 94.7005 319.11 89.9931 320.945C80.3573 324.699 60.3154 290.117 90.5999 278.522C120.885 266.927 155.611 343.812 155.611 343.812L141.38 347.172Z" fill="white"/>
<path d="M141.38 347.172L155.611 343.812C155.611 343.812 152.299 336.48 146.831 326.688C144.037 329.236 140.004 333.718 136.887 340.453C139.63 344.528 141.38 347.172 141.38 347.172Z" fill="#FE434C"/>
<path d="M113.524 283.825C108.156 279.842 102.618 277.365 97.1316 277.333C95.3463 282.305 95.5648 288.183 97.3926 294.787C100.055 294.494 102.968 295.19 105.372 297.314C106.421 298.242 107.925 299.951 109.726 302.191C109.546 295.313 110.751 289.16 113.524 283.825Z" fill="#FE434C"/>
<path d="M118.838 314.352C121.828 318.517 124.946 322.976 127.878 327.226C129.409 320.466 132.208 314.651 136.722 310.115C133.742 305.671 130.51 301.238 127.101 297.134C123.571 302.191 120.637 307.773 118.838 314.352Z" fill="#FE434C"/>
<path d="M80.1782 285.08C76.603 288.773 74.946 293.105 74.6011 297.467C79.4059 302.095 84.5908 303.935 90.0326 303.889C89.3347 301.863 89.7137 299.974 90.7734 298.442C86.0335 294.95 82.5377 290.468 80.1782 285.08Z" fill="#FE434C"/>
<path d="M89.9933 320.945C92.2849 320.052 93.5088 318.117 93.6697 315.48C88.769 316.135 83.906 315.691 79.0824 314.1C82.3637 319.149 86.7625 322.203 89.9933 320.945Z" fill="#FE434C"/>
<path d="M385.343 379.01C385.343 379.01 404.62 330.571 410.399 322.825C416.178 315.078 429.127 319.006 426.462 327.477C423.798 335.949 425.299 341.971 430.281 342.801C440.481 344.5 453.031 306.541 421.018 301.402C389.005 296.262 370.726 378.639 370.726 378.639L385.343 379.01Z" fill="white"/>
<path d="M385.343 379.01L370.726 378.639C370.726 378.639 372.47 370.784 375.821 360.078C379.077 361.999 383.94 365.559 388.368 371.512C386.516 376.064 385.343 379.01 385.343 379.01Z" fill="#FE434C"/>
<path d="M399.663 311.292C404.103 306.294 409.018 302.734 414.382 301.577C417.145 306.078 418.133 311.876 417.693 318.715C415.027 318.974 412.318 320.252 410.399 322.825C409.561 323.948 408.439 325.93 407.134 328.491C405.905 321.722 403.467 315.946 399.663 311.292Z" fill="#FE434C"/>
<path d="M400.7 342.263C398.625 346.953 396.484 351.957 394.482 356.718C391.603 350.415 387.675 345.298 382.329 341.782C384.337 336.822 386.595 331.82 389.093 327.104C393.583 331.329 397.594 336.192 400.7 342.263Z" fill="#FE434C"/>
<path d="M432.559 305.684C436.814 308.565 439.321 312.466 440.55 316.664C436.793 322.18 432.094 325.044 426.758 326.115C427.027 323.989 426.27 322.218 424.919 320.935C428.845 316.546 431.351 311.441 432.559 305.684Z" fill="#FE434C"/>
<path d="M430.282 342.801C427.856 342.397 426.263 340.755 425.566 338.206C430.497 337.842 435.166 336.411 439.563 333.865C437.383 339.48 433.701 343.371 430.282 342.801Z" fill="#FE434C"/>
<path d="M52.6953 364.007L55.6817 447.463H131.885L129.487 362.04L52.6953 364.007Z" fill="#4BB4AD"/>
<path d="M70.0661 349.69L52.6953 364.006L129.487 362.04L142.502 345.916L70.0661 349.69Z" fill="#258A86"/>
<path d="M92.29 447.463L88.5696 363.088L105.318 347.853" stroke="white" stroke-width="3" stroke-miterlimit="10" stroke-linecap="round" stroke-linejoin="round"/>
<path d="M62.6324 355.817L136.465 353.396" stroke="white" stroke-width="3" stroke-miterlimit="10" stroke-linecap="round" stroke-linejoin="round"/>
<path d="M53.7177 392.576L130.286 390.506" stroke="white" stroke-width="3" stroke-miterlimit="10" stroke-linecap="round" stroke-linejoin="round"/>
<path d="M97.5985 354.606C97.5985 354.606 70.9223 343.515 80.3406 333.566C89.759 323.617 97.5985 354.606 97.5985 354.606Z" stroke="white" stroke-width="3" stroke-miterlimit="10" stroke-linecap="round" stroke-linejoin="round"/>
<path d="M86.6765 418.302C82.2242 416.587 74.8608 407.839 75.5458 399.262C76.4114 388.424 82.9092 387.084 85.3066 387.77C87.704 388.456 88.3643 391.699 84.1079 390.506C79.8515 389.314 71.7741 382.967 73.8334 373.19C75.8926 363.412 83.6819 360.9 87.2065 361.011C90.7311 361.121 92.1563 367.186 86.5053 366.5C80.8543 365.814 72.4634 351.577 83.0573 345.916C93.6532 340.254 97.5984 354.606 97.5984 354.606" stroke="white" stroke-width="3" stroke-miterlimit="10" stroke-linecap="round" stroke-linejoin="round"/>
<path d="M97.5986 354.626C97.5986 354.626 97.9411 334.164 106.674 337.594C115.408 341.025 97.5986 354.626 97.5986 354.626Z" stroke="white" stroke-width="3" stroke-miterlimit="10" stroke-linecap="round" stroke-linejoin="round"/>
<path d="M232.139 286.097H346.323L349.029 447.463H234.575L232.139 286.097Z" fill="#E1283A"/>
<path d="M372.569 447.463L367.699 271.19L245.668 274.442L232.139 286.097H346.323L349.029 447.463H372.569Z" fill="#FE434C"/>
<path d="M286.796 447.463L288.69 286.097L302.354 272.931" stroke="white" stroke-width="3" stroke-miterlimit="10" stroke-linecap="round" stroke-linejoin="round"/>
<path d="M239.431 279.815L358.77 277.695L361.181 445.774" stroke="white" stroke-width="3" stroke-miterlimit="10" stroke-linecap="round" stroke-linejoin="round"/>
<path d="M296.675 278.946C296.675 278.946 269.064 279.213 271.716 266.402C274.369 253.591 296.675 278.946 296.675 278.946Z" stroke="white" stroke-width="3" stroke-miterlimit="10" stroke-linecap="round" stroke-linejoin="round"/>
<path d="M233.133 351.955L347.304 344.594L369.129 322.955" stroke="white" stroke-width="3" stroke-miterlimit="10" stroke-linecap="round" stroke-linejoin="round"/>
<path d="M296.675 278.946C296.097 278.303 272.827 243.34 284.865 236.229C296.903 229.117 296.675 278.946 296.675 278.946Z" stroke="white" stroke-width="3" stroke-miterlimit="10" stroke-linecap="round" stroke-linejoin="round"/>
<path d="M296.675 278.946C296.675 278.946 294.665 241.33 308.864 245.118C323.062 248.905 296.675 278.946 296.675 278.946Z" stroke="white" stroke-width="3" stroke-miterlimit="10" stroke-linecap="round" stroke-linejoin="round"/>
<path d="M296.675 278.946C296.675 278.946 315.263 252.814 324.837 265.601C332.476 275.805 296.675 278.946 296.675 278.946Z" stroke="white" stroke-width="3" stroke-miterlimit="10" stroke-linecap="round" stroke-linejoin="round"/>
<path d="M396.63 364.006H302.354V447.463H396.63V364.006Z" fill="#4BB4AD"/>
<path d="M407.917 447.463V349.822L315.962 351.955L302.354 364.006H396.63V447.463H407.917Z" fill="#258A86"/>
<path d="M351.151 447.463V364.006L364.097 350.839" stroke="white" stroke-width="3" stroke-miterlimit="10" stroke-linecap="round" stroke-linejoin="round"/>
<path d="M310.2 357.058L402.918 356.104L403.601 447.463" stroke="white" stroke-width="3" stroke-miterlimit="10" stroke-linecap="round" stroke-linejoin="round"/>
<path d="M302.354 390.447H396.63L407.917 383.324" stroke="white" stroke-width="3" stroke-miterlimit="10" stroke-linecap="round" stroke-linejoin="round"/>
<path d="M358.47 356.562C358.47 356.562 324.922 346.038 336.435 332.957C347.948 319.875 358.47 356.562 358.47 356.562Z" stroke="white" stroke-width="3" stroke-miterlimit="10" stroke-linecap="round" stroke-linejoin="round"/>
<path d="M358.101 356.562C358.101 356.562 354.463 330.797 368.281 334.168C382.099 337.54 358.101 356.562 358.101 356.562Z" stroke="white" stroke-width="3" stroke-miterlimit="10" stroke-linecap="round" stroke-linejoin="round"/>
<path d="M358.47 356.562C358.47 356.562 365.304 340.868 377.333 349.822C389.361 358.776 381.285 374.956 373.724 377.537C366.163 380.119 362.559 370.82 370.375 368.068C378.192 365.316 389.189 367.726 391.939 381.152C394.688 394.578 382.144 400.555 379.223 401.784C376.302 403.012 370.115 399.742 376.645 396.299C383.175 392.857 390.392 401.291 386.784 412.651C383.175 424.012 371.473 429.692 371.473 429.692" stroke="white" stroke-width="3" stroke-miterlimit="10" stroke-linecap="round" stroke-linejoin="round"/>
<path d="M129.487 362.04C129.487 362.04 176.671 295.041 196.153 295.041C215.634 295.041 273.808 362.04 273.808 362.04V447.463C273.808 447.463 131.918 448.643 131.885 447.463C131.851 446.283 129.487 362.04 129.487 362.04Z" fill="#CC9966"/>
<path d="M145.284 401.828C144.743 398.034 144.743 371.473 147.178 351.958C149.614 332.444 156.271 314.832 158.001 314.284C188.847 304.527 276.514 305.882 271.103 317.808C254.646 354.073 252.162 404.539 249.186 409.688C246.21 414.838 145.284 401.828 145.284 401.828Z" fill="white"/>
<path d="M166.805 330.004C166.805 330.004 197.411 321.873 243.774 334.07" stroke="#E6D8D6" stroke-width="4" stroke-miterlimit="10" stroke-linecap="round" stroke-linejoin="round"/>
<path d="M162.328 345.757C162.328 345.757 192.934 337.626 239.297 349.822" stroke="#E6D8D6" stroke-width="4" stroke-miterlimit="10" stroke-linecap="round" stroke-linejoin="round"/>
<path d="M160.392 363.301C160.392 363.301 190.997 355.17 237.36 367.367" stroke="#E6D8D6" stroke-width="4" stroke-miterlimit="10" stroke-linecap="round" stroke-linejoin="round"/>
<path d="M156.271 379.259C156.271 379.259 186.876 371.128 233.239 383.324" stroke="#E6D8D6" stroke-width="4" stroke-miterlimit="10" stroke-linecap="round" stroke-linejoin="round"/>
<path d="M129.487 362.04C129.487 362.04 189.929 396.679 194.529 406.707C199.129 416.735 131.885 447.463 131.885 447.463L129.487 362.04Z" fill="#F1AF78"/>
<path d="M273.809 362.04C273.809 362.04 203.458 380.959 205.082 406.436C206.705 431.913 273.809 447.463 273.809 447.463V362.04Z" fill="#F1AF78"/>
<path d="M131.885 447.463C131.885 447.463 166.841 393.622 194.755 392.576C222.669 391.529 273.808 447.463 273.808 447.463H131.885Z" fill="#CC9966"/>
<path d="M220.837 382.559C217.558 383.891 214.36 383.782 211.291 381.376C209.351 385.326 206.748 385.319 203.811 383.324C203.42 387.554 200.927 389.928 196.332 390.447C197.03 393.133 196.326 395.658 193.478 397.938C195.89 400.928 195.531 404.35 194.751 407.837C198.387 405.028 202.282 404.358 206.567 406.909C206.427 402.325 209.571 401.567 214.735 403.163C214.981 398.891 217.467 396.419 222.707 396.164C220.355 393.776 220.42 391.449 223.199 389.19C219.839 386.822 218.987 384.608 220.837 382.559Z" fill="#258A86"/>
<path d="M234.214 423.551C231.404 421.398 228.015 418.559 228.524 414.689C224.143 415.022 220.601 412.702 220.825 409.155C216.989 410.965 213.68 410.02 210.9 406.318C208.945 408.284 206.417 408.96 203.009 407.66C201.662 411.26 198.538 412.688 195.143 413.786C199.405 415.497 201.959 418.517 201.942 423.51C205.813 421.062 208.062 423.39 209.312 428.656C213.111 426.699 216.498 427.588 219.38 431.98C220.239 428.739 223.989 427.336 227.343 428.587C227.673 424.485 231.513 422.995 234.214 423.551Z" fill="#258A86"/>
<path d="M222.441 420.528C196.725 408.994 177.562 414.858 177.562 414.858" stroke="#303E4E" stroke-width="2" stroke-miterlimit="10" stroke-linecap="round" stroke-linejoin="round"/>
<path d="M215.673 386.606C191.66 401.787 186.744 423.551 186.744 423.551" stroke="#303E4E" stroke-width="2" stroke-miterlimit="10" stroke-linecap="round" stroke-linejoin="round"/>
<path d="M195.143 422.189C194.363 421.795 182.061 386.886 182.061 386.886" stroke="#303E4E" stroke-width="2" stroke-miterlimit="10" stroke-linecap="round" stroke-linejoin="round"/>
<path d="M191.706 389.19L188.141 403.924" stroke="#303E4E" stroke-width="2" stroke-miterlimit="10" stroke-linecap="round" stroke-linejoin="round"/>
<path d="M174.779 394.607C175.172 394.784 187.034 400.849 187.034 400.849" stroke="#303E4E" stroke-width="2" stroke-miterlimit="10" stroke-linecap="round" stroke-linejoin="round"/>
<path d="M192.735 390.19C194.581 390.19 196.077 388.691 196.077 386.842C196.077 384.993 194.581 383.495 192.735 383.495C190.89 383.495 189.393 384.993 189.393 386.842C189.393 388.691 190.89 390.19 192.735 390.19Z" fill="#FE434C"/>
<path d="M180.905 388.072C182.75 388.072 184.247 386.573 184.247 384.724C184.247 382.875 182.75 381.376 180.905 381.376C179.059 381.376 177.562 382.875 177.562 384.724C177.562 386.573 179.059 388.072 180.905 388.072Z" fill="#FE434C"/>
<path d="M174.779 397.955C176.624 397.955 178.121 396.456 178.121 394.607C178.121 392.758 176.624 391.259 174.779 391.259C172.933 391.259 171.436 392.758 171.436 394.607C171.436 396.456 172.933 397.955 174.779 397.955Z" fill="#FE434C"/>
<path d="M29.5551 412.236C29.5551 412.236 21.4713 404.853 27.3841 400.757C33.2969 396.661 37.1005 407.318 37.1005 407.318L29.5551 412.236Z" fill="#303E4E"/>
<path d="M289.554 399.821C289.554 399.821 289.131 387.82 296.866 389.32C304.6 390.819 299.183 401.971 299.183 401.971L289.554 399.821Z" fill="#303E4E"/>
<path d="M333.7 420.535C333.7 420.535 336.552 412.324 341.38 415.364C346.209 418.405 339.637 424.512 339.637 424.512L333.7 420.535Z" fill="#303E4E"/>
<path d="M420.924 409.711C420.924 409.711 423.181 400.198 428.93 403.049C434.679 405.9 428.02 413.483 428.02 413.483L420.924 409.711Z" fill="#303E4E"/>
<path d="M27.3841 400.757C27.3841 400.757 3.32507 381.08 10.5799 375.196C17.8348 369.311 27.3841 400.757 27.3841 400.757Z" stroke="#303E4E" stroke-width="2" stroke-miterlimit="10" stroke-linecap="round" stroke-linejoin="round"/>
<path d="M296.865 389.32C296.865 389.32 293.811 355.364 303.972 356.545C314.134 357.727 296.865 389.32 296.865 389.32Z" stroke="#303E4E" stroke-width="2" stroke-miterlimit="10" stroke-linecap="round" stroke-linejoin="round"/>
<path d="M341.38 415.365C341.38 415.365 348.195 391.644 354.745 395.107C361.294 398.569 341.38 415.365 341.38 415.365Z" stroke="#303E4E" stroke-width="2" stroke-miterlimit="10" stroke-linecap="round" stroke-linejoin="round"/>
<path d="M428.929 403.049C428.929 403.049 433.855 375.729 441.578 378.855C449.301 381.982 428.929 403.049 428.929 403.049Z" stroke="#303E4E" stroke-width="2" stroke-miterlimit="10" stroke-linecap="round" stroke-linejoin="round"/>
<path d="M46.514 453.802C59.9065 453.802 70.7633 442.927 70.7633 429.512C70.7633 416.097 59.9065 405.221 46.514 405.221C33.1215 405.221 22.2648 416.097 22.2648 429.512C22.2648 442.927 33.1215 453.802 46.514 453.802Z" fill="#FE434C"/>
<path d="M289.044 452.984C303.72 452.984 315.617 441.067 315.617 426.366C315.617 411.666 303.72 399.748 289.044 399.748C274.369 399.748 262.471 411.666 262.471 426.366C262.471 441.067 274.369 452.984 289.044 452.984Z" fill="#FE434C"/>
<path d="M414.798 452.117C426.749 452.117 436.437 442.413 436.437 430.442C436.437 418.472 426.749 408.767 414.798 408.767C402.848 408.767 393.16 418.472 393.16 430.442C393.16 442.413 402.848 452.117 414.798 452.117Z" fill="#FE434C"/>
<path d="M326.416 457.59C337.042 457.59 345.655 448.962 345.655 438.319C345.655 427.676 337.042 419.048 326.416 419.048C315.791 419.048 307.178 427.676 307.178 438.319C307.178 448.962 315.791 457.59 326.416 457.59Z" fill="#E1283A"/>
<path d="M31.6488 422.333L59.7594 438.283" stroke="white" stroke-width="2" stroke-miterlimit="10" stroke-linecap="round" stroke-linejoin="round"/>
<path d="M30.9874 419.092L31.881 422.676L28.0946 423.131" stroke="white" stroke-width="2" stroke-miterlimit="10" stroke-linecap="round" stroke-linejoin="round"/>
<path d="M60.7608 441.68L59.6241 438.158L63.3639 437.449" stroke="white" stroke-width="2" stroke-miterlimit="10" stroke-linecap="round" stroke-linejoin="round"/>
<path d="M35.2506 419.587L36.7492 425.598L30.3992 426.362" stroke="white" stroke-width="2" stroke-miterlimit="10" stroke-linecap="round" stroke-linejoin="round"/>
<path d="M56.1078 440.972L54.2015 435.065L60.473 433.876" stroke="white" stroke-width="2" stroke-miterlimit="10" stroke-linecap="round" stroke-linejoin="round"/>
<path d="M32.0045 438.172L59.4497 422.469" stroke="white" stroke-width="2" stroke-miterlimit="10" stroke-linecap="round" stroke-linejoin="round"/>
<path d="M28.8422 437.046L32.4164 438.153L31.0059 441.627" stroke="white" stroke-width="2" stroke-miterlimit="10" stroke-linecap="round" stroke-linejoin="round"/>
<path d="M62.9109 423.386L59.2748 422.52L60.4405 418.953" stroke="white" stroke-width="2" stroke-miterlimit="10" stroke-linecap="round" stroke-linejoin="round"/>
<path d="M31.3159 433.661L37.3103 435.517L34.9447 441.343" stroke="white" stroke-width="2" stroke-miterlimit="10" stroke-linecap="round" stroke-linejoin="round"/>
<path d="M60.0643 426.994L53.9667 425.541L55.9215 419.56" stroke="white" stroke-width="2" stroke-miterlimit="10" stroke-linecap="round" stroke-linejoin="round"/>
<path d="M46.1964 446.225L45.531 414.572" stroke="white" stroke-width="2" stroke-miterlimit="10" stroke-linecap="round" stroke-linejoin="round"/>
<path d="M48.7866 448.363L46.0012 445.861L43.7518 448.859" stroke="white" stroke-width="2" stroke-miterlimit="10" stroke-linecap="round" stroke-linejoin="round"/>
<path d="M42.9664 412.07L45.578 414.748L48.0323 411.913" stroke="white" stroke-width="2" stroke-miterlimit="10" stroke-linecap="round" stroke-linejoin="round"/>
<path d="M50.4134 444.497L45.7421 440.301L41.9697 445.329" stroke="white" stroke-width="2" stroke-miterlimit="10" stroke-linecap="round" stroke-linejoin="round"/>
<path d="M41.3409 416.37L45.7204 420.861L49.8363 416.107" stroke="white" stroke-width="2" stroke-miterlimit="10" stroke-linecap="round" stroke-linejoin="round"/>
<path d="M50.3503 432.945C51.7548 430.461 50.8233 427.273 48.2699 425.824C45.7165 424.376 42.5081 425.214 41.1037 427.698C39.6993 430.181 40.6307 433.369 43.1841 434.818C45.7375 436.267 48.9459 435.428 50.3503 432.945Z" stroke="white" stroke-width="2" stroke-miterlimit="10" stroke-linecap="round" stroke-linejoin="round"/>
<path d="M325.863 425.726L326.968 450.871" stroke="white" stroke-width="2" stroke-miterlimit="10" stroke-linecap="round" stroke-linejoin="round"/>
<path d="M327.724 423.951L325.734 426.021L323.871 423.708" stroke="white" stroke-width="2" stroke-miterlimit="10" stroke-linecap="round" stroke-linejoin="round"/>
<path d="M325.146 452.934L326.995 450.73L329.005 452.907" stroke="white" stroke-width="2" stroke-miterlimit="10" stroke-linecap="round" stroke-linejoin="round"/>
<path d="M329.157 426.971L325.82 430.441L322.696 426.563" stroke="white" stroke-width="2" stroke-miterlimit="10" stroke-linecap="round" stroke-linejoin="round"/>
<path d="M323.692 449.569L326.792 445.873L330.163 449.523" stroke="white" stroke-width="2" stroke-miterlimit="10" stroke-linecap="round" stroke-linejoin="round"/>
<path d="M315.586 432.498L337.247 444.14" stroke="white" stroke-width="2" stroke-miterlimit="10" stroke-linecap="round" stroke-linejoin="round"/>
<path d="M315.022 429.945L315.769 432.762L312.901 433.264" stroke="white" stroke-width="2" stroke-miterlimit="10" stroke-linecap="round" stroke-linejoin="round"/>
<path d="M338.072 446.804L337.142 444.045L339.97 443.343" stroke="white" stroke-width="2" stroke-miterlimit="10" stroke-linecap="round" stroke-linejoin="round"/>
<path d="M318.271 430.181L319.524 434.905L314.713 435.748" stroke="white" stroke-width="2" stroke-miterlimit="10" stroke-linecap="round" stroke-linejoin="round"/>
<path d="M334.523 446.413L332.963 441.787L337.706 440.609" stroke="white" stroke-width="2" stroke-miterlimit="10" stroke-linecap="round" stroke-linejoin="round"/>
<path d="M316.144 445.192L336.7 431.689" stroke="white" stroke-width="2" stroke-miterlimit="10" stroke-linecap="round" stroke-linejoin="round"/>
<path d="M315.806 447.785L316.303 444.913L313.402 444.665" stroke="white" stroke-width="2" stroke-miterlimit="10" stroke-linecap="round" stroke-linejoin="round"/>
<path d="M337.289 428.963L336.604 431.793L339.483 432.244" stroke="white" stroke-width="2" stroke-miterlimit="10" stroke-linecap="round" stroke-linejoin="round"/>
<path d="M319.022 447.264L319.855 442.448L314.989 442.032" stroke="white" stroke-width="2" stroke-miterlimit="10" stroke-linecap="round" stroke-linejoin="round"/>
<path d="M333.788 429.665L332.639 434.41L337.467 435.166" stroke="white" stroke-width="2" stroke-miterlimit="10" stroke-linecap="round" stroke-linejoin="round"/>
<path d="M326.598 442.454C328.812 442.357 330.525 440.426 330.425 438.142C330.325 435.858 328.449 434.086 326.235 434.183C324.021 434.281 322.307 436.211 322.407 438.495C322.508 440.779 324.384 442.552 326.598 442.454Z" stroke="white" stroke-width="2" stroke-miterlimit="10" stroke-linecap="round" stroke-linejoin="round"/>
<path d="M270.664 408.423C270.664 408.423 274.649 405.484 278.152 406.552C281.655 407.62 280.548 411.932 283.907 413.152C287.266 414.373 290.23 410.254 293.545 411.169C296.861 412.085 296.586 416.814 299.465 417.577C302.344 418.339 306.161 414.808 308.568 415.365C312.219 416.209 313.402 421.688 313.402 421.688" stroke="white" stroke-width="2" stroke-miterlimit="10" stroke-linecap="round" stroke-linejoin="round"/>
<path d="M264.137 430.166C264.137 430.166 268.121 427.227 271.624 428.294C275.127 429.362 274.02 433.675 277.379 434.895C280.738 436.116 283.703 431.996 287.018 432.912C290.333 433.827 290.059 438.557 292.937 439.319C295.816 440.082 299.398 436.116 301.805 436.672C305.456 437.516 306.373 442.271 306.373 442.271" stroke="white" stroke-width="2" stroke-miterlimit="10" stroke-linecap="round" stroke-linejoin="round"/>
<path d="M271.842 420.547C273.266 420.547 274.421 419.39 274.421 417.963C274.421 416.537 273.266 415.38 271.842 415.38C270.417 415.38 269.263 416.537 269.263 417.963C269.263 419.39 270.417 420.547 271.842 420.547Z" stroke="white" stroke-width="2" stroke-miterlimit="10" stroke-linecap="round" stroke-linejoin="round"/>
<path d="M288.655 426.563C290.775 426.563 292.492 424.843 292.492 422.72C292.492 420.597 290.775 418.877 288.655 418.877C286.536 418.877 284.819 420.597 284.819 422.72C284.819 424.843 286.536 426.563 288.655 426.563Z" stroke="white" stroke-width="2" stroke-miterlimit="10" stroke-linecap="round" stroke-linejoin="round"/>
<path d="M304.933 430.644C306.358 430.644 307.512 429.488 307.512 428.061C307.512 426.634 306.358 425.478 304.933 425.478C303.509 425.478 302.354 426.634 302.354 428.061C302.354 429.488 303.509 430.644 304.933 430.644Z" stroke="white" stroke-width="2" stroke-miterlimit="10" stroke-linecap="round" stroke-linejoin="round"/>
<path d="M418.381 441.817C425.081 441.817 430.513 436.377 430.513 429.665C430.513 422.953 425.081 417.512 418.381 417.512C411.68 417.512 406.248 422.953 406.248 429.665C406.248 436.377 411.68 441.817 418.381 441.817Z" stroke="white" stroke-width="2" stroke-miterlimit="10" stroke-linecap="round" stroke-linejoin="round"/>
<path d="M418.381 431.885C419.605 431.885 420.597 430.891 420.597 429.665C420.597 428.439 419.605 427.445 418.381 427.445C417.156 427.445 416.164 428.439 416.164 429.665C416.164 430.891 417.156 431.885 418.381 431.885Z" stroke="white" stroke-width="2" stroke-miterlimit="10" stroke-linecap="round" stroke-linejoin="round"/>
<path d="M417.92 417.522L418.381 427.444" stroke="white" stroke-width="2" stroke-miterlimit="10" stroke-linecap="round" stroke-linejoin="round"/>
<path d="M426.096 420.286C425.922 420.149 419.978 428.128 419.978 428.128" stroke="white" stroke-width="2" stroke-miterlimit="10" stroke-linecap="round" stroke-linejoin="round"/>
<path d="M420.597 429.665L430.153 426.721" stroke="white" stroke-width="2" stroke-miterlimit="10" stroke-linecap="round" stroke-linejoin="round"/>
<path d="M419.978 431.202L429.422 434.701" stroke="white" stroke-width="2" stroke-miterlimit="10" stroke-linecap="round" stroke-linejoin="round"/>
<path d="M417.92 431.837L415.198 441.131" stroke="white" stroke-width="2" stroke-miterlimit="10" stroke-linecap="round" stroke-linejoin="round"/>
<path d="M416.463 431.202L407.917 435.817" stroke="white" stroke-width="2" stroke-miterlimit="10" stroke-linecap="round" stroke-linejoin="round"/>
<path d="M416.164 429.665L406.27 428.963" stroke="white" stroke-width="2" stroke-miterlimit="10" stroke-linecap="round" stroke-linejoin="round"/>
<path d="M416.79 428.12L410.326 421.152" stroke="white" stroke-width="2" stroke-miterlimit="10" stroke-linecap="round" stroke-linejoin="round"/>
<path d="M423.66 440.609L419.287 431.689" stroke="white" stroke-width="2" stroke-miterlimit="10" stroke-linecap="round" stroke-linejoin="round"/>
<defs>
<linearGradient id="paint0_linear_297_7226" x1="256.755" y1="52.9226" x2="460.186" y2="148.163" gradientUnits="userSpaceOnUse">
<stop stop-color="#79C4FC"/>
<stop offset="0.837029" stop-color="#C0E1FA" stop-opacity="0"/>
</linearGradient>
<linearGradient id="paint1_linear_297_7226" x1="237.048" y1="207" x2="237.048" y2="426.041" gradientUnits="userSpaceOnUse">
<stop stop-color="#79C4FC"/>
<stop offset="0.802083" stop-color="#C0E1FA" stop-opacity="0"/>
</linearGradient>
</defs>
</svg>
