<svg width="56" height="56" viewBox="0 0 56 56" fill="none" xmlns="http://www.w3.org/2000/svg">
<g opacity="0.2" clip-path="url(#clip0_297_4164)">
<path d="M23.1761 7.74324C23.0747 7.36482 22.6857 7.14024 22.3073 7.24164C21.9288 7.34304 21.7043 7.73202 21.8057 8.11044L32.4545 47.8522C32.5558 48.2307 32.9448 48.4552 33.3233 48.3538C33.7017 48.2524 33.9263 47.8635 33.8249 47.485L23.1761 7.74324Z" fill="white"/>
<path d="M41.8623 12.7507L12.7668 41.8412C12.4897 42.1182 12.4897 42.5673 12.7667 42.8444C13.0437 43.1214 13.4929 43.1215 13.7699 42.8445L42.8655 13.754C43.1425 13.477 43.1425 13.0278 42.8655 12.7508C42.5885 12.4737 42.1394 12.4737 41.8623 12.7507Z" fill="white"/>
<path d="M8.12809 21.7879C7.74966 21.6865 7.36068 21.9111 7.25928 22.2895C7.15788 22.6679 7.38246 23.0569 7.76089 23.1583L47.5027 33.8071C47.8811 33.9085 48.2701 33.6839 48.3715 33.3055C48.4729 32.927 48.2483 32.5381 47.8699 32.4367L8.12809 21.7879Z" fill="white"/>
<path d="M34.5911 45.9578L32.9453 45.2972C32.8029 45.24 32.6458 45.2306 32.4975 45.2703C32.3492 45.31 32.2179 45.3968 32.1231 45.5175L31.0281 46.9125C30.9119 47.0605 30.7417 47.1563 30.5549 47.1788C30.3681 47.2013 30.1801 47.1487 30.0321 47.0325C29.9588 46.975 29.8976 46.9036 29.8519 46.8224C29.8062 46.7412 29.7769 46.6518 29.7658 46.5593C29.7547 46.4669 29.7618 46.3731 29.7869 46.2834C29.812 46.1937 29.8546 46.1098 29.9121 46.0365L31.3356 44.223C31.5251 43.9815 31.7879 43.808 32.0844 43.7286C32.3809 43.6491 32.6952 43.668 32.9801 43.7823L35.1196 44.6411C35.2942 44.7112 35.4338 44.8478 35.5077 45.0208C35.5816 45.1938 35.5838 45.3891 35.5137 45.5637C35.479 45.6501 35.4276 45.7289 35.3625 45.7955C35.2973 45.8621 35.2197 45.9152 35.134 45.9518C35.0484 45.9884 34.9563 46.0078 34.8632 46.0088C34.77 46.0098 34.6776 45.9925 34.5911 45.9578Z" fill="white"/>
<path d="M24.6951 16.1491C24.575 16.1818 24.4485 16.1822 24.3282 16.1505L19.484 14.8781C19.3937 14.8542 19.3091 14.8127 19.2349 14.756C19.1608 14.6993 19.0985 14.6285 19.0517 14.5477C19.005 14.4669 18.9746 14.3777 18.9624 14.2851C18.9502 14.1926 18.9564 14.0985 18.9807 14.0083V14.0083C19.0286 13.8265 19.1467 13.6711 19.3092 13.5763C19.4717 13.4816 19.6651 13.4552 19.847 13.503L23.9082 14.5717C24.0275 14.6031 24.153 14.6028 24.2722 14.5709C24.3914 14.539 24.5002 14.4765 24.5879 14.3896L27.5706 11.4335C27.7042 11.3011 27.8849 11.2272 28.073 11.2281C28.261 11.2289 28.4411 11.3044 28.5735 11.4379V11.4379C28.7059 11.5715 28.7797 11.7523 28.7789 11.9403C28.7781 12.1284 28.7026 12.3084 28.569 12.4409L25.01 15.9649C24.9229 16.0527 24.8143 16.1162 24.6951 16.1491V16.1491Z" fill="white"/>
<path d="M25.7974 20.2599C25.662 20.2962 25.519 20.2916 25.3862 20.2467L21.2153 18.8343C21.1269 18.8047 21.0452 18.7579 20.9749 18.6967C20.9045 18.6355 20.847 18.5611 20.8054 18.4776C20.7639 18.3941 20.7392 18.3033 20.7328 18.2103C20.7264 18.1172 20.7384 18.0239 20.7681 17.9355V17.9355C20.798 17.8472 20.845 17.7657 20.9064 17.6956C20.9677 17.6255 21.0423 17.5682 21.1258 17.5269C21.2094 17.4857 21.3002 17.4613 21.3932 17.4551C21.4862 17.4489 21.5794 17.4611 21.6677 17.491L24.945 18.6002C25.0778 18.6451 25.2208 18.6497 25.3562 18.6135C25.4916 18.5772 25.6132 18.5017 25.7056 18.3964L27.9894 15.7972C28.0508 15.7271 28.1255 15.6699 28.2091 15.6288C28.2927 15.5876 28.3836 15.5633 28.4765 15.5573C28.5695 15.5513 28.6628 15.5637 28.751 15.5937C28.8392 15.6237 28.9206 15.6708 28.9906 15.7323V15.7323C29.0606 15.7938 29.1178 15.8684 29.159 15.952C29.2001 16.0356 29.2244 16.1265 29.2304 16.2195C29.2364 16.3125 29.2241 16.4057 29.1941 16.4939C29.164 16.5821 29.1169 16.6635 29.0554 16.7335L26.1468 20.0429C26.0543 20.1482 25.9327 20.2237 25.7974 20.2599Z" fill="white"/>
<path d="M23.5929 12.038C23.4447 12.0777 23.2875 12.0683 23.1451 12.0111L20.5118 10.9541C20.3372 10.8841 20.1976 10.7475 20.1237 10.5745C20.0498 10.4015 20.0476 10.2062 20.1177 10.0316V10.0316C20.1878 9.85698 20.3244 9.71737 20.4974 9.64347C20.6704 9.56956 20.8657 9.56742 21.0403 9.6375L22.6861 10.2981C22.8285 10.3553 22.9857 10.3647 23.1339 10.325C23.2822 10.2853 23.4136 10.1985 23.5083 10.0778L24.6033 8.68278C24.7195 8.53479 24.8897 8.43901 25.0765 8.4165C25.2633 8.394 25.4513 8.44661 25.5993 8.56278V8.56278C25.7473 8.67895 25.8431 8.84914 25.8656 9.03593C25.8881 9.22272 25.8355 9.41079 25.7193 9.55879L23.9673 11.7908C23.8726 11.9115 23.7412 11.9983 23.5929 12.038Z" fill="white"/>
<path d="M35.7862 42.092L31.725 41.0233C31.6057 40.9919 31.4802 40.9922 31.361 41.0241C31.2418 41.056 31.133 41.1185 31.0453 41.2054L28.0626 44.1615C27.929 44.2939 27.7483 44.3678 27.5602 44.3669C27.3722 44.3661 27.1921 44.2906 27.0597 44.1571V44.1571C26.9273 44.0235 26.8535 43.8428 26.8543 43.6547C26.8551 43.4666 26.9306 43.2866 27.0642 43.1542L30.3346 39.9124C30.5099 39.7386 30.7275 39.6137 30.966 39.5498C31.2044 39.4859 31.4553 39.4853 31.694 39.5481L36.1472 40.7204C36.3291 40.7683 36.4845 40.8865 36.5792 41.0489C36.674 41.2114 36.7004 41.4048 36.6525 41.5867C36.6046 41.7685 36.4864 41.9239 36.324 42.0187C36.1615 42.1134 35.9681 42.1398 35.7862 42.092Z" fill="white"/>
<path d="M33.9645 38.1037L30.6871 36.9946C30.5544 36.9496 30.4113 36.945 30.276 36.9812C30.1406 37.0175 30.019 37.0931 29.9266 37.1984L27.6428 39.7976C27.5813 39.8676 27.5067 39.9248 27.4231 39.9659C27.3395 40.0071 27.2486 40.0314 27.1556 40.0374C27.0627 40.0434 26.9694 40.0311 26.8812 40.001C26.793 39.971 26.7116 39.9239 26.6416 39.8624C26.5716 39.8009 26.5144 39.7263 26.4732 39.6427C26.4321 39.5591 26.4078 39.4682 26.4018 39.3752C26.3957 39.2823 26.4081 39.189 26.4381 39.1008C26.4681 39.0126 26.5152 38.9312 26.5767 38.8612L29.1737 35.9071C29.3586 35.6968 29.6015 35.5459 29.872 35.4735C30.1424 35.401 30.4282 35.4102 30.6935 35.4998L34.4196 36.7597C34.5078 36.7896 34.5893 36.8365 34.6594 36.8979C34.7295 36.9593 34.7869 37.0339 34.8281 37.1174C34.8694 37.2009 34.8938 37.2918 34.9 37.3847C34.9061 37.4777 34.8939 37.571 34.864 37.6592C34.8342 37.7475 34.7872 37.829 34.7258 37.8991C34.6644 37.9692 34.5899 38.0265 34.5063 38.0678C34.4228 38.109 34.332 38.1335 34.239 38.1396C34.146 38.1458 34.0527 38.1336 33.9645 38.1037Z" fill="white"/>
<path d="M19.4208 41.8465L18.316 37.7949C18.2832 37.6756 18.2197 37.5671 18.132 37.4799C18.0442 37.3928 17.9352 37.3301 17.8157 37.2981L13.7675 36.1928C13.6776 36.1683 13.5934 36.1263 13.5197 36.0693C13.446 36.0122 13.3843 35.9412 13.3381 35.8603C13.2919 35.7794 13.262 35.6902 13.2503 35.5977C13.2385 35.5053 13.2451 35.4114 13.2697 35.3215C13.3192 35.1401 13.4387 34.9858 13.602 34.8925C13.7652 34.7992 13.9588 34.7745 14.1403 34.8239L18.5826 36.0351C18.8208 36.1001 19.0379 36.2261 19.2125 36.4008C19.387 36.5754 19.513 36.7926 19.5779 37.0308L20.7895 41.4731C20.8382 41.6549 20.8127 41.8485 20.7186 42.0114C20.6246 42.1743 20.4696 42.2932 20.2879 42.3419C20.1072 42.3903 19.9148 42.3655 19.7524 42.2727C19.59 42.1799 19.4708 42.0267 19.4208 41.8465Z" fill="white"/>
<path d="M22.8017 38.8353C22.6172 38.872 22.4258 38.8341 22.2693 38.7298C22.1129 38.6254 22.0043 38.4633 21.9674 38.2789L21.2888 34.8857C21.2612 34.7484 21.1936 34.6224 21.0946 34.5235C20.9956 34.4246 20.8695 34.3572 20.7322 34.3298L17.3387 33.6505C17.1543 33.6136 16.9922 33.505 16.8879 33.3485C16.7836 33.1921 16.7457 33.0006 16.7825 32.8162V32.8162C16.8187 32.6318 16.9267 32.4693 17.0828 32.3644C17.2388 32.2596 17.43 32.2209 17.6145 32.2569L21.4719 33.0285C21.7465 33.0835 21.9986 33.2185 22.1966 33.4165C22.3946 33.6144 22.5296 33.8666 22.5845 34.1412L23.3559 37.9986C23.3745 38.0899 23.3749 38.184 23.3571 38.2755C23.3393 38.367 23.3036 38.4541 23.2522 38.5318C23.2007 38.6095 23.1344 38.6763 23.0571 38.7284C22.9798 38.7804 22.893 38.8168 22.8017 38.8353V38.8353Z" fill="white"/>
<path d="M16.279 43.3471C16.0928 43.3737 15.9037 43.3252 15.7533 43.2124C15.6028 43.0996 15.5033 42.9316 15.4766 42.7455L15.2263 40.989C15.2046 40.8371 15.1342 40.6963 15.0257 40.5878C14.9171 40.4793 14.7764 40.409 14.6244 40.3873L12.8682 40.1367C12.6821 40.1099 12.5142 40.0104 12.4015 39.8599C12.2887 39.7094 12.2403 39.5204 12.2669 39.3343V39.3343C12.2935 39.1481 12.3929 38.9801 12.5434 38.8672C12.6938 38.7543 12.8829 38.7058 13.0691 38.7323L15.3516 39.0585C15.6555 39.1019 15.937 39.2427 16.1541 39.4597C16.3711 39.6767 16.5119 39.9582 16.5554 40.262L16.8813 42.5446C16.8945 42.6368 16.8894 42.7308 16.8662 42.821C16.8431 42.9113 16.8024 42.9961 16.7464 43.0706C16.6905 43.1452 16.6204 43.208 16.5402 43.2554C16.46 43.3028 16.3712 43.334 16.279 43.3471Z" fill="white"/>
<path d="M41.4894 20.7716L37.0519 19.5591C36.8137 19.4941 36.5966 19.368 36.422 19.1934C36.2475 19.0188 36.1215 18.8016 36.0566 18.5634L34.845 14.121C34.7963 13.9393 34.8218 13.7457 34.9158 13.5827C35.0099 13.4198 35.1649 13.3009 35.3466 13.2522C35.5277 13.2037 35.7207 13.2289 35.8833 13.3222C36.046 13.4156 36.165 13.5695 36.2145 13.7504L37.3199 17.8019C37.3527 17.9211 37.4162 18.0297 37.5039 18.1168C37.5917 18.204 37.7007 18.2666 37.8202 18.2986L41.8711 19.4032C41.961 19.4277 42.0452 19.4696 42.1189 19.5267C42.1926 19.5837 42.2543 19.6548 42.3006 19.7357C42.3468 19.8166 42.3766 19.9058 42.3884 19.9982C42.4001 20.0907 42.3935 20.1845 42.369 20.2744V20.2744C42.3444 20.3652 42.3021 20.4502 42.2445 20.5244C42.1869 20.5987 42.115 20.6607 42.0332 20.707C41.9514 20.7532 41.8611 20.7828 41.7678 20.7939C41.6744 20.8049 41.5798 20.7974 41.4894 20.7716V20.7716Z" fill="white"/>
<path d="M42.5631 16.8626L40.2799 16.5365C39.9761 16.4931 39.6945 16.3524 39.4775 16.1354C39.2604 15.9184 39.1196 15.6368 39.0761 15.333L38.7502 13.0504C38.7236 12.8643 38.7721 12.6752 38.8849 12.5247C38.9978 12.3743 39.1657 12.2748 39.3519 12.2481V12.2481C39.538 12.2215 39.7271 12.27 39.8776 12.3828C40.028 12.4957 40.1275 12.6636 40.1542 12.8498L40.4045 14.6062C40.4263 14.7581 40.4967 14.8989 40.6052 15.0074C40.7137 15.1159 40.8545 15.1863 41.0064 15.208L42.7627 15.4586C42.9489 15.4852 43.1169 15.5846 43.2298 15.735C43.3426 15.8855 43.3912 16.0746 43.3647 16.2608C43.338 16.4468 43.2386 16.6147 43.0884 16.7275C42.9381 16.8403 42.7492 16.8889 42.5631 16.8626Z" fill="white"/>
<path d="M38.0165 23.3383L34.1598 22.5666C33.885 22.5117 33.6326 22.3768 33.4345 22.1787C33.2363 21.9805 33.1013 21.7282 33.0463 21.4534L32.2751 17.5967C32.2383 17.4123 32.2763 17.2208 32.3806 17.0644C32.4849 16.9079 32.6471 16.7993 32.8315 16.7624V16.7624C33.0159 16.7256 33.2074 16.7636 33.3638 16.8679C33.5202 16.9722 33.6288 17.1344 33.6658 17.3188L34.3485 20.7109C34.3761 20.8481 34.4436 20.9741 34.5426 21.0731C34.6417 21.172 34.7678 21.2394 34.905 21.2668L38.2985 21.946C38.4829 21.983 38.645 22.0916 38.7493 22.248C38.8536 22.4045 38.8916 22.5959 38.8548 22.7803V22.7803C38.8367 22.8722 38.8006 22.9595 38.7486 23.0374C38.6967 23.1152 38.6298 23.182 38.5519 23.2339C38.4739 23.2857 38.3865 23.3217 38.2946 23.3396C38.2028 23.3575 38.1082 23.3571 38.0165 23.3383V23.3383Z" fill="white"/>
<path d="M41.6058 36.633C41.4241 36.6816 41.2305 36.6562 41.0675 36.5621C40.9046 36.468 40.7857 36.3131 40.737 36.1314L39.5651 31.6784C39.5023 31.4395 39.5029 31.1884 39.5669 30.9498C39.6308 30.7113 39.756 30.4935 39.9299 30.3182L43.1708 27.0483C43.2364 26.9821 43.3144 26.9295 43.4003 26.8934C43.4862 26.8574 43.5784 26.8386 43.6716 26.8382C43.7648 26.8378 43.8571 26.8557 43.9434 26.891C44.0296 26.9263 44.1081 26.9782 44.1743 27.0438C44.2405 27.1094 44.2931 27.1874 44.3292 27.2733C44.3652 27.3592 44.384 27.4514 44.3844 27.5446C44.3848 27.6378 44.3669 27.7302 44.3316 27.8164C44.2963 27.9027 44.2444 27.9811 44.1788 28.0473L41.2255 31.0256C41.138 31.1131 41.075 31.2219 41.0425 31.3412C41.0101 31.4606 41.0094 31.5863 41.0406 31.706L42.109 35.7674C42.1567 35.9489 42.1305 36.1419 42.0362 36.3041C41.9419 36.4663 41.7871 36.5846 41.6058 36.633V36.633Z" fill="white"/>
<path d="M36.7779 34.4021L35.5174 30.6764C35.4276 30.411 35.4184 30.1249 35.4909 29.8542C35.5635 29.5836 35.7146 29.3405 35.9251 29.1556L38.8793 26.5589C39.0206 26.4348 39.2053 26.372 39.393 26.3841C39.5806 26.3962 39.7557 26.4823 39.8799 26.6235V26.6235C40.004 26.7647 40.0669 26.9495 40.0548 27.1371C40.0426 27.3248 39.9565 27.4999 39.8154 27.6241L37.217 29.9096C37.1118 30.002 37.0363 30.1234 37 30.2586C36.9637 30.3937 36.9682 30.5366 37.0129 30.6693L38.1219 33.9472C38.1821 34.1253 38.1691 34.3201 38.0858 34.4887C38.0025 34.6572 37.8556 34.7858 37.6775 34.8462C37.5893 34.8761 37.496 34.8884 37.4031 34.8822C37.3101 34.8761 37.2193 34.8517 37.1357 34.8105C37.0522 34.7692 36.9776 34.7119 36.9162 34.6419C36.8548 34.5718 36.8078 34.4903 36.7779 34.4021V34.4021Z" fill="white"/>
<path d="M44.6594 35.1014L43.7997 32.9619C43.6854 32.677 43.6666 32.3628 43.7461 32.0664C43.8255 31.7699 43.999 31.5072 44.2404 31.3177L46.054 29.8939C46.202 29.7779 46.3901 29.7254 46.5768 29.7479C46.7635 29.7704 46.9336 29.8662 47.0498 30.0142C47.1658 30.1622 47.2184 30.3502 47.1958 30.5369C47.1733 30.7237 47.0775 30.8938 46.9295 31.0099L45.5339 32.1051C45.4132 32.1998 45.3264 32.3312 45.2867 32.4794C45.247 32.6276 45.2564 32.7847 45.3135 32.9271L45.975 34.5734C46.0449 34.748 46.0427 34.9432 45.9689 35.1161C45.895 35.289 45.7554 35.4256 45.5809 35.4957V35.4957C45.4064 35.5654 45.2114 35.5631 45.0386 35.4892C44.8658 35.4153 44.7295 35.2758 44.6594 35.1014V35.1014Z" fill="white"/>
<path d="M11.4564 28.5546C11.3901 28.489 11.3375 28.411 11.3015 28.3251C11.2654 28.2392 11.2466 28.147 11.2462 28.0538C11.2458 27.9606 11.2637 27.8683 11.299 27.782C11.3343 27.6958 11.3862 27.6173 11.4519 27.5511L14.4078 24.5691C14.4953 24.4817 14.5583 24.3729 14.5908 24.2535C14.6232 24.1342 14.6239 24.0084 14.5927 23.8887L13.5236 19.8275C13.476 19.6462 13.5021 19.4533 13.5963 19.2912C13.6904 19.129 13.845 19.0107 14.0261 18.9622V18.9622C14.2079 18.9135 14.4015 18.939 14.5644 19.033C14.7273 19.1271 14.8462 19.282 14.8949 19.4638L16.0668 23.9168C16.1297 24.1555 16.1292 24.4066 16.0653 24.6451C16.0015 24.8836 15.8765 25.1013 15.7027 25.2767L12.4611 28.5468C12.3957 28.6134 12.3178 28.6665 12.2319 28.7029C12.146 28.7394 12.0537 28.7585 11.9604 28.7593C11.867 28.76 11.7744 28.7423 11.688 28.7072C11.6015 28.672 11.5228 28.6202 11.4564 28.5546Z" fill="white"/>
<path d="M8.58152 25.5809C8.46544 25.433 8.41283 25.245 8.43524 25.0584C8.45766 24.8717 8.55326 24.7015 8.70105 24.5853L10.0967 23.4902C10.2174 23.3954 10.3042 23.2641 10.3439 23.1158C10.3836 22.9676 10.3742 22.8105 10.3171 22.6681L9.65565 21.0218C9.58567 20.8473 9.58786 20.6521 9.66175 20.4791C9.73563 20.3062 9.87516 20.1697 10.0497 20.0996V20.0996C10.2242 20.0296 10.4194 20.0318 10.5923 20.1057C10.7653 20.1796 10.9018 20.3191 10.9719 20.4936L11.8309 22.6333C11.9452 22.9182 11.964 23.2324 11.8845 23.5289C11.8051 23.8253 11.6316 24.088 11.3902 24.2775L9.57726 25.7011C9.42926 25.8172 9.24123 25.8697 9.0545 25.8472C8.86778 25.8246 8.69765 25.7288 8.58152 25.5809V25.5809Z" fill="white"/>
<path d="M15.7529 28.9737C15.6288 28.8324 15.5659 28.6476 15.578 28.46C15.5901 28.2723 15.6762 28.0972 15.8174 27.973L18.4167 25.688C18.5219 25.5956 18.5973 25.4742 18.6336 25.339C18.67 25.2039 18.6655 25.061 18.6207 24.9283L17.5118 21.6504C17.4516 21.4723 17.4646 21.2775 17.5479 21.109C17.6312 20.9404 17.778 20.8118 17.9561 20.7514C18.1342 20.6912 18.329 20.7042 18.4976 20.7875C18.6661 20.8708 18.7947 21.0177 18.8551 21.1957L20.1158 24.9221C20.2054 25.1874 20.2146 25.4732 20.1422 25.7437C20.0697 26.0141 19.9188 26.2571 19.7086 26.442L16.7516 29.0365C16.6106 29.1602 16.4264 29.223 16.2393 29.2112C16.0521 29.1994 15.8772 29.114 15.7529 28.9737Z" fill="white"/>
<path d="M25.7256 36.4361C25.629 36.462 25.528 36.4672 25.4293 36.4514C25.3305 36.4355 25.2363 36.399 25.1526 36.3442C25.069 36.2893 24.9979 36.2174 24.944 36.1331C24.8902 36.0489 24.8547 35.9542 24.84 35.8553L24.178 31.3949L20.1285 30.5096C20.0015 30.4817 19.8846 30.4195 19.7906 30.3296C19.6966 30.2398 19.629 30.1259 19.5954 30.0003C19.5617 29.8747 19.5632 29.7422 19.5998 29.6174C19.6363 29.4926 19.7064 29.3803 19.8025 29.2926L22.8668 26.5012L21.2099 22.3074C21.1601 22.1815 21.1474 22.044 21.1732 21.9111C21.199 21.7782 21.2624 21.6555 21.3557 21.5575C21.449 21.4594 21.5685 21.3901 21.6999 21.3577C21.8314 21.3254 21.9694 21.3313 22.0976 21.3748L26.495 22.8624L29.5594 19.3754C29.6487 19.2736 29.7652 19.1995 29.8952 19.1618C30.0252 19.1241 30.1633 19.1244 30.2932 19.1627C30.4231 19.2009 30.5393 19.2755 30.6281 19.3777C30.7169 19.4799 30.7747 19.6053 30.7945 19.7392L31.4571 24.1994L35.5059 25.0849C35.633 25.1128 35.7499 25.175 35.8439 25.2648C35.9379 25.3547 36.0054 25.4686 36.0391 25.5942C36.0728 25.7198 36.0712 25.8522 36.0347 25.977C35.9982 26.1018 35.9281 26.2142 35.832 26.3018L32.7684 29.0931L34.4246 33.2871C34.4744 33.413 34.4871 33.5505 34.4613 33.6834C34.4354 33.8162 34.3721 33.939 34.2788 34.037C34.1854 34.1351 34.066 34.2044 33.9345 34.2367C33.8031 34.2691 33.6651 34.2632 33.5369 34.2197L29.1392 32.7307L26.0747 36.2177C25.9825 36.3234 25.861 36.3994 25.7256 36.4361V36.4361ZM28.7352 31.2233C28.8706 31.187 29.0136 31.1916 29.1464 31.2365L32.5424 32.3828L31.2681 29.1566C31.2157 29.0229 31.205 28.8765 31.2376 28.7366C31.2701 28.5968 31.3444 28.4701 31.4504 28.3733L33.8621 26.1775L30.6753 25.4804C30.535 25.4496 30.4074 25.377 30.3093 25.2722C30.2112 25.1673 30.1472 25.0352 30.1258 24.8932L29.6162 21.4621L27.2483 24.1528C27.1558 24.2581 27.0343 24.3337 26.8989 24.37C26.7635 24.4062 26.6205 24.4016 26.4877 24.3566L23.0958 23.2092L24.3701 26.4355C24.4225 26.5692 24.4331 26.7157 24.4004 26.8556C24.3677 26.9955 24.2933 27.1222 24.1871 27.2189L21.7744 29.4164L24.9612 30.1136C25.1016 30.1442 25.2294 30.2167 25.3276 30.3215C25.4258 30.4263 25.4899 30.5585 25.5114 30.7005L26.021 34.1317L28.3848 31.442C28.4773 31.3359 28.5993 31.2598 28.7352 31.2233Z" fill="white"/>
</g>
<defs>
<clipPath id="clip0_297_4164">
<rect width="45.4" height="45.4" fill="white" transform="translate(0 11.75) rotate(-15)"/>
</clipPath>
</defs>
</svg>
