<svg width="63" height="63" viewBox="0 0 63 63" fill="none" xmlns="http://www.w3.org/2000/svg">
<g opacity="0.33" clip-path="url(#clip0_76_1776)">
<path d="M43.6353 15.3306C43.8583 15.0177 43.7854 14.5833 43.4725 14.3603C43.1596 14.1373 42.7252 14.2102 42.5022 14.5231L19.0856 47.3841C18.8626 47.697 18.9355 48.1315 19.2484 48.3544C19.5613 48.5774 19.9958 48.5045 20.2187 48.1916L43.6353 15.3306Z" fill="#1775BB"/>
<path d="M51.5109 32.5916L11.3444 28.7393C10.962 28.7026 10.6222 28.9829 10.5855 29.3654C10.5488 29.7478 10.8291 30.0876 11.2116 30.1243L51.378 33.9767C51.7605 34.0134 52.1003 33.7331 52.137 33.3506C52.1737 32.9681 51.8934 32.6283 51.5109 32.5916Z" fill="#1775BB"/>
<path d="M23.6186 12.7135C23.4591 12.364 23.0465 12.2099 22.6969 12.3694C22.3473 12.5289 22.1933 12.9416 22.3528 13.2911L39.1029 50.001C39.2624 50.3506 39.6751 50.5046 40.0247 50.3451C40.3742 50.1856 40.5283 49.773 40.3688 49.4234L23.6186 12.7135Z" fill="#1775BB"/>
<path d="M21.8524 47.8181L21.3249 46.1607C21.2792 46.0173 21.1883 45.8925 21.0657 45.8052C20.9431 45.7178 20.7955 45.6726 20.645 45.6763L18.9062 45.7186C18.7218 45.7231 18.5431 45.6542 18.4095 45.5269C18.2759 45.3997 18.1983 45.2246 18.1938 45.0401C18.1916 44.9488 18.2074 44.8579 18.2402 44.7727C18.2731 44.6874 18.3225 44.6095 18.3855 44.5433C18.4485 44.4772 18.5239 44.4241 18.6075 44.3871C18.691 44.3501 18.781 44.3299 18.8723 44.3276L21.1327 44.2725C21.4337 44.2652 21.7289 44.3557 21.9741 44.5304C22.2193 44.7051 22.4011 44.9546 22.4925 45.2415L23.1783 47.396C23.2342 47.5718 23.2181 47.7627 23.1333 47.9266C23.0486 48.0905 22.9022 48.214 22.7263 48.27C22.6393 48.2977 22.5476 48.308 22.4566 48.3003C22.3656 48.2925 22.2769 48.267 22.1958 48.225C22.1146 48.1831 22.0425 48.1255 21.9836 48.0557C21.9247 47.9859 21.8801 47.9051 21.8524 47.8181Z" fill="#1775BB"/>
<path d="M38.2247 21.7263C38.1251 21.6559 38.0458 21.5605 37.9947 21.4497L35.9336 16.991C35.8953 16.9078 35.8739 16.8179 35.8705 16.7264C35.8671 16.6349 35.8818 16.5436 35.9137 16.4578C35.9457 16.372 35.9942 16.2933 36.0566 16.2263C36.119 16.1593 36.1941 16.1053 36.2774 16.0674V16.0674C36.4449 15.9901 36.6362 15.9825 36.8093 16.0462C36.9823 16.11 37.123 16.2398 37.2004 16.4073L38.9268 20.1465C38.9775 20.2564 39.0561 20.3511 39.1546 20.4214C39.2532 20.4916 39.3684 20.5349 39.4888 20.547L43.5867 20.9582C43.7703 20.9766 43.9389 21.0672 44.0557 21.21C44.1724 21.3528 44.2277 21.5361 44.2094 21.7196V21.7196C44.1909 21.9032 44.1003 22.0718 43.9575 22.1886C43.8147 22.3053 43.6314 22.3606 43.4479 22.3422L38.5606 21.8495C38.4398 21.8385 38.324 21.796 38.2247 21.7263V21.7263Z" fill="#1775BB"/>
<path d="M35.8031 25.1261C35.6912 25.0464 35.6054 24.9353 35.5565 24.8069L34.0216 20.7702C33.9888 20.6848 33.9732 20.5938 33.9756 20.5024C33.978 20.411 33.9984 20.321 34.0356 20.2375C34.0728 20.1539 34.1261 20.0786 34.1925 20.0157C34.2589 19.9528 34.337 19.9036 34.4224 19.8709V19.8709C34.5078 19.8384 34.5988 19.8231 34.6901 19.8257C34.7814 19.8284 34.8714 19.849 34.9547 19.8865C35.0381 19.9239 35.1132 19.9774 35.1759 20.0439C35.2386 20.1103 35.2876 20.1885 35.3201 20.2739L36.5267 23.4454C36.5755 23.5739 36.6613 23.685 36.7733 23.7648C36.8852 23.8445 37.0182 23.8893 37.1556 23.8936L40.5472 23.9988C40.6386 24.0016 40.7284 24.0224 40.8117 24.0599C40.8951 24.0975 40.9701 24.1511 41.0327 24.2176C41.0953 24.2842 41.1442 24.3625 41.1765 24.4479C41.2089 24.5334 41.2241 24.6244 41.2212 24.7157V24.7157C41.2184 24.807 41.1976 24.8969 41.1601 24.9802C41.1225 25.0635 41.069 25.1386 41.0024 25.2012C40.9358 25.2638 40.8576 25.3127 40.7721 25.345C40.6866 25.3773 40.5956 25.3925 40.5043 25.3897L36.1854 25.255C36.0481 25.2508 35.915 25.2059 35.8031 25.1261Z" fill="#1775BB"/>
<path d="M40.6468 18.3265C40.5242 18.2392 40.4332 18.1144 40.3876 17.971L39.5435 15.3193C39.4875 15.1434 39.5037 14.9526 39.5885 14.7887C39.6732 14.6248 39.8196 14.5013 39.9954 14.4453V14.4453C40.1712 14.3894 40.3621 14.4055 40.526 14.4903C40.6899 14.575 40.8134 14.7214 40.8694 14.8972L41.3969 16.5546C41.4426 16.698 41.5335 16.8228 41.6561 16.9101C41.7787 16.9975 41.9263 17.0427 42.0768 17.039L43.8155 16.9967C44 16.9922 44.1787 17.0611 44.3123 17.1884C44.4459 17.3156 44.5235 17.4907 44.528 17.6752V17.6752C44.5325 17.8596 44.4635 18.0383 44.3362 18.1719C44.209 18.3056 44.0339 18.3831 43.8494 18.3876L41.0674 18.4555C40.917 18.4591 40.7693 18.4139 40.6468 18.3265Z" fill="#1775BB"/>
<path d="M25.5227 46.3092L23.7963 42.57C23.7455 42.4601 23.667 42.3654 23.5684 42.2951C23.4699 42.2249 23.3547 42.1816 23.2342 42.1695L19.1363 41.7583C18.9528 41.7398 18.7841 41.6493 18.6674 41.5065C18.5506 41.3637 18.4953 41.1804 18.5137 40.9968V40.9968C18.5322 40.8133 18.6227 40.6447 18.7655 40.5279C18.9083 40.4111 19.0916 40.3559 19.2752 40.3742L23.7688 40.8248C24.0096 40.849 24.24 40.9356 24.4371 41.0761C24.6343 41.2165 24.7913 41.406 24.8928 41.6258L26.7856 45.7261C26.8629 45.8936 26.8705 46.0849 26.8067 46.258C26.743 46.4311 26.6131 46.5718 26.4457 46.6491C26.2782 46.7264 26.0869 46.734 25.9138 46.6702C25.7407 46.6065 25.6 46.4766 25.5227 46.3092Z" fill="#1775BB"/>
<path d="M27.4027 42.4417L26.196 39.2702C26.1472 39.1418 26.0614 39.0307 25.9495 38.9509C25.8376 38.8711 25.7045 38.8263 25.5672 38.8221L22.1755 38.7169C22.0842 38.7141 21.9943 38.6933 21.911 38.6557C21.8277 38.6182 21.7526 38.5646 21.69 38.498C21.6274 38.4315 21.5786 38.3532 21.5462 38.2677C21.5139 38.1823 21.4987 38.0913 21.5015 38C21.5043 37.9086 21.5251 37.8187 21.5626 37.7354C21.6002 37.6521 21.6538 37.577 21.7204 37.5145C21.7869 37.4519 21.8652 37.403 21.9506 37.3707C22.0361 37.3383 22.1271 37.3231 22.2184 37.326L26.0741 37.4466C26.3485 37.4552 26.6143 37.5448 26.8379 37.7042C27.0615 37.8635 27.233 38.0855 27.3307 38.3421L28.7034 41.9471C28.7359 42.0325 28.7512 42.1235 28.7485 42.2148C28.7459 42.3061 28.7252 42.3961 28.6878 42.4794C28.6504 42.5628 28.5969 42.638 28.5304 42.7006C28.4639 42.7633 28.3858 42.8123 28.3003 42.8448C28.2149 42.8773 28.124 42.8926 28.0326 42.8899C27.9413 42.8873 27.8514 42.8666 27.768 42.8292C27.6847 42.7918 27.6095 42.7383 27.5468 42.6718C27.4841 42.6053 27.4351 42.5271 27.4027 42.4417Z" fill="#1775BB"/>
<path d="M15.4935 33.7761L17.8689 30.4115C17.9386 30.3123 17.9811 30.1965 17.9923 30.0757C18.0034 29.9549 17.9828 29.8333 17.9324 29.723L16.2418 25.9708C16.2042 25.8875 16.1834 25.7976 16.1805 25.7062C16.1777 25.6149 16.1929 25.5239 16.2252 25.4384C16.2576 25.3529 16.3065 25.2747 16.3691 25.2081C16.4317 25.1415 16.5068 25.0879 16.5901 25.0504C16.7582 24.9746 16.9496 24.9687 17.122 25.034C17.2945 25.0992 17.434 25.2303 17.51 25.3983L19.3665 29.5147C19.466 29.7355 19.5062 29.9784 19.483 30.2195C19.4599 30.4605 19.3742 30.6914 19.2345 30.8892L16.6303 34.5785C16.5232 34.7287 16.3608 34.8303 16.1789 34.8609C15.9969 34.8914 15.8103 34.8484 15.66 34.7413C15.5106 34.6349 15.4093 34.4737 15.3781 34.293C15.347 34.1122 15.3884 33.9265 15.4935 33.7761Z" fill="#1775BB"/>
<path d="M19.8817 34.4541C19.7388 34.3376 19.648 34.1691 19.6293 33.9856C19.6105 33.8022 19.6654 33.6188 19.7818 33.4758L21.9251 30.8445C22.0117 30.738 22.0649 30.6082 22.0779 30.4716C22.0909 30.3349 22.0632 30.1974 21.9983 30.0765L20.3939 27.0855C20.3068 26.923 20.2878 26.7325 20.341 26.5559C20.3943 26.3794 20.5154 26.2312 20.6779 26.1439V26.1439C20.84 26.0563 21.0304 26.0365 21.2071 26.0891C21.3838 26.1417 21.5324 26.2622 21.6203 26.4243L23.4443 29.8238C23.5741 30.0658 23.6294 30.3408 23.6032 30.6142C23.577 30.8875 23.4705 31.147 23.2971 31.36L20.8605 34.3512C20.8031 34.4223 20.7321 34.4813 20.6518 34.525C20.5715 34.5686 20.4833 34.596 20.3924 34.6055C20.3015 34.6151 20.2096 34.6066 20.122 34.5807C20.0344 34.5547 19.9527 34.5117 19.8817 34.4541V34.4541Z" fill="#1775BB"/>
<path d="M12.3974 32.3361C12.2611 32.2118 12.1798 32.0385 12.1712 31.8543C12.1626 31.6701 12.2276 31.49 12.3517 31.3536L13.5242 30.0679C13.6255 29.9567 13.6881 29.8156 13.7024 29.6657C13.7168 29.5159 13.6821 29.3655 13.6037 29.237L12.6971 27.7521C12.6012 27.5946 12.5717 27.4055 12.6151 27.2263C12.6586 27.0471 12.7714 26.8925 12.9288 26.7964V26.7964C13.0862 26.7003 13.2754 26.6706 13.4547 26.714C13.634 26.7573 13.7887 26.8701 13.8849 27.0275L15.0628 28.9578C15.2196 29.2147 15.2888 29.5156 15.2602 29.8152C15.2315 30.1148 15.1064 30.3971 14.9037 30.6196L13.3805 32.2908C13.3189 32.3584 13.2446 32.4131 13.1619 32.452C13.0792 32.4908 12.9896 32.5129 12.8983 32.5171C12.807 32.5213 12.7158 32.5075 12.6298 32.4765C12.5439 32.4454 12.4649 32.3977 12.3974 32.3361Z" fill="#1775BB"/>
<path d="M45.2106 37.3159L43.3581 33.2023C43.2586 32.9816 43.2184 32.7386 43.2415 32.4976C43.2647 32.2565 43.3504 32.0257 43.4901 31.8279L46.0943 28.1386C46.2013 27.9883 46.3637 27.8868 46.5457 27.8562C46.7277 27.8257 46.9143 27.8687 47.0646 27.9758C47.2143 28.0825 47.3158 28.2442 47.3467 28.4255C47.3776 28.6068 47.3354 28.7929 47.2294 28.9432L44.8546 32.3082C44.7849 32.4075 44.7424 32.5233 44.7312 32.644C44.7201 32.7648 44.7407 32.8864 44.7911 32.9968L46.484 36.7506C46.5216 36.8339 46.5424 36.9238 46.5452 37.0151C46.5481 37.1065 46.5329 37.1975 46.5005 37.2829C46.4682 37.3684 46.4193 37.4467 46.3567 37.5133C46.2941 37.5798 46.219 37.6334 46.1357 37.671V37.671C46.0517 37.7091 45.961 37.7301 45.8689 37.7329C45.7767 37.7356 45.685 37.72 45.5989 37.687C45.5128 37.6539 45.4342 37.6041 45.3675 37.5404C45.3009 37.4767 45.2476 37.4004 45.2106 37.3159V37.3159Z" fill="#1775BB"/>
<path d="M48.8378 35.6884L47.6593 33.7577C47.5025 33.5008 47.4332 33.2 47.4619 32.9003C47.4906 32.6007 47.6157 32.3185 47.8184 32.0959L49.3416 30.4247C49.4659 30.2884 49.6392 30.207 49.8234 30.1985C50.0076 30.1899 50.1877 30.2548 50.3241 30.379V30.379C50.4604 30.5033 50.5417 30.6766 50.5503 30.8608C50.5589 31.045 50.4939 31.2251 50.3698 31.3615L49.1973 32.6472C49.096 32.7584 49.0334 32.8995 49.0191 33.0494C49.0047 33.1992 49.0394 33.3496 49.1178 33.4781L50.0244 34.963C50.1205 35.1205 50.1501 35.3096 50.1068 35.4889C50.0635 35.6682 49.9507 35.823 49.7933 35.9191C49.6359 36.0151 49.447 36.0447 49.2678 36.0014C49.0887 35.9582 48.934 35.8456 48.8378 35.6884Z" fill="#1775BB"/>
<path d="M41.1012 36.2908L39.2777 32.8916C39.1477 32.6495 39.0923 32.3743 39.1185 32.1008C39.1446 31.8272 39.2512 31.5676 39.4248 31.3545L41.8609 28.3638C41.9775 28.2209 42.146 28.1301 42.3294 28.1114C42.5129 28.0927 42.6963 28.1475 42.8393 28.264V28.264C42.9822 28.3805 43.073 28.549 43.0917 28.7325C43.1105 28.916 43.0556 29.0993 42.9391 29.2424L40.7993 31.8761C40.7127 31.9826 40.6595 32.1123 40.6465 32.249C40.6335 32.3856 40.6612 32.5231 40.7261 32.644L42.3304 35.6351C42.4176 35.7976 42.4366 35.9881 42.3833 36.1646C42.3301 36.3411 42.2089 36.4893 42.0465 36.5766V36.5766C41.9657 36.6202 41.8771 36.6475 41.7858 36.6567C41.6945 36.666 41.6022 36.6571 41.5143 36.6305C41.4265 36.604 41.3447 36.5603 41.2738 36.502C41.2029 36.4436 41.1442 36.3719 41.1012 36.2908V36.2908Z" fill="#1775BB"/>
<path d="M33.2847 47.3042C33.1344 47.1971 33.0328 47.0348 33.0023 46.8528C32.9717 46.6708 33.0147 46.4842 33.1218 46.3339L35.7589 42.668C35.9003 42.4714 36.0907 42.3151 36.3111 42.2146C36.5315 42.1141 36.7743 42.0729 37.0155 42.095L41.5119 42.5056C41.6029 42.5139 41.6914 42.5401 41.7723 42.5826C41.8532 42.6251 41.925 42.6831 41.9835 42.7533C42.0419 42.8235 42.086 42.9046 42.1131 42.9919C42.1403 43.0791 42.15 43.1709 42.1416 43.2619C42.1333 43.3529 42.1072 43.4414 42.0647 43.5223C42.0222 43.6032 41.9642 43.675 41.894 43.7335C41.8237 43.7919 41.7427 43.836 41.6554 43.8632C41.5681 43.8903 41.4764 43.9 41.3854 43.8916L37.289 43.5166C37.1683 43.505 37.0466 43.5252 36.9361 43.5752C36.8255 43.6252 36.73 43.7031 36.6589 43.8014L34.2535 47.1446C34.146 47.294 33.9836 47.3946 33.802 47.4245C33.6205 47.4544 33.4344 47.4112 33.2847 47.3042V47.3042Z" fill="#1775BB"/>
<path d="M31.9589 42.2597L33.9905 38.9808C34.1352 38.7472 34.3459 38.5617 34.5959 38.4476C34.8459 38.3336 35.1241 38.2961 35.3954 38.34L39.2036 38.9539C39.3856 38.9834 39.5485 39.0839 39.6565 39.2334C39.7644 39.3829 39.8086 39.5691 39.7793 39.7512V39.7512C39.7499 39.9332 39.6493 40.0961 39.4999 40.2041C39.3504 40.312 39.1641 40.3562 38.9821 40.3269L35.6313 39.7878C35.4958 39.7659 35.3569 39.7846 35.2319 39.8415C35.107 39.8985 35.0017 39.9911 34.9293 40.1077L33.1418 42.9925C33.0447 43.1492 32.8892 43.261 32.7097 43.3032C32.5302 43.3454 32.3413 43.3146 32.1845 43.2175C32.1068 43.1695 32.0393 43.1065 31.9859 43.0324C31.9325 42.9582 31.8942 42.8743 31.8733 42.7854C31.8523 42.6964 31.8491 42.6042 31.8638 42.514C31.8785 42.4239 31.9108 42.3374 31.9589 42.2597V42.2597Z" fill="#1775BB"/>
<path d="M36.3492 48.6583L37.4311 46.6725C37.5753 46.4083 37.8012 46.1979 38.0751 46.073C38.3489 45.9481 38.6559 45.9153 38.9499 45.9797L41.159 46.4629C41.3392 46.5024 41.4963 46.6119 41.5957 46.7672C41.6952 46.9225 41.729 47.111 41.6895 47.2912C41.65 47.4714 41.5406 47.6285 41.3853 47.728C41.2299 47.8275 41.0415 47.8612 40.8613 47.8218L39.1617 47.4496C39.0147 47.4174 38.8612 47.4338 38.7243 47.4962C38.5873 47.5587 38.4743 47.6639 38.4023 47.796L37.5698 49.3239C37.4814 49.4858 37.3324 49.6059 37.1554 49.658C36.9785 49.71 36.7881 49.6897 36.6262 49.6014V49.6014C36.4645 49.513 36.3445 49.364 36.2926 49.1872C36.2407 49.0103 36.261 48.8201 36.3492 48.6583V48.6583Z" fill="#1775BB"/>
<path d="M20.5773 19.4549C20.5856 19.3639 20.6117 19.2754 20.6542 19.1945C20.6967 19.1136 20.7547 19.0418 20.825 18.9833C20.8952 18.9249 20.9763 18.8808 21.0635 18.8537C21.1508 18.8265 21.2426 18.8168 21.3336 18.8252L25.4344 19.2C25.5551 19.2115 25.6768 19.1913 25.7873 19.1414C25.8978 19.0914 25.9934 19.0134 26.0645 18.9151L28.4693 15.5716C28.5768 15.4223 28.739 15.3217 28.9204 15.2917C29.1019 15.2617 29.2878 15.3048 29.4376 15.4115V15.4115C29.5879 15.5186 29.6894 15.681 29.72 15.863C29.7505 16.0449 29.7075 16.2316 29.6004 16.3819L26.9634 20.0477C26.822 20.2444 26.6318 20.4007 26.4115 20.5013C26.1912 20.6018 25.9485 20.6432 25.7073 20.6212L21.2103 20.2101C21.1191 20.2022 21.0304 20.1764 20.9492 20.1342C20.8679 20.0919 20.7959 20.0341 20.7371 19.9639C20.6782 19.8937 20.6339 19.8127 20.6065 19.7253C20.579 19.638 20.5691 19.5461 20.5773 19.4549Z" fill="#1775BB"/>
<path d="M21.0325 15.4243C21.0719 15.2442 21.1812 15.0871 21.3364 14.9875C21.4916 14.888 21.68 14.8541 21.8602 14.8933L23.5598 15.2656C23.7068 15.2977 23.8603 15.2814 23.9972 15.2189C24.1341 15.1564 24.2471 15.0513 24.3192 14.9191L25.1517 13.3912C25.24 13.2293 25.3891 13.1092 25.566 13.0571C25.7429 13.0051 25.9333 13.0254 26.0952 13.1137V13.1137C26.2571 13.202 26.3773 13.3511 26.4294 13.528C26.4814 13.7049 26.4611 13.8953 26.3728 14.0572L25.2904 16.0426C25.1462 16.3068 24.9202 16.5172 24.6464 16.6421C24.3725 16.767 24.0656 16.7998 23.7715 16.7355L21.563 16.2526C21.3829 16.2131 21.2258 16.1036 21.1263 15.9483C21.0268 15.793 20.993 15.6045 21.0325 15.4243V15.4243Z" fill="#1775BB"/>
<path d="M22.942 22.9666C22.9715 22.7845 23.072 22.6217 23.2215 22.5137C23.371 22.4057 23.5572 22.3615 23.7393 22.3908L27.0902 22.9309C27.2257 22.9528 27.3646 22.9341 27.4896 22.8772C27.6145 22.8203 27.7198 22.7277 27.7922 22.611L29.5797 19.7262C29.6768 19.5695 29.8323 19.4577 30.0118 19.4155C30.1913 19.3733 30.3802 19.4042 30.537 19.5012C30.6938 19.5984 30.8055 19.7538 30.8477 19.9333C30.8899 20.1128 30.8591 20.3018 30.7621 20.4586L28.7301 23.7381C28.5854 23.9715 28.3749 24.1569 28.1251 24.2709C27.8752 24.3849 27.5973 24.4224 27.3262 24.3787L23.5178 23.7613C23.3363 23.7319 23.1738 23.6317 23.0659 23.4828C22.958 23.3339 22.9135 23.1483 22.942 22.9666Z" fill="#1775BB"/>
<path d="M23.5216 35.1684C23.4417 35.1115 23.3747 35.0384 23.3251 34.9538C23.2754 34.8692 23.2442 34.7751 23.2335 34.6776C23.2228 34.5801 23.2328 34.4814 23.2629 34.3881C23.293 34.2947 23.3425 34.2088 23.4082 34.1359L26.3691 30.8511L24.5113 27.2353C24.4531 27.1218 24.4272 26.9945 24.4364 26.8673C24.4457 26.7401 24.4897 26.6179 24.5637 26.5141C24.6377 26.4102 24.7389 26.3287 24.8561 26.2784C24.9733 26.2282 25.102 26.2111 25.2283 26.229L29.2526 26.8047L31.3908 22.9337C31.455 22.8175 31.5511 22.722 31.6677 22.6586C31.7844 22.5952 31.9167 22.5665 32.0492 22.5759C32.1816 22.5853 32.3086 22.6324 32.4151 22.7117C32.5216 22.7909 32.6033 22.899 32.6504 23.0231L34.2698 27.2781L38.8203 27.4198C38.953 27.4238 39.0818 27.4657 39.1915 27.5405C39.3012 27.6153 39.3871 27.72 39.4393 27.8421C39.4914 27.9642 39.5075 28.0987 39.4856 28.2296C39.4638 28.3606 39.4049 28.4826 39.316 28.5811L36.3556 31.8663L38.2129 35.4818C38.2711 35.5953 38.297 35.7226 38.2877 35.8498C38.2785 35.977 38.2344 36.0992 38.1604 36.203C38.0864 36.3069 37.9853 36.3884 37.8681 36.4386C37.7509 36.4889 37.6221 36.506 37.4959 36.488L33.4722 35.9128L31.3334 39.7834C31.2692 39.8996 31.1731 39.995 31.0565 40.0584C30.9398 40.1218 30.8074 40.1505 30.675 40.1411C30.5426 40.1317 30.4156 40.0846 30.3091 40.0054C30.2025 39.9261 30.1209 39.8181 30.0738 39.6939L28.4552 35.4378L23.9047 35.2961C23.7672 35.2924 23.6338 35.2479 23.5216 35.1684V35.1684ZM29.3434 34.1914C29.4554 34.2711 29.5412 34.3822 29.59 34.5106L30.8426 37.7951L32.4878 34.8175C32.5561 34.6943 32.6603 34.5949 32.7864 34.5322C32.9125 34.4696 33.0546 34.4466 33.194 34.4665L36.3604 34.9203L34.8986 32.0744C34.8343 31.9491 34.8096 31.8073 34.8277 31.6676C34.8457 31.528 34.9058 31.3971 34.9998 31.2923L37.2773 28.7652L33.7638 28.6534C33.6265 28.6492 33.4934 28.6044 33.3815 28.5246C33.2696 28.4449 33.1838 28.3338 33.135 28.2053L31.8858 24.9232L30.2406 27.9009C30.1722 28.024 30.0679 28.1235 29.9417 28.1861C29.8155 28.2487 29.6732 28.2715 29.5338 28.2515L26.3655 27.798L27.8273 30.6438C27.8917 30.7691 27.9166 30.911 27.8986 31.0508C27.8807 31.1905 27.8207 31.3215 27.7266 31.4264L25.4492 33.9535L28.9592 34.0628C29.0972 34.0666 29.2309 34.1114 29.3434 34.1914Z" fill="#1775BB"/>
</g>
<defs>
<clipPath id="clip0_76_1776">
<rect width="44.525" height="44.525" fill="white" transform="translate(26.1387 0.299805) rotate(35.4735)"/>
</clipPath>
</defs>
</svg>
