<svg width="32" height="32" viewBox="0 0 32 32" fill="none" xmlns="http://www.w3.org/2000/svg">
<circle cx="16" cy="16" r="16" fill="#C5FFCA"/>
<path d="M21.4519 7.71906H10.5481C9.44431 7.71905 8.38546 8.15635 7.60334 8.93525C6.82122 9.71415 6.37955 10.7712 6.375 11.875V19.3584C6.37486 20.0916 6.56838 20.8119 6.93599 21.4463C7.30359 22.0807 7.83224 22.6068 8.46844 22.9712C8.6673 23.084 8.83279 23.2474 8.9481 23.4449C9.06341 23.6423 9.12444 23.8667 9.125 24.0953V25.1747C9.12535 25.2681 9.15308 25.3594 9.20475 25.4372C9.25642 25.515 9.32976 25.576 9.41572 25.6125C9.50167 25.6491 9.59646 25.6597 9.68837 25.643C9.78027 25.6262 9.86526 25.5829 9.93281 25.5184L10.9434 24.5697C11.661 23.9039 12.6046 23.5354 13.5834 23.5384H21.4519C22.0005 23.5384 22.5437 23.4303 23.0504 23.2201C23.5572 23.01 24.0176 22.702 24.4052 22.3137C24.7928 21.9255 25.1 21.4646 25.3093 20.9575C25.5186 20.4504 25.6259 19.907 25.625 19.3584V11.875C25.6205 10.7712 25.1788 9.71415 24.3967 8.93525C23.6145 8.15635 22.5557 7.71905 21.4519 7.71906ZM19.6712 18.2H17.3406C17.2403 18.2 17.1442 18.2398 17.0732 18.3107C17.0023 18.3817 16.9625 18.4778 16.9625 18.5781V19.9256C16.9625 19.9785 16.9415 20.0292 16.9041 20.0666C16.8667 20.104 16.816 20.125 16.7631 20.125H15.2369C15.184 20.125 15.1333 20.104 15.0959 20.0666C15.0585 20.0292 15.0375 19.9785 15.0375 19.9256V19.1625H15.5187C15.6464 19.1625 15.7688 19.1118 15.859 19.0215C15.9493 18.9313 16 18.8089 16 18.6812C16 18.5536 15.9493 18.4312 15.859 18.3409C15.7688 18.2507 15.6464 18.2 15.5187 18.2H12.3287C12.2908 18.2002 12.2536 18.1896 12.2215 18.1694C12.1893 18.1492 12.1637 18.1203 12.1474 18.086C12.1312 18.0517 12.1251 18.0135 12.1298 17.9758C12.1345 17.9382 12.1499 17.9026 12.1741 17.8734L13.5044 16.2131C13.5286 16.1839 13.5439 16.1484 13.5487 16.1107C13.5534 16.0731 13.5473 16.0349 13.531 16.0006C13.5148 15.9663 13.4891 15.9373 13.457 15.9171C13.4248 15.8969 13.3876 15.8863 13.3497 15.8866H12.9269C12.8889 15.8868 12.8517 15.8762 12.8196 15.856C12.7875 15.8358 12.7618 15.8068 12.7455 15.7725C12.7293 15.7382 12.7232 15.7 12.7279 15.6624C12.7326 15.6247 12.748 15.5892 12.7722 15.56L13.9959 14.0372C14.0201 14.008 14.0355 13.9724 14.0402 13.9348C14.0449 13.8971 14.0388 13.8589 14.0226 13.8246C14.0063 13.7903 13.9807 13.7614 13.9485 13.7412C13.9164 13.721 13.8792 13.7104 13.8412 13.7106C13.8033 13.7108 13.7661 13.7002 13.734 13.68C13.7018 13.6598 13.6762 13.6309 13.6599 13.5966C13.6437 13.5623 13.6375 13.5241 13.6423 13.4864C13.647 13.4488 13.6624 13.4133 13.6866 13.3841L15.8487 10.6891C15.8674 10.6654 15.8912 10.6464 15.9183 10.6333C15.9454 10.6201 15.9751 10.6133 16.0052 10.6133C16.0353 10.6133 16.065 10.6201 16.092 10.6333C16.1191 10.6464 16.1429 10.6654 16.1616 10.6891L18.3237 13.3841C18.348 13.4133 18.3633 13.4488 18.368 13.4864C18.3728 13.5241 18.3666 13.5623 18.3504 13.5966C18.3342 13.6309 18.3085 13.6598 18.2763 13.68C18.2442 13.7002 18.207 13.7108 18.1691 13.7106C18.1311 13.7104 18.0939 13.721 18.0618 13.7412C18.0297 13.7614 18.004 13.7903 17.9877 13.8246C17.9715 13.8589 17.9654 13.8971 17.9701 13.9348C17.9748 13.9724 17.9902 14.008 18.0144 14.0372L19.2381 15.56C19.2623 15.5892 19.2777 15.6247 19.2824 15.6624C19.2871 15.7 19.281 15.7382 19.2648 15.7725C19.2485 15.8068 19.2228 15.8358 19.1907 15.856C19.1586 15.8762 19.1214 15.8868 19.0834 15.8866H18.6537C18.6158 15.8863 18.5786 15.8969 18.5465 15.9171C18.5143 15.9373 18.4887 15.9663 18.4724 16.0006C18.4562 16.0349 18.45 16.0731 18.4548 16.1107C18.4595 16.1484 18.4749 16.1839 18.4991 16.2131L19.8294 17.8734C19.8538 17.9029 19.8692 17.9387 19.8738 17.9767C19.8784 18.0146 19.872 18.0531 19.8553 18.0876C19.8387 18.122 19.8124 18.1509 19.7798 18.1708C19.7472 18.1908 19.7095 18.2009 19.6712 18.2Z" fill="#46C531"/>
</svg>
